<?xml version="1.0" standalone="no"?>
<!DOCTYPE svg PUBLIC "-//W3C//DTD SVG 1.1//EN" "http://www.w3.org/Graphics/SVG/1.1/DTD/svg11.dtd" >
<svg>
<metadata>
Created by FontForge 20090914 at Mon Mar 19 17:09:52 2018
 By www-data
Copyright (c) 1995 Adobe Systems Incorporated.  All Rights Reserved.Optima is a trademark of Linotype-Hell AG and/or its subsidiaries.
</metadata>
<defs>
<font id="Optima-Medium" horiz-adv-x="500" >
  <font-face 
    font-family="Optima-Medium"
    font-weight="500"
    font-stretch="normal"
    units-per-em="1000"
    panose-1="2 11 6 0 0 0 0 0 0 0"
    ascent="800"
    descent="-200"
    x-height="480.998"
    cap-height="687"
    bbox="-24 -275.997 1000 896.003"
    underline-thickness="50"
    underline-position="-50"
    unicode-range="U+0020-U+2122"
  />
<missing-glyph horiz-adv-x="502" 
d="M-1 0h500v500h-500v-500zM9 10v480h480v-480h-480z" />
    <glyph glyph-name=".notdef" horiz-adv-x="502" 
d="M-1 0h500v500h-500v-500zM9 10v480h480v-480h-480z" />
    <glyph glyph-name="space" unicode=" " horiz-adv-x="250" 
 />
    <glyph glyph-name="exclam" unicode="!" horiz-adv-x="444" 
d="M204 173c1.33301 0 3.66992 0.330078 7.00293 0.99707h7h6c3.33301 -0.666992 5.66602 -1 6.99902 -1l40 404c2 17.333 3 30.333 3 39c0 6.66699 -0.5 13.834 -1.5 21.501s-3.33301 15.334 -7 23.001s-9.33398 14.167 -17.001 19.5s-17.834 8 -30.501 8
s-23 -2.83301 -31 -8.5s-13.667 -12.667 -17 -21s-5.5 -16.166 -6.5 -23.499s-1.5 -14 -1.5 -20s0.666992 -15.333 2 -28c0.666992 -2.66699 1 -5.66699 1 -9zM219.004 114.997c-18 0 -33.167 -6.33301 -45.5 -19s-18.5 -27.667 -18.5 -45s6.16699 -32.166 18.5 -44.499
s27.5 -18.5 45.5 -18.5c17.333 0 32.166 6.33301 44.499 19s18.5 27.667 18.5 45s-6.16699 32.166 -18.5 44.499s-27.166 18.5 -44.499 18.5z" />
    <glyph glyph-name="quotedbl" unicode="&#x22;" 
d="M186 409l26 286h-84l26 -286h32zM346 409l26 286h-84l26 -286h32z" />
    <glyph glyph-name="numbersign" unicode="#" 
d="M125 0l34 184h128l-34 -184h70l34 184h116v61h-105l26 140h116v61h-105l40 213h-70l-40 -213h-127l39 213h-70l-39 -213h-117v-61h104l-24 -140h-117v-61h105l-34 -184h70zM196 385h128l-26 -140h-128z" />
    <glyph glyph-name="dollar" unicode="$" 
d="M404 549c4 30 13.3359 59.3311 28.0029 87.998c-23.333 13.333 -48.166 23.833 -74.499 31.5s-56.5 12.167 -90.5 13.5c0 7.33301 0.166992 14.666 0.5 21.999s1.16602 17 2.49902 29l2 29c-10.667 -1.33301 -19.334 -2 -26.001 -2c-3.33301 0 -10.333 0.333008 -21 1
c-2 0.666992 -4.33301 1 -7 1c2 -20 3.33301 -34 4 -42s1.33398 -20.333 2.00098 -37v-4c-17.333 -2 -36 -6.66699 -56 -14s-39.167 -18.333 -57.5 -33s-33.5 -33.667 -45.5 -57s-18 -51 -18 -83c0 -22.667 4 -45.667 12 -69s22.333 -43 43 -59
c14 -10.667 27.5 -19.167 40.5 -25.5s38.167 -17.166 75.5 -32.499l6 -2v-276c-10.667 0 -22.167 1 -34.5 3s-26.166 6.16699 -41.499 12.5s-30.5 16.5 -45.5 30.5s-28.5 32.333 -40.5 55h-12c-0.666992 -12 -2.16699 -25 -4.5 -39s-6.83301 -31.333 -13.5 -52
c29.333 -22 59.333 -36.5 90 -43.5s64.667 -10.5 102 -10.5c0 -18 -0.333008 -32 -1 -42s-2.33398 -25.667 -5.00098 -47c10.667 1.33301 20 2 28 2s16.667 -0.666992 26 -2c-2.66699 24 -4.16699 40.333 -4.5 49s-0.5 23.334 -0.5 44.001
c25.333 4.66699 47.166 10.5 65.499 17.5s37.166 19.5 56.499 37.5c21.333 20 38.166 44.167 50.499 72.5s18.5 57.166 18.5 86.499c0 24.667 -3.66699 46.334 -11 65.001s-17.166 34.334 -29.499 47.001s-26.5 23.5 -42.5 32.5s-34.667 18.167 -56 27.5l-30 12l-22 9v245
c22 -2.66699 40.667 -7.5 56 -14.5s27.333 -15.167 36 -24.5s15.167 -18 19.5 -26s8.16602 -17 11.499 -27zM224.003 411.998l-0.998047 1.00098c-12.667 4.66699 -23.834 9.66699 -33.501 15s-19.334 12.333 -29.001 21s-17.667 19.5 -24 32.5s-9.5 28.5 -9.5 46.5
c0 20.667 3.83301 38.167 11.5 52.5s17 25.5 28 33.5s21.5 13.667 31.5 17s18.667 5.66602 26 6.99902v-226zM267.005 286.999l1 -0.000976562c14.667 -6.66699 27.334 -13 38.001 -19s21.167 -13.833 31.5 -23.5s18.666 -21.667 24.999 -36s9.5 -31.166 9.5 -50.499
c0 -66.667 -35 -108.667 -105 -126v255z" />
    <glyph glyph-name="percent" unicode="%" horiz-adv-x="889" 
d="M374 535c0 48 -15.5 87.667 -46.5 119s-70.5 47 -118.5 47c-47.333 0 -86.666 -15.833 -117.999 -47.5s-47 -71.167 -47 -118.5s15.667 -86.833 47 -118.5s70.666 -47.5 117.999 -47.5c48 0 87.5 15.667 118.5 47s46.5 71 46.5 119zM209 677
c17.333 0 31.833 -4.49707 43.5 -13.4971s20.834 -20.667 27.501 -35s11.167 -29.5 13.5 -45.5s3.5 -32 3.5 -48c0 -17.333 -1.16699 -34 -3.5 -50s-6.83301 -31 -13.5 -45s-15.834 -25.333 -27.501 -34s-26.167 -13 -43.5 -13c-16.667 0 -30.834 4.33301 -42.501 13
s-20.834 20.167 -27.501 34.5s-11.334 29.666 -14.001 45.999s-4 32.5 -4 48.5c0 15.333 1.33301 31.166 4 47.499s7.33398 31.666 14.001 45.999s15.834 26 27.501 35s25.834 13.5 42.501 13.5zM845 148.003c0 48 -15.5 87.667 -46.5 119s-70.5 47 -118.5 47
c-47.333 0 -86.666 -15.833 -117.999 -47.5s-47 -71.167 -47 -118.5s15.667 -86.833 47 -118.5s70.666 -47.5 117.999 -47.5c48 0 87.5 15.667 118.5 47s46.5 71 46.5 119zM680 290.003c17.333 0 31.833 -4.49707 43.5 -13.4971s20.834 -20.667 27.501 -35
s11.167 -29.5 13.5 -45.5s3.5 -32 3.5 -48c0 -17.333 -1.16699 -34 -3.5 -50s-6.83301 -31 -13.5 -45s-15.834 -25.333 -27.501 -34s-26.167 -13 -43.5 -13c-16.667 0 -30.834 4.33301 -42.501 13s-20.834 20.167 -27.501 34.5s-11.334 29.666 -14.001 45.999
s-4 32.5 -4 48.5c0 15.333 1.33301 31.166 4 47.499s7.33398 31.666 14.001 45.999s15.834 26 27.501 35s25.834 13.5 42.501 13.5zM225 -34.9941c9.33301 2 17.667 3 25 3c8.66699 0 17 -1 25 -3l388 757c-6 -2 -13.667 -3 -23 -3c-5.33301 0 -11.333 0.666992 -18 2
c-1.33301 0 -3.33301 0.333008 -6 1z" />
    <glyph glyph-name="ampersand" unicode="&#x26;" horiz-adv-x="722" 
d="M605 375c-2 -18.667 -6.33398 -38.5 -13.001 -59.5s-14.667 -40.5 -24 -58.5s-19 -34.167 -29 -48.5s-19.333 -25.5 -28 -33.5c-10.667 10.667 -23 24.167 -37 40.5l-44 51.5l-96 116l-2 3l2 2c46.667 33.333 79.834 61.333 99.501 84s29.5 51.334 29.5 86.001
c0 34 -11.167 61.833 -33.5 83.5s-56.5 32.5 -102.5 32.5c-28 0 -52.333 -4.83301 -73 -14.5s-37.167 -22.334 -49.5 -38.001s-21.333 -32.667 -27 -51s-8.5 -36.5 -8.5 -54.5c0 -20 4.33301 -42.167 13 -66.5s25.667 -52.833 51 -85.5c-62 -31.333 -106 -62.333 -132 -93
s-39 -68 -39 -112c0 -52 17.5 -94.5 52.5 -127.5s83.5 -49.5 145.5 -49.5c27.333 0 52.333 3.16699 75 9.5s42.667 14.166 60 23.499s32 19.166 44 29.499s24 21.5 36 33.5c24 -24 48.333 -51.667 73 -83c9.33301 2.66699 19.5 4.33398 30.5 5.00098s22.5 1 34.5 1
c26 0 45.667 -2 59 -6v14c-26.667 24 -50 46.5 -70 67.5s-40.333 43.5 -61 67.5c0 0.666992 -0.333008 1.33398 -1 2.00098c17.333 18.667 37.5 44.667 60.5 78s43.5 68.333 61.5 105c-8.66699 4.66699 -17.5 11.5 -26.5 20.5s-16.5 18.167 -22.5 27.5zM243.999 551
c0 26.667 7.66699 48.168 23 64.501s35.333 24.5 60 24.5c24 0 42.833 -8 56.5 -24s20.5 -35.333 20.5 -58c0 -25.333 -7.66699 -51.333 -23 -78s-38.333 -49.334 -69 -68.001c-24.667 32 -42.167 57.833 -52.5 77.5s-15.5 40.167 -15.5 61.5zM152.999 194.001
c0 20 3.33301 38.167 10 54.5s15 30.166 25 41.499s20 20.833 30 28.5s21 14.834 33 21.501c9.33301 -12.667 22.666 -29.667 39.999 -51l56.5 -67.5l58 -66c18.333 -20.333 33.833 -36.833 46.5 -49.5c-25.333 -22 -48.5 -38.667 -69.5 -50s-45.833 -17 -74.5 -17
c-18 0 -36.167 3.5 -54.5 10.5s-35.166 17.333 -50.499 31s-27.5 30 -36.5 49s-13.5 40.5 -13.5 64.5z" />
    <glyph glyph-name="quotesingle" unicode="'" horiz-adv-x="250" 
d="M141 409l26 286h-84l26 -286h32z" />
    <glyph glyph-name="parenleft" unicode="(" horiz-adv-x="333" 
d="M85 283c0 -46 3.66992 -86.332 11.0029 -120.999s16.333 -65.667 27 -93c19.333 -50 40.666 -90.667 63.999 -122s47.666 -59.333 72.999 -84c3.33301 4.66699 6.5 8.33398 9.5 11.001l12.5 11c-35.333 40.667 -64.5 95.667 -87.5 165s-34.5 145.333 -34.5 228
c0 88.667 12.167 167.167 36.5 235.5s54.5 122.166 90.5 161.499l-13.5 12c-3 2.66699 -6.5 6.33398 -10.5 11.001c-14.667 -12.667 -30.5 -29 -47.5 -49s-35.5 -47.667 -55.5 -83c-26.667 -48.667 -45.834 -94.834 -57.501 -138.501s-17.5 -91.834 -17.5 -144.501z" />
    <glyph glyph-name="parenright" unicode=")" horiz-adv-x="333" 
d="M248 282c0 54.667 -5.99902 104.164 -17.999 148.497s-32 90.833 -60 139.5c-19.333 34.667 -37.166 61.667 -53.499 81s-31.833 35 -46.5 47l-2 -2c-4.66699 -5.33301 -8.33398 -9.33301 -11.001 -12s-6.33398 -5.66699 -11.001 -9
c39.333 -43.333 70.333 -99.166 93 -167.499s34 -144.833 34 -229.5c0 -82 -11.5 -158 -34.5 -228s-52.167 -125 -87.5 -165c4.66699 -3.33301 8.5 -6.66602 11.5 -9.99902l10.5 -12c22 21.333 41.833 43 59.5 65s35.5 51 53.5 87c20.667 42 36.167 84.333 46.5 127
s15.5 89.334 15.5 140.001z" />
    <glyph glyph-name="asterisk" unicode="*" 
d="M384 639l-59.002 -45.9951c-22 -16.667 -41.333 -30 -58 -40c0 17.333 1.5 40.333 4.5 69s6.16699 54 9.5 76c-10 -2.66699 -19.667 -4 -29 -4c-8.66699 0 -20.334 1.33301 -35.001 4c3.33301 -20.667 6.66602 -45.167 9.99902 -73.5s5.33301 -52.5 6 -72.5
c-14 8 -29.667 18.333 -47 31s-38 28.667 -62 48l-10 7c-4 -12.667 -8 -22.334 -12 -29.001s-10.667 -15.667 -20 -27c6 -2.66699 14.333 -6 25 -10l66 -28c18 -8 32.333 -15 43 -21c-16 -8.66699 -36.333 -18.334 -61 -29.001l-73 -31
c8.66699 -10.667 14.834 -18.834 18.501 -24.501s8.16699 -15.834 13.5 -30.501c6.66699 5.33301 17 13 31 23c38.667 30 68 51 88 63c-1.33301 -22 -3.5 -46.333 -6.5 -73s-6.16699 -50.667 -9.5 -72v-2c2 0.666992 3.66699 1 5 1c12.667 2 22.334 3 29.001 3
c8 0 18 -1.33301 30 -4c-3.33301 23.333 -6.33301 49.166 -9 77.499s-4.66699 51.833 -6 70.5c5.33301 -3.33301 20 -14.333 44 -33l39 -28l37 -27c4.66699 13.333 8.66699 23.333 12 30s9.33301 15.334 18 26.001c-25.333 9.33301 -50.666 19.666 -75.999 30.999
s-45 21 -59 29c10.667 6 19.167 10.5 25.5 13.5l21 9.5l28 12l46.5 20l16 6c-6.66699 7.33301 -12.167 14.5 -16.5 21.5s-10.166 18.167 -17.499 33.5z" />
    <glyph glyph-name="plus" unicode="+" horiz-adv-x="593" 
d="M263 0h66v216h218v60h-218v215h-66v-215h-218v-60h218v-216z" />
    <glyph glyph-name="comma" unicode="," horiz-adv-x="250" 
d="M12 -176c5.33301 -1.33301 10.999 -3.33105 16.999 -5.99805c1.33301 -0.666992 3 -1.33398 5 -2.00098l130 216c6 10 10 19 12 27s3 14.667 3 20c0 12 -3.16699 22.333 -9.5 31s-16.833 13 -31.5 13c-14 0 -25.667 -4.83301 -35 -14.5s-17.666 -27.834 -24.999 -54.501z
" />
    <glyph glyph-name="hyphen" unicode="-" horiz-adv-x="333" 
d="M288 203l-1.00195 5c-2 13.333 -3 26 -3 38s1 24.667 3 38l1 5l-61 -3.5c-18 -1 -37 -1.5 -57 -1.5c-23.333 0 -57.666 1.33301 -102.999 4c-7.33301 0 -14.666 0.333008 -21.999 1v-2c2.66699 -14.667 4 -28 4 -40s-1 -25.667 -3 -41l-1 -3
c20.667 2 38.167 3.33301 52.5 4s31.166 1 50.499 1s38.833 -0.333008 58.5 -1s46.834 -2 81.501 -4z" />
    <glyph glyph-name="period" unicode="." horiz-adv-x="250" 
d="M126 115c-18 0 -33.167 -6.33301 -45.5 -19s-18.5 -27.667 -18.5 -45s6.16699 -32.166 18.5 -44.499s27.5 -18.5 45.5 -18.5c17.333 0 32.166 6.33301 44.499 19s18.5 27.667 18.5 45s-6.16699 32.166 -18.5 44.499s-27.166 18.5 -44.499 18.5z" />
    <glyph glyph-name="slash" unicode="/" horiz-adv-x="278" 
d="M286 673c-8 -2 -18 -3 -30 -3s-22.667 1 -32 3l-231 -692c8 2 17.333 3 28 3c12 0 23 -1 33 -3z" />
    <glyph glyph-name="zero" unicode="0" 
d="M469 341c0 34.667 -2.16895 69.5029 -6.50195 104.503s-13.5 70.333 -27.5 106s-36.167 65.5 -66.5 89.5s-69.833 36 -118.5 36c-48 0 -87.167 -12 -117.5 -36s-52.666 -54.5 -66.999 -91.5s-23.666 -74.5 -27.999 -112.5s-6.5 -76.667 -6.5 -116
c0 -38 2.16699 -75 6.5 -111s13.5 -71.5 27.5 -106.5s36.167 -64 66.5 -87s69.833 -34.5 118.5 -34.5c50 0 90.5 14.167 121.5 42.5s53.333 62.666 67 102.999s22.167 78.166 25.5 113.499s5 68.666 5 99.999zM368.998 349.003
c0 -113.333 -9.83496 -196.499 -29.502 -249.499s-50.167 -79.5 -91.5 -79.5c-27.333 0 -49.166 9.66699 -65.499 29s-28.166 44.666 -35.499 75.999s-11.833 63 -13.5 95s-2.5 70.667 -2.5 116c0 40.667 1.16699 77.667 3.5 111s7.33301 64.666 15 93.999s19.667 53 36 71
s37.833 27 64.5 27c24.667 0 44.834 -7 60.501 -21s27.667 -33.667 36 -59s14.166 -55.166 17.499 -89.499s5 -74.5 5 -120.5z" />
    <glyph glyph-name="one" unicode="1" 
d="M23 522c11.333 -6 19.999 -12.1641 25.999 -18.4971s11.333 -13.833 16 -22.5c10.667 8 24 16.833 40 26.5l52.5 30.5l83.5 47h1c0 -88.667 -0.666992 -214.334 -2 -377.001v-54c0 -24.667 -1.16699 -51.167 -3.5 -79.5s-5.16602 -54.833 -8.49902 -79.5
c19.333 4 37 6 53 6c14 0 33 -2 57 -6c-1.33301 26.667 -2 63.334 -2 110.001c0 78 0.333008 162.667 1 254c0.666992 57.333 1.66699 111.166 3 161.499s2.66602 87.166 3.99902 110.499c0.666992 10.667 1.33398 19.667 2.00098 27s1.66699 15.333 3 24l-11 7
c-18.667 -14.667 -42.167 -30.334 -70.5 -47.001s-58 -32.5 -89 -47.5s-60.333 -28.167 -88 -39.5s-50.167 -20 -67.5 -26v-7z" />
    <glyph glyph-name="two" unicode="2" 
d="M16 -5l47.002 0.999023c69.333 1.33301 123 2.33301 161 3s76.333 1 115 1c20.667 0 42.167 -0.5 64.5 -1.5s42.833 -2.16699 61.5 -3.5c-3.33301 11.333 -5 25.666 -5 42.999c0 16.667 1.66699 32.334 5 47.001c-42 -4.66699 -88.333 -7 -139 -7h-192l195 199
c30 31.333 55.167 65.833 75.5 103.5s30.5 77.167 30.5 118.5c0 52 -18 94.833 -54 128.5s-85.333 50.5 -148 50.5c-32.667 0 -61.334 -4.66699 -86.001 -14s-44.834 -20.666 -60.501 -33.999s-27.5 -26 -35.5 -38s-15 -23.667 -21 -35
c9.33301 -8 18.166 -17.5 26.499 -28.5s14.833 -23.5 19.5 -37.5l16 3c0 25.333 3.66699 47.166 11 65.499s17 33 29 44s24.833 19 38.5 24s27.167 7.5 40.5 7.5c26 0 47.167 -5.5 63.5 -16.5s28.5 -24.833 36.5 -41.5s13.333 -33.167 16 -49.5s4 -32.166 4 -47.499
c0 -51.333 -9.83301 -95.833 -29.5 -133.5s-44.5 -73.5 -74.5 -107.5c-69.333 -82 -139.666 -154 -210.999 -216v-28z" />
    <glyph glyph-name="three" unicode="3" 
d="M34 101c0 -17.333 -1.00195 -31.001 -3.00195 -41.001s-5.33301 -21.333 -10 -34c22 -12 44.667 -21.833 68 -29.5s53.333 -11.5 90 -11.5c39.333 0 75.166 5.16699 107.499 15.5s60 25 83 44s40.5 41.333 52.5 67s18 53.167 18 82.5c0 30.667 -6.16699 56.5 -18.5 77.5
s-28 37.333 -47 49s-38.167 19.834 -57.5 24.501s-37 7 -53 7c-3.33301 0 -5 1.33301 -5 4c0 1.33301 1 2.33301 3 3s7 2 15 4c38.667 12 70 32.167 94 60.5s36 61.5 36 99.5c0 28.667 -6.16699 53.167 -18.5 73.5s-28.166 36.333 -47.499 48s-40.166 20 -62.499 25
s-44.5 7.5 -66.5 7.5c-41.333 0 -75 -6.33301 -101 -19s-49.667 -28.667 -71 -48c8.66699 -12 14.834 -22.333 18.501 -31s7.16699 -21 10.5 -37l15 -1c1.33301 11.333 3.33301 21.166 6 29.499s7.66699 16.833 15 25.5c9.33301 11.333 22 21 38 29s34 12 54 12
c33.333 0 60.5 -11.333 81.5 -34s31.5 -53.667 31.5 -93c0 -16.667 -2.16699 -33 -6.5 -49s-11.5 -30.833 -21.5 -44.5s-22.833 -24.5 -38.5 -32.5s-34.167 -12 -55.5 -12c-15.333 0 -31.666 2.33301 -48.999 7v-3c1.33301 -9.33301 2 -18 2 -26
c0 -7.33301 -0.666992 -15.666 -2 -24.999v-2c8.66699 2.66699 16.167 4.66699 22.5 6s14.5 2 24.5 2c44 0 80 -11.833 108 -35.5s42 -60.167 42 -109.5c0 -18.667 -2.5 -37.167 -7.5 -55.5s-13.167 -35.5 -24.5 -51.5s-27 -29 -47 -39s-44.333 -15 -73 -15
c-24 0 -48.333 5.5 -73 16.5s-45.334 31.167 -62.001 60.5z" />
    <glyph glyph-name="four" unicode="4" 
d="M297 181c0 -35.333 -0.833984 -67.833 -2.50098 -97.5s-3.5 -59.167 -5.5 -88.5l3 1c21.333 4 37 6 47 6c11.333 0 27.666 -2.33301 48.999 -7h1c0 12 -0.333008 28.667 -1 50c0 9.33301 -0.333008 30.666 -1 63.999c-0.666992 44 -1 68 -1 72
c18.667 0 34.167 -0.333008 46.5 -1s24.5 -1.66699 36.5 -3c3.33301 -0.666992 6.66602 -1 9.99902 -1c-3.33301 11.333 -5 23.333 -5 36s1.66699 25.667 5 39c-2 0 -11 -0.333008 -27 -1c-18 -1.33301 -30.167 -2 -36.5 -2s-16.166 -0.333008 -29.499 -1v26
c0.666992 52.667 1.16699 100.5 1.5 143.5s0.666016 74.167 0.999023 93.5s1 41.333 2 66s2.5 55.334 4.5 92.001c-2 0 -4.33301 -0.333008 -7 -1c-11.333 -2.66699 -21.666 -4 -30.999 -4s-21.666 1.33301 -36.999 4c-2.66699 0.666992 -4.66699 1 -6 1
c-2.66699 -4.66699 -21 -32.167 -55 -82.5l-99.5 -146.5l-98.5 -143c-33.333 -48 -54.666 -77.667 -63.999 -89c1.33301 -8 2 -14 2 -18c0 -1.33301 -0.333008 -3 -1 -5v-7c21.333 0.666992 45.5 1.5 72.5 2.5s48.167 1.5 63.5 1.5h163zM80.999 247l1 1l28 45.5l31 47.5
l51 73l59 83.5l47 66.5v-317h-217z" />
    <glyph glyph-name="five" unicode="5" 
d="M89 312l0.999023 0.999023c12 9.33301 25.833 17.833 41.5 25.5s35.5 11.5 59.5 11.5c16.667 0 33.5 -2.83301 50.5 -8.5s32.667 -14.5 47 -26.5s25.833 -28 34.5 -48s13 -43.667 13 -71c0 -54 -14.667 -96.5 -44 -127.5s-66.666 -46.5 -111.999 -46.5
c-28 0 -54.833 7.16699 -80.5 21.5s-45.167 34.166 -58.5 59.499l-11 -1c-1.33301 -14.667 -3 -27 -5 -37s-5 -23 -9 -39c25.333 -17.333 51.666 -29.166 78.999 -35.499s53.333 -9.5 78 -9.5c38 0 73.333 5.5 106 16.5s60.834 26.5 84.501 46.5s42 44.333 55 73
s19.5 60 19.5 94c0 32 -5.5 59.833 -16.5 83.5s-26.167 43 -45.5 58s-41.5 26 -66.5 33s-52.167 10.5 -81.5 10.5c-24.667 0 -44.5 -2 -59.5 -6s-29.5 -9.66699 -43.5 -17c0 71.333 2.33301 142 7 212c53.333 0 105 -0.666992 155 -2s93.667 -3.66602 131 -6.99902l-1 5
c-2.66699 14 -4 26 -4 36c0 9.33301 1 20.333 3 33c1.33301 7.33301 2 12.333 2 15c-5.33301 0 -10.666 -0.333008 -15.999 -1c-28.667 -1.33301 -54.834 -2.5 -78.501 -3.5s-52.5 -1.5 -86.5 -1.5c-40 0 -71 0.5 -93 1.5s-41.333 2.16699 -58 3.5l-12 1
c2.66699 -28 4.5 -53 5.5 -75s1.5 -50 1.5 -84c0 -22 -0.333008 -46.5 -1 -73.5s-2 -62.833 -4 -107.5v-5z" />
    <glyph glyph-name="six" unicode="6" 
d="M384 633c-3.33301 10.667 -5.33496 18.165 -6.00195 22.498s-1.33398 9.5 -2.00098 15.5c-1.33301 0 -3.66602 0.333008 -6.99902 1c-16.667 2.66699 -31.667 4 -45 4c-38 0 -74.5 -8.83301 -109.5 -26.5s-66.167 -43.5 -93.5 -77.5s-48.666 -75.5 -63.999 -124.5
s-23 -103.833 -23 -164.5c0 -58 5.66699 -104.167 17 -138.5s26.333 -63.5 45 -87.5c14.667 -19.333 35.334 -36.5 62.001 -51.5s60 -22.5 100 -22.5c31.333 0 60 5.5 86 16.5s48.667 26.5 68 46.5s34.166 43.667 44.499 71s15.5 57.333 15.5 90
c0 60.667 -17 108.334 -51 143.001s-79.667 52 -137 52c-38 0 -69.667 -8 -95 -24s-43.666 -34 -54.999 -54c2 53.333 8.5 99.833 19.5 139.5s25.667 72.334 44 98.001s38.833 44.667 61.5 57s46.667 18.5 72 18.5c14 0 29.667 -2.33301 47 -7l2 -1zM253.998 21.998
c-34.667 0 -63.002 14.166 -85.002 42.499s-33 69.5 -33 123.5s11.167 95.333 33.5 124s52.5 43 90.5 43c22.667 0 41.5 -5.16699 56.5 -15.5s26.5 -23.5 34.5 -39.5s13.5 -33 16.5 -51s4.5 -36.333 4.5 -55c0 -22 -2 -43.167 -6 -63.5s-10.667 -38.666 -20 -54.999
s-21.666 -29.333 -36.999 -39s-33.666 -14.5 -54.999 -14.5z" />
    <glyph glyph-name="seven" unicode="7" 
d="M497 662c-32.667 -1.33301 -69.168 -2.49902 -109.501 -3.49902s-73.5 -1.5 -99.5 -1.5c-38 0 -70.5 0.333008 -97.5 1s-53.833 2 -80.5 4l-64 6c3.33301 -14.667 5 -31 5 -49s-1.66699 -34.667 -5 -50l46.5 4.5c10.333 1 23.333 1.83301 39 2.5s30.834 1 45.501 1
s44.667 0.333008 90 1h130c-11.333 -22.667 -24 -46.334 -38 -71.001l-49 -84c-6 -10 -9.33301 -15.667 -10 -17l-61.5 -103l-53 -86.5l-60 -94.5l-76.5 -119l3 -8c16 4 30.667 6 44 6s27.333 -2 42 -6l56.5 119l71.5 139l41 72.5l69.5 120.5l70.5 120.5l51 84.5z" />
    <glyph glyph-name="eight" unicode="8" 
d="M301 376l2.00391 0.000976562c18 4 33.5 8.5 46.5 13.5s25.5 12.833 37.5 23.5c15.333 13.333 27.5 29.666 36.5 48.999s13.5 41.333 13.5 66c0 44.667 -16.333 80.5 -49 107.5s-78.334 40.5 -137.001 40.5c-32.667 0 -61 -4.66699 -85 -14s-43.5 -21.666 -58.5 -36.999
s-26 -32.333 -33 -51s-10.5 -37.334 -10.5 -56.001c0 -38 10.833 -68.833 32.5 -92.5s52.5 -40.5 92.5 -50.5v0c-18.667 -4 -36.334 -9.33301 -53.001 -16s-33.334 -17 -50.001 -31c-16.667 -15.333 -30.334 -34.5 -41.001 -57.5s-16 -52.167 -16 -87.5
c0 -60.667 19 -109.167 57 -145.5s91.333 -54.5 160 -54.5c68 0 122.333 18.5 163 55.5s61 89.833 61 158.5c0 38.667 -6.5 69.334 -19.5 92.001s-27.833 40.667 -44.5 54c-16 12 -32.5 20.167 -49.5 24.5s-35.5 7.16602 -55.5 8.49902v0zM249.004 390.001
c-19.333 0 -35.165 4.66797 -47.498 14.001s-21.333 20.833 -27 34.5s-9.33398 26.667 -11.001 39s-2.5 24.166 -2.5 35.499c0 12 0.666992 24 2 36s4.83301 25 10.5 39s15 25.833 28 35.5s30.167 14.5 51.5 14.5c18 0 33 -3.66699 45 -11s21.167 -17 27.5 -29
s10.666 -24.667 12.999 -38s3.5 -26.333 3.5 -39c0 -44.667 -9 -77.667 -27 -99s-40 -32 -66 -32zM248.005 21.002c-22 0 -40.666 4.66699 -55.999 14s-27.5 22 -36.5 38s-15.333 33.667 -19 53s-5.5 40 -5.5 62c0 14 1 29 3 45s6.66699 33.333 14 52s19.5 34.667 36.5 48
s39.5 20 67.5 20c23.333 0 42.666 -4.66699 57.999 -14s27.333 -22 36 -38s14.667 -33.167 18 -51.5s5 -37.833 5 -58.5c0 -52.667 -10.667 -94.167 -32 -124.5s-51 -45.5 -89 -45.5z" />
    <glyph glyph-name="nine" unicode="9" 
d="M77 53c4.66699 -10.667 8.33496 -19.5 11.002 -26.5s5.66699 -16.5 9 -28.5c12 -4.66699 22.667 -7.83398 32 -9.50098s23 -2.5 41 -2.5c32 0 63.667 5 95 15s59.666 28.667 84.999 56c36 38.667 63.833 87 83.5 145s29.5 121.333 29.5 190c0 30.667 -2.5 61.5 -7.5 92.5
s-15.167 61.333 -30.5 91s-38 54.167 -68 73.5s-68.667 29 -116 29c-66.667 0 -118.834 -21 -156.501 -63s-56.5 -94.333 -56.5 -157c0 -57.333 16.333 -104.666 49 -141.999s77.667 -56 135 -56c16 0 33.5 2.16699 52.5 6.5s38.5 13.5 58.5 27.5c11.333 8 23 20 35 36l1 1
c0 -46.667 -4.83301 -89.167 -14.5 -127.5s-23.167 -71.166 -40.5 -98.499c-34 -54.667 -77 -82 -129 -82c-13.333 0 -27.833 2.66699 -43.5 8s-30.5 14.666 -44.5 27.999zM242.001 306c-39.333 0 -68.335 15.001 -87.002 45.001s-28 68 -28 114
c0 54.667 11.333 97.167 34 127.5s50.667 45.5 84 45.5c16.667 0 32.5 -3.83301 47.5 -11.5s26.833 -17.5 35.5 -29.5c12.667 -17.333 21 -37.5 25 -60.5s6 -45.5 6 -67.5c0 -13.333 -0.833008 -27.833 -2.5 -43.5s-6.16699 -32.834 -13.5 -51.501
s-19.166 -34.667 -35.499 -48s-38.166 -20 -65.499 -20z" />
    <glyph glyph-name="colon" unicode=":" horiz-adv-x="250" 
d="M122 463c-18 0 -33.167 -6.33301 -45.5 -19s-18.5 -27.667 -18.5 -45s6.33301 -32.166 19 -44.499s27.667 -18.5 45 -18.5s32.166 6.16699 44.499 18.5s18.5 27.5 18.5 45.5c0 17.333 -6.16699 32.166 -18.5 44.499s-27.166 18.5 -44.499 18.5zM122 115
c-18 0 -33.167 -6.33301 -45.5 -19s-18.5 -27.667 -18.5 -45s6.16699 -32.166 18.5 -44.499s27.5 -18.5 45.5 -18.5c17.333 0 32.166 6.33301 44.499 19s18.5 27.667 18.5 45s-6.16699 32.166 -18.5 44.499s-27.166 18.5 -44.499 18.5z" />
    <glyph glyph-name="semicolon" unicode=";" horiz-adv-x="250" 
d="M129 463c-18 0 -33.167 -6.16699 -45.5 -18.5s-18.5 -27.166 -18.5 -44.499s6.33301 -32.333 19 -45s27.667 -19 45 -19s32.166 6.16699 44.499 18.5s18.5 27.5 18.5 45.5c0 17.333 -6.16699 32.166 -18.5 44.499s-27.166 18.5 -44.499 18.5zM12 -177
c4.66699 -1.33301 8.33105 -2.33105 10.998 -2.99805s6.33398 -2.33398 11.001 -5.00098l129 217c6 10 10.167 19 12.5 27s3.5 14.667 3.5 20c0 11.333 -3.33301 21.5 -10 30.5s-17.334 13.5 -32.001 13.5c-13.333 0 -24.666 -4.83301 -33.999 -14.5
s-17.666 -27.834 -24.999 -54.501z" />
    <glyph glyph-name="less" unicode="&#x3c;" horiz-adv-x="593" 
d="M46 212l501 -199v67l-423 164l423 166v67l-501 -200v-65z" />
    <glyph glyph-name="equal" unicode="=" horiz-adv-x="593" 
d="M45 310h502v60h-502v-60zM45 120h502v60h-502v-60z" />
    <glyph glyph-name="greater" unicode="&#x3e;" horiz-adv-x="593" 
d="M547 212v65l-501 200v-67l422 -166l-422 -164v-67z" />
    <glyph glyph-name="question" unicode="?" horiz-adv-x="444" 
d="M101 592c18.667 34.667 48.667 51.9961 90 51.9961c25.333 0 45.5 -7.66699 60.5 -23s22.5 -34.666 22.5 -57.999c0 -20.667 -5.83301 -40 -17.5 -58s-32.167 -41.333 -61.5 -70c-26.667 -27.333 -47.167 -52 -61.5 -74s-21.5 -46 -21.5 -72
c0 -12 1.83301 -24.333 5.5 -37s10 -24.667 19 -36s21.5 -20.666 37.5 -27.999s35 -11 57 -11c12 0 23.667 1.66699 35 5c0.666992 7.33301 1.66699 13.166 3 17.499s3.33301 9.5 6 15.5l-6 4c-6.66699 -4 -12.167 -6.66699 -16.5 -8s-9.83301 -2 -16.5 -2
c-16 0 -28.167 5.33301 -36.5 16s-12.5 23.334 -12.5 38.001c0 8.66699 1 16.5 3 23.5s6.16699 15.333 12.5 25s15.833 21.167 28.5 34.5s29.334 30 50.001 50l2 2c23.333 22.667 42 45 56 67s21 49.333 21 82c0 40.667 -14.5 73.834 -43.5 99.501s-68.167 38.5 -117.5 38.5
c-5.33301 0 -12 -0.333008 -20 -1s-17.667 -2.16699 -29 -4.5s-23.166 -6.16602 -35.499 -11.499s-23.5 -12.333 -33.5 -21c3.33301 -10.667 5.66602 -19 6.99902 -25s2.66602 -15.333 3.99902 -28zM208 114.996c-17.333 0 -32.166 -6.33301 -44.499 -19
s-18.5 -27.667 -18.5 -45s6.16699 -32.166 18.5 -44.499s27.166 -18.5 44.499 -18.5c18 0 33.167 6.33301 45.5 19s18.5 27.667 18.5 45s-6.16699 32.166 -18.5 44.499s-27.5 18.5 -45.5 18.5z" />
    <glyph glyph-name="at" unicode="@" horiz-adv-x="800" 
d="M669 97c-38 -26.667 -78.332 -47.1641 -120.999 -61.4971s-86 -21.5 -130 -21.5c-45.333 0 -87.666 7.33301 -126.999 22s-73.666 35.667 -102.999 63s-52 59.5 -68 96.5s-24 77.5 -24 121.5c0 44.667 8.83301 88 26.5 130s42.5 79.167 74.5 111.5
s69.5 57.666 112.5 75.999s88.833 27.5 137.5 27.5c40.667 0 78.167 -6.16699 112.5 -18.5s64 -29.833 89 -52.5s44.333 -49.5 58 -80.5s20.5 -64.833 20.5 -101.5c0 -29.333 -4.5 -58 -13.5 -86s-20.833 -53.167 -35.5 -75.5s-30.667 -39.833 -48 -52.5s-34 -19 -50 -19
c-10.667 0 -21.167 3.83301 -31.5 11.5s-15.5 20.167 -15.5 37.5c0 14.667 5 40 15 76s30 103 60 201h-69l-17 -55c-4.66699 24 -16.167 41 -34.5 51s-37.166 15 -56.499 15c-22.667 0 -45.834 -6.16699 -69.501 -18.5s-45.334 -29.5 -65.001 -51.5s-35.334 -47 -47.001 -75
s-17.5 -56.667 -17.5 -86c0 -38.667 11.667 -71.667 35 -99s53.333 -41 90 -41c27.333 0 50.666 7.83301 69.999 23.5s34.666 35.5 45.999 59.5c2 -29.333 11.667 -50.5 29 -63.5s37 -19.5 59 -19.5c25.333 0 50 7.5 74 22.5s45.5 35.333 64.5 61s34 54.667 45 87
s16.5 65.166 16.5 98.499c0 40 -7.66699 77.333 -23 112s-37.166 65 -65.499 91s-62.333 46.167 -102 60.5s-83.167 21.5 -130.5 21.5c-55.333 0 -107.5 -10 -156.5 -30s-91.833 -47.667 -128.5 -83s-65.167 -75.833 -85.5 -121.5s-30.5 -93.5 -30.5 -143.5
c0 -50.667 9.83301 -96.834 29.5 -138.501s46.834 -77.5 81.501 -107.5s74.5 -52.833 119.5 -68.5s91.833 -23.5 140.5 -23.5c97.333 0 188.666 30.333 273.999 91zM304.001 259.003c0 18.667 3.83105 40.501 11.498 65.501s18 49.333 31 73s28.167 43.167 45.5 58.5
s35 23 53 23c16 0 29.5 -5.33301 40.5 -16s16.5 -25.334 16.5 -44.001c0 -9.33301 -1.66699 -21.833 -5 -37.5s-7.66602 -32.5 -12.999 -50.5s-11.166 -35.333 -17.499 -52s-11.833 -30 -16.5 -40c-20.667 -42 -47.667 -63 -81 -63c-20.667 0 -36.667 7.66699 -48 23
s-17 35.333 -17 60z" />
    <glyph glyph-name="A" unicode="A" horiz-adv-x="667" 
d="M431 257l5 -10.998c18.667 -40.667 35.834 -80.334 51.501 -119.001s30.5 -82.667 44.5 -132c25.333 4 46.666 6 63.999 6c16.667 0 36.334 -2 59.001 -6c-1.33301 2.66699 -14.833 32.5 -40.5 89.5l-89 200.5l-97 226c-31 74 -55.5 135.333 -73.5 184
c-8 -2 -15.333 -3 -22 -3c-4.66699 0 -10.667 0.666992 -18 2l-7 1c-16 -41.333 -36.5 -91 -61.5 -149l-79 -180.5l-86 -192l-81.5 -178.5c3.33301 0.666992 7 1.33398 11 2.00098c12.667 2.66699 23.667 4 33 4s19.666 -1.33301 30.999 -4l10 -2
c13.333 52 27.333 97.667 42 137s30.667 78.666 48 117.999c1.33301 3.33301 2.33301 5.66602 3 6.99902h253zM411 307.002h-213l105 248z" />
    <glyph glyph-name="B" unicode="B" horiz-adv-x="611" 
d="M525 533c0 24 -5.83398 46.5029 -17.501 67.5029s-27.5 38.5 -47.5 52.5c-21.333 14.667 -49.666 23.834 -84.999 27.501s-94.666 5.5 -177.999 5.5c-30.667 0 -53.5 0.166992 -68.5 0.5s-27.833 1.16602 -38.5 2.49902c6 -113.333 9 -245.333 9 -396
c0 -74 -0.666992 -130 -2 -168c-0.666992 -20.667 -1.66699 -42.834 -3 -66.501s-2.66602 -44.834 -3.99902 -63.501c23.333 1.33301 41.333 2.33301 54 3s24.667 1 36 1c4.66699 0 23 -0.333008 55 -1c33.333 -0.666992 53.333 -1 60 -1c30 0 59.167 2.66699 87.5 8
s52.166 13.333 71.499 24c34 18 59.333 42.167 76 72.5s25 61.5 25 93.5c0 18.667 -3.16699 37.334 -9.5 56.001s-16.5 36 -30.5 52s-32.333 29.333 -55 40s-49.667 17.667 -81 21h-3c-8 1.33301 -12.833 2.16602 -14.5 2.49902s-2.5 1.16602 -2.5 2.49902s1 2.5 3 3.5
s6.66699 2.5 14 4.5c14 3.33301 28.5 7.83301 43.5 13.5s30.667 14.334 47 26.001s30.166 27.167 41.499 46.5s17 42.666 17 69.999zM420.999 519.003c0 -32.667 -9.33203 -60.668 -27.999 -84.001s-45 -38.666 -79 -45.999c-10.667 -2 -21 -3.66699 -31 -5
s-21.667 -2 -35 -2c-4.66699 0 -11.667 0.333008 -21 1c-14 0.666992 -24.667 1 -32 1c-1.33301 57.333 -2 100.333 -2 129c0 44 1 86.333 3 127c25.333 3.33301 48.666 5 69.999 5c43.333 0 80 -10.5 110 -31.5s45 -52.5 45 -94.5zM446 192.002
c0 -27.333 -5.16895 -52.5 -15.502 -75.5s-29.166 -42.167 -56.499 -57.5c-14 -8 -31.667 -13 -53 -15s-45.666 -3 -72.999 -3c-12 0 -26.333 0.666992 -43 2h-9c-2 47.333 -3 95.333 -3 144c0 36 0.666992 86.667 2 152h2c28.667 2 47.667 3 57 3
c20 0 39.667 -1.16699 59 -3.5s39.333 -8.33301 60 -18s38 -25 52 -46s21 -48.5 21 -82.5z" />
    <glyph glyph-name="C" unicode="C" horiz-adv-x="722" 
d="M669 134c-18.667 -22 -38.502 -39.833 -59.502 -53.5s-42 -24.167 -63 -31.5s-40 -12.166 -57 -14.499s-32.833 -3.5 -47.5 -3.5c-36 0 -70.333 6.5 -103 19.5s-61.667 32.667 -87 59s-45.166 59.166 -59.499 98.499s-21.5 84 -21.5 134c0 96 23.833 171.5 71.5 226.5
s111.5 82.5 191.5 82.5c49.333 0 94.333 -10.833 135 -32.5s68 -47.5 82 -77.5h10c2.66699 22.667 5.33398 39.5 8.00098 50.5s8 27.5 16 49.5c-33.333 14.667 -69.5 27.167 -108.5 37.5s-85.167 15.5 -138.5 15.5c-64 0 -120.167 -9 -168.5 -27s-88.333 -43.167 -120 -75.5
s-55.334 -69.833 -71.001 -112.5s-23.5 -88.667 -23.5 -138c0 -51.333 8.33301 -98.833 25 -142.5s40.667 -81.667 72 -114s70 -57.333 116 -75s97.333 -26.5 154 -26.5c92.667 0 175.334 21.667 248.001 65c0.666992 16.667 2 31 4 43s4.33301 24.667 7 38z" />
    <glyph glyph-name="D" unicode="D" horiz-adv-x="778" 
d="M725 360c0 49.333 -8.33008 95.667 -24.9971 139s-45 81 -85 113c-22.667 18 -46.167 32.167 -70.5 42.5s-50.333 17.666 -78 21.999s-57.167 7 -88.5 8s-75 1.5 -131 1.5c-54 0 -108.667 1 -164 3c2 -35.333 3.33301 -61.5 4 -78.5l2 -52.5
c1.33301 -41.333 2 -95.666 2 -162.999c0 -56 -0.333008 -104.667 -1 -146s-1.33398 -74.333 -2.00098 -99s-1.83398 -50 -3.50098 -76s-3.5 -51 -5.5 -75v-4l67 3c14.667 0.666992 28 1 40 1c6 0 18.167 -0.166992 36.5 -0.5s42.833 -1.16602 73.5 -2.49902
c30.667 -0.666992 47 -1 49 -1c51.333 0 99.666 7.33301 144.999 22s85.833 37 121.5 67s63.5 68.167 83.5 114.5s30 100.166 30 161.499zM614.003 348.001c0 -22 -1.66699 -44.502 -5 -67.502s-9 -46.167 -17 -69.5s-19.5 -45.666 -34.5 -66.999
s-33.5 -39.666 -55.5 -54.999c-16 -11.333 -33.5 -20.333 -52.5 -27s-37.667 -11.5 -56 -14.5s-35.166 -4.83301 -50.499 -5.5s-31.333 -1 -48 -1c-22.667 0 -41.5 0.5 -56.5 1.5s-31.833 2.5 -50.5 4.5c-0.666992 33.333 -1.16699 57.166 -1.5 71.499
s-0.833008 30.5 -1.5 48.5v183c0 54.667 0.333008 105.834 1 153.501s2 91.834 4 132.501h5c16 2 28.333 3.16699 37 3.5s24 0.5 46 0.5c54 0 98.833 -3 134.5 -9s69.167 -20.667 100.5 -44c20 -14.667 36.667 -31.834 50 -51.501s23.666 -40 30.999 -61
s12.5 -42.167 15.5 -63.5s4.5 -42.333 4.5 -63z" />
    <glyph glyph-name="E" unicode="E" 
d="M188 385c-0.666992 35.333 -0.995117 78.6641 -0.995117 129.997v67c0 12 0.666992 28 2 48c22 1.33301 38.5 2 49.5 2h47.5c39.333 0 70 -1 92 -3s44.333 -5.33301 67 -10l-1 3c-2 10.667 -3 20.334 -3 29.001s1.33301 20.334 4 35.001
c-40.667 -4 -91.334 -6 -152.001 -6c-92.667 0 -162.334 2 -209.001 6c2.66699 -46 4.66699 -99.833 6 -161.5s2 -118.834 2 -171.501c0 -58 -0.333008 -104.5 -1 -139.5s-1.33398 -65 -2.00098 -90s-1.66699 -45.833 -3 -62.5s-3 -38.667 -5 -66c102.667 4 180 6 232 6
c62 0 108.333 -2 139 -6l-1 3c-2 10.667 -3 20.334 -3 29.001s1 18.667 3 30l1 4c-52 -5.33301 -97.5 -8.66602 -136.5 -9.99902s-81.167 -2 -126.5 -2c-0.666992 20 -1.33398 45.167 -2.00098 75.5s-1 56.833 -1 79.5c0 30 0.666992 73.667 2 131
c33.333 1.33301 60.333 2 81 2c22.667 0 48 -0.833008 76 -2.5s54.333 -4.16699 79 -7.5c0 2.66699 -0.666992 7 -2 13c-1.33301 7.33301 -2 13.333 -2 18c0 8.66699 1 18.667 3 30l1 4c-43.333 -5.33301 -97 -8 -161 -8c-12.667 0 -25.334 0.333008 -38.001 1h-37z" />
    <glyph glyph-name="F" unicode="F" 
d="M188 334c33.333 1.33301 59.6699 1.99902 79.0029 1.99902c25.333 0 52.166 -0.833008 80.499 -2.5s55.833 -4.5 82.5 -8.5l-1 3c-2 10.667 -3 20.334 -3 29.001c0 9.33301 1 20 3 32c0.666992 0.666992 1 1.66699 1 3c-24.667 -3.33301 -55.5 -5.5 -92.5 -6.5
s-86.833 -1.5 -149.5 -1.5c-0.666992 35.333 -1 78.666 -1 129.999v67c0 12 0.666992 28.333 2 49c15.333 0.666992 36.666 1 63.999 1c37.333 0 73.166 -1.33301 107.499 -4s64.5 -6 90.5 -10v2c-2.66699 11.333 -4 22 -4 32c0 9.33301 1 20 3 32
c0.666992 0.666992 1 1.66699 1 3c-8 -0.666992 -17.333 -1.5 -28 -2.5s-23.667 -1.5 -39 -1.5c-30 -1.33301 -76.333 -2 -139 -2c-42.667 0 -74 0.333008 -94 1s-42.333 2.33398 -67 5.00098c1.33301 -26.667 2.5 -53.334 3.5 -80.001s1.83301 -58.5 2.5 -95.5
s1.16699 -70.333 1.5 -100s0.5 -55.167 0.5 -76.5c0 -63.333 -1 -122.666 -3 -177.999s-4.66699 -109 -8 -161l5 1c10 2 18.167 3.33301 24.5 4s14.833 1 25.5 1c12 0 22.5 -0.5 31.5 -1.5s17.5 -2.5 25.5 -4.5h2v3c-2.66699 32 -4.66699 61 -6 87s-2 63 -2 111z" />
    <glyph glyph-name="G" unicode="G" horiz-adv-x="778" 
d="M668 534c3.33301 14.667 7.33105 29.9971 11.998 45.9971s12 34.667 22 56c-35.333 18 -77.5 32.333 -126.5 43s-96.833 16 -143.5 16c-64 0 -120.5 -9.16699 -169.5 -27.5s-89.667 -43.833 -122 -76.5s-56.333 -70.334 -72 -113.001s-23.5 -88 -23.5 -136
c0 -53.333 9 -102 27 -146s43.667 -82 77 -114s72.833 -56.667 118.5 -74s96.167 -26 151.5 -26c50 0 94.667 4.5 134 13.5s87.333 23.167 144 42.5c-2 14.667 -3 39 -3 73c0 34.667 0.833008 66.334 2.5 95.001s4.16699 62.334 7.5 101.001l-3 -1l-24 -3.5
c-6.66699 -1 -15.334 -1.5 -26.001 -1.5c-12.667 0 -23.5 0.5 -32.5 1.5s-17.833 2.5 -26.5 4.5c2.66699 -21.333 4.33398 -40 5.00098 -56s1 -37 1 -63v-42c-0.666992 -34.667 -1 -61.667 -1 -81c-13.333 -8.66699 -28 -15.667 -44 -21s-31.167 -9.16602 -45.5 -11.499
s-26.5 -3.83301 -36.5 -4.5s-18.667 -1 -26 -1c-37.333 0 -73.166 6.83301 -107.499 20.5s-65 33.834 -92 60.501s-48.167 60 -63.5 100s-23 85.333 -23 136c0 50 7.33301 94.5 22 133.5s34.667 71.333 60 97s54.5 45 87.5 58s68.167 19.5 105.5 19.5
c34.667 0 64.834 -4 90.501 -12s47 -18.167 64 -30.5s30.5 -24.5 40.5 -36.5s19.333 -25 28 -39h11z" />
    <glyph glyph-name="H" unicode="H" horiz-adv-x="778" 
d="M198 335c40 1.33301 69.167 2.00391 87.5 2.00391h104.5h108c12.667 -0.666992 26.334 -1.16699 41.001 -1.5s29 -0.833008 43 -1.5v-150c0 -4.66699 -0.166992 -14.667 -0.5 -30s-0.833008 -32.333 -1.5 -51s-1.5 -39.667 -2.5 -63s-1.83301 -38.333 -2.5 -45
c25.333 4 44.333 6 57 6c10 0 25 -1.66699 45 -5c1.33301 0 3.66602 -0.333008 6.99902 -1l-3 66l-2 46c-0.666992 25.333 -1 58.666 -1 99.999c0 85.333 0.833008 167.166 2.5 245.499s4.5 156.5 8.5 234.5c-16 -4 -34.667 -6 -56 -6c-12.667 0 -23 0.5 -31 1.5
s-16.333 2.5 -25 4.5l1 -12c2 -48 3.33301 -83.833 4 -107.5s1 -48.834 1 -75.501v-37c-0.666992 -28.667 -1 -48.667 -1 -60l-89 -2c-28.667 -0.666992 -60.667 -1 -96 -1c-44.667 0 -111 1.33301 -199 4c0 64 0.833008 123.167 2.5 177.5s3.16699 92.166 4.5 113.499
c-8.66699 -2 -17 -3.5 -25 -4.5s-18.333 -1.5 -31 -1.5s-23 0.5 -31 1.5s-16.333 2.5 -25 4.5c0.666992 -9.33301 1 -17.666 1 -24.999c2 -54 3.33301 -92.667 4 -116s1.66699 -51 3 -83c0.666992 -34.667 1 -69 1 -103c0 -32 -0.166992 -60 -0.5 -84s-1 -49.667 -2 -77
s-2.5 -58 -4.5 -92s-4 -71.333 -6 -112c22.667 4 41.667 6 57 6c14.667 0 32.667 -2 54 -6c-1.33301 39.333 -2 68.666 -2 87.999v103v149z" />
    <glyph glyph-name="I" unicode="I" horiz-adv-x="333" 
d="M118 351c0 -48 -0.166016 -88.5 -0.499023 -121.5s-1 -62.167 -2 -87.5s-2.16699 -50.166 -3.5 -74.499l-4 -72.5h2c20 4 37 6 51 6c16 0 36.667 -2 62 -6l-1 20c-2 52 -3.5 99.167 -4.5 141.5s-1.5 100.166 -1.5 173.499c0 132 2.66699 251 8 357
c-9.33301 -2 -18 -3.5 -26 -4.5s-18.667 -1.5 -32 -1.5c-12.667 0 -22.834 0.5 -30.501 1.5s-15.834 2.5 -24.501 4.5c2 -54 3.33301 -91.5 4 -112.5s1.33398 -44.5 2.00098 -70.5c0.666992 -28.667 1 -79.667 1 -153z" />
    <glyph glyph-name="J" unicode="J" horiz-adv-x="333" 
d="M19 -149c30 2.66699 57.5 7.99902 82.5 15.999s48.833 23.667 71.5 47c13.333 14 23.833 28.167 31.5 42.5s13.334 30.166 17.001 47.499s6 36.166 7 56.499s1.5 46.833 1.5 79.5v68c-0.666992 38.667 -1 61.334 -1 68.001c0 78.667 0.833008 152.834 2.5 222.501
s4.5 132.5 8.5 188.5h-2c-22.667 -4 -41.667 -6 -57 -6c-16.667 0 -36.334 2 -59.001 6c5.33301 -105.333 8 -211.666 8 -318.999c0 -68.667 -0.333008 -131 -1 -187c-0.666992 -38.667 -1.66699 -73.834 -3 -105.501s-3 -55.834 -5 -72.501
c-2.66699 -24 -7.5 -43.833 -14.5 -59.5s-15.5 -27.667 -25.5 -36s-20.333 -14.166 -31 -17.499s-22.667 -5.66602 -36 -6.99902z" />
    <glyph glyph-name="K" unicode="K" horiz-adv-x="611" 
d="M95 332c0 -33.333 -0.166016 -60.832 -0.499023 -82.499s-0.833008 -43.167 -1.5 -64.5s-1.5 -41.333 -2.5 -60s-3.16699 -53.667 -6.5 -105l-1 -25h3c24 4 42.667 6 56 6c16 0 34.667 -2 56 -6c-2 24 -3.33301 44.333 -4 61l-2 51
c-0.666992 21.333 -1.33398 71.666 -2.00098 150.999v11v62l3 4l6 -7l55.5 -59.5l35.5 -40.5l45 -52l2 -3l82.5 -98c20.333 -25.333 38.5 -52 54.5 -80c10 2 21.833 3.5 35.5 4.5s25.5 1.5 35.5 1.5c8.66699 0 19.667 -0.666992 33 -2s23.333 -2.66602 30 -3.99902v23
c-8 8 -18.667 19.333 -32 34c-10 10.667 -16 17 -18 19l-67.5 76l-50 56l-139.5 158l-16 18c4.66699 4 13.334 12 26.001 24l60 58l86 82.5l60 56.5l54 50c17.333 16 29.666 26.333 36.999 31l-2 6c-18.667 -4 -33.667 -6 -45 -6c-16.667 0 -34 2 -52 6
c-4.66699 -7.33301 -9.33398 -14 -14.001 -20s-9.66699 -12 -15 -18l-22 -25c-9.33301 -10.667 -24 -26.334 -44 -47.001l-74 -77.5l-53.5 -52.5l-41 -37l-48.5 -40c-1.33301 -1.33301 -3.33301 -3 -6 -5c0 18 -0.333008 44.667 -1 80v47v35c0.666992 14.667 1 25.667 1 33
c0 4.66699 0.333008 14.667 1 30l3 62.5c0.666992 13.667 1.66699 25.167 3 34.5l-3 -1l-22.5 -3.5c-6.33301 -1 -14.833 -1.5 -25.5 -1.5c-11.333 0 -21.5 0.5 -30.5 1.5s-19.167 2.5 -30.5 4.5l1 -13c2 -40 3.33301 -66 4 -78s1.33398 -29.167 2.00098 -51.5
s1.16699 -51.5 1.5 -87.5s0.5 -77.667 0.5 -125z" />
    <glyph glyph-name="L" unicode="L" 
d="M201 52c0 166.667 0.333008 279.334 1 338.001c0.666992 40 1.66699 85.667 3 137s3 104.666 5 159.999c-24 -4 -45 -6 -63 -6c-10 0 -18.5 0.5 -25.5 1.5l-23.5 3.5c-2 0.666992 -3.66699 1 -5 1c0 -6 0.5 -20.833 1.5 -44.5s2 -51.5 3 -83.5s1.83301 -64.5 2.5 -97.5
s1 -66.833 1 -101.5c0 -77.333 -0.666992 -143 -2 -197s-3.66602 -110 -6.99902 -168c9.33301 0.666992 19.666 1.33398 30.999 2.00098c26 1.33301 47 2.33301 63 3s40.333 1 73 1c33.333 0 62.5 -0.333008 87.5 -1s49.5 -1.66699 73.5 -3
c24 -0.666992 42.333 -1.33398 55 -2.00098c-2.66699 10.667 -4 22 -4 34c0 10 1.33301 21 4 33c-21.333 -4 -49.666 -7 -84.999 -9s-67.333 -3 -96 -3c-16 0 -29.333 0.166992 -40 0.5s-28.334 0.833008 -53.001 1.5z" />
    <glyph glyph-name="M" unicode="M" horiz-adv-x="945" 
d="M769 -5l1.99707 0.00390625c10.667 2 20.167 3.5 28.5 4.5s18.833 1.5 31.5 1.5c7.33301 0 14.333 -0.333008 21 -1s15.334 -2 26.001 -4c5.33301 -0.666992 8.33301 -1 9 -1c-2.66699 8.66699 -4.66699 17.667 -6 27c-6 37.333 -12.667 83.166 -20 137.499
s-14.5 111.833 -21.5 172.5l-20 174.5l-20.5 184.5l-5 -1c-6.66699 -0.666992 -11.334 -1 -14.001 -1c-3.33301 0 -8 0.333008 -14 1c-1.33301 0.666992 -2.66602 1 -3.99902 1c-8 -18.667 -14.833 -33.667 -20.5 -45l-25.5 -50l-176 -329l-62 -115
c-15.333 24.667 -37.166 62.667 -65.499 114l-90.5 166.5l-84.5 161c-24.333 47.667 -40.5 80.167 -48.5 97.5c-9.33301 -1.33301 -16 -2 -20 -2c-4.66699 0 -10.334 0.666992 -17.001 2c-5.33301 -51.333 -13 -113.5 -23 -186.5s-20.5 -145.167 -31.5 -216.5l-30 -189.5
c-9 -55 -15.167 -89.5 -18.5 -103.5h3c18 4 33 6 45 6c9.33301 0 22 -2 38 -6c0 26 1 60.333 3 103s4.83301 87.167 8.5 133.5s8.16699 93.666 13.5 141.999s10.666 90.166 15.999 125.499c30 -51.333 62.5 -110 97.5 -176l118.5 -227c8 -15.333 15 -29.5 21 -42.5l26 -58.5
h3c4.66699 1.33301 8 2 10 2c2.66699 0 7.33398 -0.666992 14.001 -2c0.666992 2 1.66699 4.66699 3 8c6.66699 17.333 13.5 34.166 20.5 50.499s16.5 36.5 28.5 60.5c64.667 130 133.667 261.333 207 394c10.667 -100.667 18.834 -181.167 24.501 -241.5
s10.334 -114.333 14.001 -162s5.5 -84.167 5.5 -109.5z" />
    <glyph glyph-name="N" unicode="N" horiz-adv-x="778" 
d="M149 512l194.999 -202.998l51 -50c16 -14.667 36.167 -34.667 60.5 -60l77 -82l70.5 -78c20 -22.667 34.333 -39.334 43 -50.001c1.33301 0 3.33301 0.333008 6 1c4.66699 0.666992 8 1 10 1c3.33301 0 7.66602 -0.333008 12.999 -1c0.666992 0 2.66699 -0.333008 6 -1
c-2 31.333 -3.16699 69.333 -3.5 114s-0.5 96.334 -0.5 155.001c0 96 1 176 3 240s6.66699 128.333 14 193c-17.333 -4 -31.666 -6 -42.999 -6s-24.333 2 -39 6c3.33301 -38 5.83301 -72.833 7.5 -104.5s2.83398 -64.5 3.50098 -98.5c1.33301 -48 2 -143 2 -285v-37
l-66.5 68l-58.5 60.5l-153 160.5l-71 75l-64.5 69l-47.5 53l-33 39c-4 -0.666992 -6.33301 -1 -7 -1c-6 -0.666992 -10.667 -1 -14 -1c-2.66699 0 -7 0.666992 -13 2h-3v-120c0 -10.667 0.333008 -50.334 1 -119.001c1.33301 -72.667 2 -116.334 2 -131.001
c0 -24.667 -0.333008 -52.5 -1 -83.5s-1.83398 -64 -3.50098 -99s-3.16699 -64.833 -4.5 -89.5s-2.66602 -42.667 -3.99902 -54l5 1c12 3.33301 23.333 5 34 5c12 0 26 -2 42 -6c-0.666992 8 -1 16.667 -1 26c-2.66699 38.667 -4.66699 71.167 -6 97.5
s-2.5 54.833 -3.5 85.5s-2 64 -3 100s-1.83301 84.333 -2.5 145v63z" />
    <glyph glyph-name="O" unicode="O" horiz-adv-x="889" 
d="M450 696c-60 0 -114.001 -8.66797 -162.001 -26.001s-88.667 -42 -122 -74s-58.666 -70 -75.999 -114s-26 -92.667 -26 -146c0 -54.667 9.16699 -104 27.5 -148s44.5 -81.5 78.5 -112.5s74 -54.667 120 -71s96 -24.5 150 -24.5c58.667 0 111.834 9.16699 159.501 27.5
s88.5 44.166 122.5 77.499s59.833 72.5 77.5 117.5s26.5 93.5 26.5 145.5c0 54.667 -9.5 103.834 -28.5 147.501s-45.667 80.334 -80 110.001s-74.333 52.167 -120 67.5s-94.834 23 -147.501 23zM177.999 336.999c0 54 7.33301 101.335 22 142.002s34.667 73.667 60 99
s53.833 44.166 85.5 56.499s64.834 18.5 99.501 18.5c18.667 0 38.167 -2 58.5 -6s40.5 -10.5 60.5 -19.5s39.167 -21.167 57.5 -36.5s33.833 -34 46.5 -56c16 -26.667 27.333 -57.5 34 -92.5s10 -68.167 10 -99.5c0 -100.667 -24.833 -179.167 -74.5 -235.5
s-114.834 -84.5 -195.501 -84.5c-38 0 -73.333 7.16699 -106 21.5s-60.667 35.166 -84 62.499s-41.5 60.5 -54.5 99.5s-19.5 82.5 -19.5 130.5z" />
    <glyph glyph-name="P" unicode="P" horiz-adv-x="556" 
d="M533 510c0 34 -7.83203 64.002 -23.499 90.002s-38.834 46.333 -69.501 61c-21.333 10 -45.833 16.333 -73.5 19s-65.834 4 -114.501 4c-47.333 0 -82.5 0.166992 -105.5 0.5s-43.167 1.16602 -60.5 2.49902c2 -31.333 3.33301 -51.833 4 -61.5
s1.33398 -25.167 2.00098 -46.5s1.16699 -45.166 1.5 -71.499s0.5 -56.5 0.5 -90.5c0 -174.667 -2.66699 -315.334 -8 -422.001l3 1l23 3.5c6.66699 1 15.667 1.5 27 1.5c12 0 21.333 -0.333008 28 -1s14.667 -2 24 -4c2.66699 -0.666992 4.66699 -1 6 -1
c-1.33301 24.667 -2.33301 46 -3 64s-1.33398 39 -2.00098 63c-1.33301 46.667 -2 107 -2 181c21.333 -1.33301 37.333 -2 48 -2c37.333 0 73.833 3.16699 109.5 9.5s65.5 17.166 89.5 32.499c26.667 16.667 49.334 38.5 68.001 65.5s28 60.833 28 101.5zM424.001 500.002
c0 -32.667 -5.83301 -59.498 -17.5 -80.498s-27.167 -36.833 -46.5 -47.5s-40.5 -17.834 -63.5 -21.501s-48.167 -5.5 -75.5 -5.5h-16h-15v79c-0.666992 34 -1 59 -1 75c0 17.333 0.333008 42 1 74v65c16.667 2.66699 36 4 58 4c28 0 54.667 -3.5 80 -10.5
s46 -18.167 62 -33.5c12 -11.333 20.667 -25.333 26 -42s8 -35.334 8 -56.001z" />
    <glyph glyph-name="Q" unicode="Q" horiz-adv-x="889" 
d="M818 -150c-12 5.33301 -22.0039 10.167 -30.0039 14.5s-18.667 10.5 -32 18.5l-48 30l-84 54c-8 5.33301 -16.5 11.5 -25.5 18.5s-13.5 11.833 -13.5 14.5c0 0.666992 0.666992 1.66699 2 3c30.667 10.667 60.167 25.667 88.5 45s53.833 43.333 76.5 72
s40.667 62.167 54 100.5s20 80.833 20 127.5c0 52 -8.83301 99.333 -26.5 142s-43 79.5 -76 110.5s-73.167 54.667 -120.5 71s-99.666 24.5 -156.999 24.5c-58 0 -110.667 -8.5 -158 -25.5s-87.666 -41.333 -120.999 -73s-58.833 -69.667 -76.5 -114
s-26.5 -93.166 -26.5 -146.499c0 -51.333 8.5 -98.833 25.5 -142.5s41.5 -81.334 73.5 -113.001s70.833 -56.334 116.5 -74.001s96.5 -26.5 152.5 -26.5c9.33301 0 23.333 0.666992 42 2l33 -23.5l46 -30.5c0.666992 0 7.66699 -4.33301 21 -13
c62.667 -40 115.334 -78.667 158.001 -116c24.667 18.667 53.334 33.334 86.001 44.001v6zM177.996 337.001c0 54 7.33301 101.335 22 142.002s34.667 73.667 60 99s53.833 44.166 85.5 56.499s64.834 18.5 99.501 18.5c18.667 0 38.167 -2 58.5 -6s40.5 -10.5 60.5 -19.5
s39.167 -21.167 57.5 -36.5s33.833 -34 46.5 -56c16 -26.667 27.333 -57.5 34 -92.5s10 -68.167 10 -99.5c0 -100.667 -24.833 -179.167 -74.5 -235.5s-114.834 -84.5 -195.501 -84.5c-38 0 -73.333 7.16699 -106 21.5s-60.667 35.166 -84 62.499s-41.5 60.5 -54.5 99.5
s-19.5 82.5 -19.5 130.5z" />
    <glyph glyph-name="R" unicode="R" horiz-adv-x="611" 
d="M596 7c-0.666992 1.33301 -5.5 7.66406 -14.5 18.9971l-37.5 48l-57 72l-60.5 78l-57 75c-14.333 19.333 -24.833 34 -31.5 44c22.667 4 44 8.83301 64 14.5s40.167 14.834 60.5 27.501s37.333 30.334 51 53.001s20.5 50.667 20.5 84c0 25.333 -4 48 -12 68
s-21 37.333 -39 52s-40 25.334 -66 32.001s-67 10 -123 10h-55c-28 -0.666992 -48.333 -1 -61 -1c-32.667 0 -61.667 1.33301 -87 4l1 -25c3.33301 -129.333 5 -224 5 -284c0 -74 -0.5 -141.333 -1.5 -202s-2.83301 -121 -5.5 -181l5 1c8.66699 2 16.167 3.33301 22.5 4
s14.833 1 25.5 1c22 0 41.333 -2 58 -6c-2.66699 60 -4.5 114.667 -5.5 164s-1.5 106.333 -1.5 171h26c42.667 -50.667 83 -101.5 121 -152.5s79.333 -111.833 124 -182.5c4.66699 0.666992 9.33398 1 14.001 1c27.333 3.33301 46.666 5 57.999 5
c12.667 0 29 -1.66699 49 -5l10 -1v12zM430 510.998c0 -32 -6.83105 -58.1689 -20.498 -78.502s-30.5 -35.166 -50.5 -44.499s-39 -15.5 -57 -18.5s-36.333 -4.83301 -55 -5.5h-14c-4 -0.666992 -7.33301 -1 -10 -1c-8.66699 0 -18.334 0.666992 -29.001 2v45
c-0.666992 38.667 -1 69.334 -1 92.001c0 60.667 0.666992 106 2 136c22 3.33301 43 5 63 5c21.333 0 41.666 -1.5 60.999 -4.5s37.5 -9.16699 54.5 -18.5s30.667 -23 41 -41s15.5 -40.667 15.5 -68z" />
    <glyph glyph-name="S" unicode="S" horiz-adv-x="556" 
d="M438 560c1.33301 15.333 5.00293 31.3291 11.0029 47.9961s12 30.334 18 41.001c-16 10.667 -39.667 21 -71 31s-64.333 15 -99 15c-62.667 0 -115.334 -17 -158.001 -51s-64 -81.667 -64 -143c0 -24 4.16699 -47.333 12.5 -70s20.833 -40.667 37.5 -54
c6.66699 -6 13.167 -11.167 19.5 -15.5s14.166 -8.83301 23.499 -13.5s19.333 -9.33398 30 -14.001s35 -14.667 73 -30l11 -5c40.667 -16.667 71.5 -34.667 92.5 -54s31.5 -47.333 31.5 -84c0 -36 -12.5 -67.167 -37.5 -93.5s-61.833 -39.5 -110.5 -39.5
c-38 0 -71.5 9.5 -100.5 28.5s-51.167 44.167 -66.5 75.5h-13v-1c-0.666992 -11.333 -2.33398 -24.333 -5.00098 -39s-7 -32.667 -13 -54c25.333 -18.667 53.333 -32.5 84 -41.5s63.334 -13.5 98.001 -13.5c42.667 0 80 6.5 112 19.5s58.333 30.333 79 52
s35.834 45.667 45.501 72s14.5 52.833 14.5 79.5c0 23.333 -4.16699 46.333 -12.5 69s-22.833 42.334 -43.5 59.001c-8.66699 7.33301 -16.834 13.5 -24.501 18.5s-16.834 10 -27.501 15s-22.834 10.167 -36.501 15.5l-67.5 27l-7 2c-17.333 6.66699 -32 13 -44 19
s-23.667 13.667 -35 23s-20.5 21 -27.5 35s-10.5 30.333 -10.5 49c0 10.667 1.83301 22.334 5.5 35.001s10.167 25.167 19.5 37.5s22.5 22.5 39.5 30.5s38.167 12 63.5 12c21.333 0 40.333 -2.83301 57 -8.5s30.334 -13.167 41.001 -22.5s19.167 -19.166 25.5 -29.499
s11.5 -21.166 15.5 -32.499h14z" />
    <glyph glyph-name="T" unicode="T" horiz-adv-x="556" 
d="M231 386c0 -70.667 -0.832031 -140.168 -2.49902 -208.501s-4.5 -129.166 -8.5 -182.499c8 2 16.167 3.5 24.5 4.5s17.5 1.5 27.5 1.5c15.333 0 36.666 -2 63.999 -6c-5.33301 70 -8 156.667 -8 260c0 22 0.333008 52.667 1 92v77c0 46 0.666992 115 2 207
c54 -0.666992 98.167 -2.16699 132.5 -4.5s61.166 -5.5 80.499 -9.5c0 1.33301 -0.333008 2.66602 -1 3.99902c-2 11.333 -3 21.666 -3 30.999c0 11.333 1.33301 23 4 35c-27.333 -2.66699 -62.166 -4.33398 -104.499 -5.00098s-96.833 -1 -163.5 -1
c-60.667 0 -107.667 0.333008 -141 1c-26 0 -50.167 0.5 -72.5 1.5s-40.833 2.16699 -55.5 3.5v-2c2.66699 -12 4 -23 4 -33c0 -9.33301 -1 -19.666 -3 -30.999c-0.666992 -1.33301 -1 -2.66602 -1 -3.99902c40.667 8.66699 114.667 13.334 222 14.001
c0.666992 -39.333 1.16699 -78.5 1.5 -117.5s0.5 -81.5 0.5 -127.5z" />
    <glyph glyph-name="U" unicode="U" horiz-adv-x="778" 
d="M98 273c0 -48 2.66797 -85.998 8.00098 -113.998s16.666 -53.667 33.999 -77c14.667 -20 31.834 -36.5 51.501 -49.5s40.5 -23.333 62.5 -31s43.833 -13 65.5 -16s43.167 -4.5 64.5 -4.5c53.333 0 97.5 7 132.5 21s64.167 33.333 87.5 58
c16 16.667 28.833 35.5 38.5 56.5s17 43.5 22 67.5s8.16699 47.667 9.5 71s2 49.666 2 78.999c0 78 1.33301 145.333 4 202s7 107 13 151l-3 -1c-6.66699 -1.33301 -12.834 -2.5 -18.501 -3.5s-13.167 -1.5 -22.5 -1.5c-10 0 -18 0.5 -24 1.5l-20 3.5l-3 1
c2 -14.667 4 -36.667 6 -66s3.5 -59.5 4.5 -90.5s1.83301 -60.333 2.5 -88s1 -46.167 1 -55.5c0 -8.66699 -0.166992 -21 -0.5 -37s-1 -33.667 -2 -53s-2.66699 -39.5 -5 -60.5s-5.5 -39.5 -9.5 -55.5c-7.33301 -32 -20 -58.167 -38 -78.5s-37.5 -35.333 -58.5 -45
s-40 -15.834 -57 -18.501s-31.5 -4 -43.5 -4c-32 0 -62.667 6 -92 18s-52 27.667 -68 47c-18.667 22.667 -30.667 51.667 -36 87s-8 88 -8 158c0 42 0.333008 85.333 1 130c0.666992 35.333 1.66699 72.5 3 111.5s3 72.5 5 100.5c-22.667 -4 -42 -6 -58 -6
c-11.333 0 -30 2 -56 6h-3c2 -34 3.5 -62 4.5 -84s1.83301 -45 2.5 -69c0.666992 -36 1 -123 1 -261z" />
    <glyph glyph-name="V" unicode="V" horiz-adv-x="667" 
d="M360 108c-18.667 40.667 -38.8359 87.668 -60.5029 141.001l-63.5 162.5c-20.667 55 -39.167 106.833 -55.5 155.5s-29.166 88.667 -38.499 120c-9.33301 -2.66699 -19.833 -4.33398 -31.5 -5.00098s-24.167 -1 -37.5 -1c-10 0 -20.833 0.5 -32.5 1.5
s-20.5 2.5 -26.5 4.5c18 -34 41 -84.167 69 -150.5l87.5 -216l78.5 -205c22 -59 36.333 -99.167 43 -120.5c6.66699 2.66699 13.334 4.33398 20.001 5.00098s13 1 19 1c10 0 18.167 -0.5 24.5 -1.5s11.5 -2.5 15.5 -4.5c25.333 70 53.833 144.167 85.5 222.5l90.5 217.5
l74.5 169c21 46 34.5 73.667 40.5 83c-5.33301 -2 -12.666 -3.5 -21.999 -4.5s-18.333 -1.5 -27 -1.5c-15.333 0 -29 2 -41 6l-3 -10l-14.5 -52.5c-4.33301 -15 -10.5 -34.833 -18.5 -59.5c-15.333 -46.667 -29.833 -88.834 -43.5 -126.501l-40.5 -107.5l-41.5 -103z" />
    <glyph glyph-name="W" unicode="W" horiz-adv-x="1000" 
d="M737 118l-75.4971 220.998l-40.5 120.5l-31 95.5c-8 26 -14.833 49.5 -20.5 70.5l-16.5 61.5l-5 -1c-10.667 -3.33301 -21.667 -5 -33 -5c-8 0 -14.5 0.333008 -19.5 1s-11.167 2 -18.5 4l-4 1c-4 -19.333 -10.5 -44.666 -19.5 -75.999l-30 -101l-33 -104
c-11 -33.333 -20.167 -60 -27.5 -80l-73 -208l-41.5 129.5l-46.5 149.5l-45 154.5c-14 50.333 -25.333 95.5 -34 135.5c-6.66699 -1.33301 -16.834 -2.66602 -30.501 -3.99902s-26.834 -2 -39.501 -2c-20 0 -37.333 2 -52 6c18.667 -46.667 38.667 -100.667 60 -162
s42.166 -124.833 62.499 -190.5l55.5 -186c16.667 -58.333 30.667 -109.5 42 -153.5c7.33301 2.66699 14.666 4.33398 21.999 5.00098s14 1 20 1s12.833 -0.5 20.5 -1.5s15.5 -2.5 23.5 -4.5c4 16.667 7.33301 29.167 10 37.5l8 25.5c6 20 16.833 53.333 32.5 100l49.5 144
l50.5 144.5l34.5 97.5l6 -16l38 -108l49.5 -145l50 -154c15.667 -50 27.834 -92 36.501 -126c6.66699 2.66699 13.667 4.33398 21 5.00098s14 1 20 1c6.66699 0 14 -0.5 22 -1.5s14 -2.5 18 -4.5c8 29.333 15.667 55.666 23 78.999s18.333 55.666 33 96.999l103 289l88 227
c-5.33301 -2 -11.333 -3.5 -18 -4.5s-16 -1.5 -28 -1.5c-18 0 -32.333 2 -43 6c-7.33301 -36.667 -15 -71 -23 -103s-15.833 -60.833 -23.5 -86.5l-23.5 -76l-32 -95.5z" />
    <glyph glyph-name="X" unicode="X" horiz-adv-x="611" 
d="M352 372l56.0039 83.001l64.5 91l62 83c19.667 25.333 35.167 44.666 46.5 57.999c-6.66699 -2 -13 -3.5 -19 -4.5s-14.333 -1.5 -25 -1.5c-13.333 0 -23.666 0.5 -30.999 1.5s-14.333 2.5 -21 4.5c-7.33301 -17.333 -18 -38.833 -32 -64.5s-29.167 -51.5 -45.5 -77.5
l-47.5 -73l-36 -53c-5.33301 5.33301 -13.5 17.166 -24.5 35.499l-41 70.5l-47.5 86l-41 76c-8.66699 -2 -19.834 -3.5 -33.501 -4.5s-25.5 -1.5 -35.5 -1.5c-28.667 0 -50 2 -64 6l49.5 -75l65.5 -102l66 -104l46 -74c-6.66699 -11.333 -20.334 -32.166 -41.001 -62.499
l-67.5 -96l-74 -101l-58.5 -77.5c11.333 4 26.666 6 45.999 6c8 0 16.667 -0.666992 26 -2s17 -2.66602 23 -3.99902c26.667 50.667 55.667 102.167 87 154.5s60.666 98.5 87.999 138.5l39 -65.5l49 -85l44.5 -81c14.333 -27 24.5 -47.5 30.5 -61.5
c15.333 4 35.666 6 60.999 6c13.333 0 26 -0.333008 38 -1s23.667 -2.33398 35 -5.00098l-31.5 46.5l-24.5 37.5c-2 3.33301 -3.66699 6 -5 8l-129 208z" />
    <glyph glyph-name="Y" unicode="Y" horiz-adv-x="611" 
d="M363 227c0 26.667 0.334961 44.9932 1.00195 54.9932c0 0.666992 0.666992 2.33398 2 5.00098c6 14.667 11.667 26.667 17 36c10 18.667 25.333 45.334 46 80.001l70 114.5l67.5 106.5l41.5 63c-8.66699 -2 -16.167 -3.5 -22.5 -4.5s-13.833 -1.5 -22.5 -1.5
c-19.333 0 -35 2 -47 6c-38 -92 -84.333 -185.333 -139 -280c0 -0.666992 -1.33301 -3 -4 -7c-8 -14 -15.5 -26.5 -22.5 -37.5s-11.5 -16.5 -13.5 -16.5c-3.33301 0 -9.5 7.16699 -18.5 21.5s-19.833 32.5 -32.5 54.5c-29.333 50.667 -54.333 95.834 -75 135.501
s-40.334 82.834 -59.001 129.501c-20 -4 -43.333 -6 -70 -6c-9.33301 0 -19.666 0.333008 -30.999 1s-22.333 2.33398 -33 5.00098l43 -70.5l43.5 -72.5l67.5 -112.5l94 -157.5v-75c0.666992 -17.333 1 -33 1 -47c0 -32 -0.5 -59.667 -1.5 -83s-2.83301 -48 -5.5 -74
c7.33301 2.66699 15.166 4.33398 23.499 5.00098s20.5 1 36.5 1c20 0 36.667 -2 50 -6c-1.33301 20 -2.33301 40.333 -3 61s-1.33398 44.334 -2.00098 71.001c-1.33301 42 -2 75.333 -2 100z" />
    <glyph glyph-name="Z" unicode="Z" horiz-adv-x="611" 
d="M5 -5c60.667 4 137.336 6.00293 230.003 6.00293c35.333 0 98.333 -0.666992 189 -2c38 -0.666992 73.667 -1.33398 107 -2.00098s52.333 -1.33398 57 -2.00098c-2.66699 10 -4 22.667 -4 38c0 12.667 1.33301 23.667 4 33c-74 -6.66699 -143.333 -10.834 -208 -12.501
s-136.334 -2.5 -215.001 -2.5c-4 0 -6 1 -6 3s10.833 19.333 32.5 52l90.5 133l141.5 201.5l166.5 231.5v15c-18 -2 -49.333 -3.5 -94 -4.5s-100.334 -1.5 -167.001 -1.5c-79.333 0 -133.333 0.333008 -162 1c-20.667 0 -41 0.5 -61 1.5s-40.667 2.16699 -62 3.5
c2.66699 -8 4 -19.333 4 -34c0 -12 -1.33301 -24.667 -4 -38c40.667 6.66699 93.167 11 157.5 13s143.166 3 236.499 3l-93.5 -139.5l-103 -150.5l-99 -142l-78.5 -110c-1.33301 -2 -4.33301 -6 -9 -12l-20 -26.5l-20 -26.5c-4.66699 -6 -8 -10 -10 -12v-17z" />
    <glyph glyph-name="bracketleft" unicode="[" horiz-adv-x="333" 
d="M106 28c0 -30.667 -0.333008 -55.998 -1 -75.998s-1.66699 -41.667 -3 -65v-6c17.333 2 30.5 3.33301 39.5 4s20.833 1 35.5 1c16 0 35.333 -0.5 58 -1.5s40 -2.16699 52 -3.5c-2 6.66699 -3 14 -3 22c0 7.33301 1 14.666 3 21.999c-28.667 -4 -63.667 -6 -105 -6
c-2 71.333 -3.16699 117.166 -3.5 137.499s-0.5 42.5 -0.5 66.5c-0.666992 36.667 -1 109 -1 217c0 72 0.333008 121.333 1 148c0 16.667 0.333008 39 1 67s1.66699 59.333 3 94c22 0 39.667 -0.333008 53 -1s30.666 -2.66699 51.999 -6v2c-2.66699 8 -4 15 -4 21
c0 6.66699 1.33301 14 4 22c-31.333 -3.33301 -68.666 -5 -111.999 -5c-13.333 0 -25.5 0.333008 -36.5 1s-22.5 2 -34.5 4l2 -100v-559z" />
    <glyph glyph-name="backslash" unicode="\" horiz-adv-x="278" 
d="M225 -19c10 2 21.001 3 33.001 3c10.667 0 20 -1 28 -3l-231 692c-8.66699 -2 -19.334 -3 -32.001 -3c-12 0 -22 1 -30 3z" />
    <glyph glyph-name="bracketright" unicode="]" horiz-adv-x="333" 
d="M227 540c0 30.667 0.332031 55.998 0.999023 75.998s1.66699 41.667 3 65v6c-16.667 -2 -29.5 -3.33301 -38.5 -4s-21.167 -1 -36.5 -1c-16 0 -35.333 0.5 -58 1.5s-40 2.16699 -52 3.5c2 -6.66699 3 -14 3 -22c0 -7.33301 -1 -14.666 -3 -21.999
c28.667 4 63.667 6 105 6c2 -71.333 3.16699 -117.166 3.5 -137.499s0.5 -42.5 0.5 -66.5c0.666992 -36.667 1 -109 1 -217c0 -72 -0.333008 -121.333 -1 -148c0 -16.667 -0.333008 -39 -1 -67s-1.66699 -59.333 -3 -94c-22 0 -39.667 0.333008 -53 1
s-30.666 2.66699 -51.999 6l1 -2c2 -8 3 -15 3 -21c0 -6.66699 -1.33301 -14 -4 -22c32 3.33301 69.333 5 112 5c13.333 0 25.5 -0.333008 36.5 -1s22.5 -2 34.5 -4l-2 100v559z" />
    <glyph glyph-name="asciicircum" unicode="^" horiz-adv-x="593" 
d="M96 241h69l130 339l133 -339h69l-169 418h-63z" />
    <glyph glyph-name="underscore" unicode="_" 
d="M0 -125h500v50h-500v-50z" />
    <glyph glyph-name="grave" unicode="`" horiz-adv-x="278" 
d="M212 549l-134.999 132.999c-16.667 16.667 -27.5 26.834 -32.5 30.501s-11.167 5.5 -18.5 5.5c-9.33301 0 -17.333 -3.5 -24 -10.5s-10 -15.167 -10 -24.5c0 -5.33301 1.16699 -10.5 3.5 -15.5s7.16602 -9.83301 14.499 -14.5l167 -104h35z" />
    <glyph glyph-name="a" unicode="a" 
d="M103 361l-0.00585938 0.994141c3.33301 7.33301 7.33301 14.833 12 22.5s11.167 15.5 19.5 23.5s19.333 14.5 33 19.5s30.167 7.5 49.5 7.5c33.333 0 60.333 -9.83301 81 -29.5s31 -46.167 31 -79.5c0 -14 -2.66699 -24.667 -8 -32s-15 -12.666 -29 -15.999l-87 -19
c-27.333 -6 -49.666 -11.667 -66.999 -17s-33.666 -13 -48.999 -23s-27.5 -23.333 -36.5 -40s-13.5 -37.667 -13.5 -63c0 -14.667 2.5 -29.667 7.5 -45s13 -29.666 24 -42.999s25.333 -24.166 43 -32.499s38.834 -12.5 63.501 -12.5c34.667 0 63.334 6.33301 86.001 19
s44.334 29.667 65.001 51c5.33301 -21.333 15 -37.5 29 -48.5s29.667 -16.5 47 -16.5c12 0 23.333 1.83301 34 5.5s23.334 9.16699 38.001 16.5l-1 28c-8 -3.33301 -16.333 -5 -25 -5c-17.333 0 -27.833 7.33301 -31.5 22s-5.5 46.334 -5.5 95.001
c0 10.667 0.666992 39.334 2 86.001c0.666992 22.667 1.16699 42.5 1.5 59.5s0.5 28.5 0.5 34.5c0 28 -3.5 50.5 -10.5 67.5s-17.167 31.833 -30.5 44.5c-18 16.667 -38.833 28.334 -62.5 35.001s-47.5 10 -71.5 10c-36 0 -66.5 -5.66699 -91.5 -17s-48.5 -26 -70.5 -44
l-4 -65h27zM326.994 134.994c0 -26.667 -11 -49.165 -33 -67.498s-46.333 -27.5 -73 -27.5c-21.333 0 -40.833 6.66699 -58.5 20s-26.5 34.666 -26.5 63.999c0 15.333 2.16699 28.666 6.5 39.999s13 22 26 32s32.333 19.167 58 27.5s59.167 15.5 100.5 21.5v-110z" />
    <glyph glyph-name="b" unicode="b" horiz-adv-x="611" 
d="M109 -5c6 8.66699 14.0029 18.6641 24.0029 29.9971s19.667 20.333 29 27c22 -22 44.833 -39.5 68.5 -52.5s54.5 -19.5 92.5 -19.5c36.667 0 70 6.5 100 19.5s55.5 31.5 76.5 55.5s37 52 48 84s16.5 66.667 16.5 104c0 76.667 -21.833 136.334 -65.5 179.001
s-96.5 64 -158.5 64c-23.333 0 -44.333 -3.16699 -63 -9.5s-34.334 -14.166 -47.001 -23.499s-23.167 -18.833 -31.5 -28.5s-15.5 -19.167 -21.5 -28.5c0 13.333 0.333008 26.666 1 39.999c0.666992 60.667 1.16699 99.834 1.5 117.501s0.666016 34 0.999023 49
s1.16602 35.333 2.49902 61s2.33301 48.834 3 69.501c-16.667 -4 -34 -6 -52 -6c-12 0 -30 2 -54 6l1 -21c2 -25.333 3.16699 -44 3.5 -56s0.5 -25.667 0.5 -41c1.33301 -38 2 -80.833 2 -128.5v-168.5c0 -63.333 -0.5 -122.5 -1.5 -177.5s-2.83301 -103.5 -5.5 -145.5h29z
M316.003 23.9971c-49.333 0 -85.999 18.166 -109.999 54.499s-36 84.5 -36 144.5c0 42.667 3.83301 76.334 11.5 101.001s18.5 45.334 32.5 62.001c12.667 16 28.167 28.167 46.5 36.5s37.833 12.5 58.5 12.5c16 0 32.167 -3.16699 48.5 -9.5s31.833 -16.833 46.5 -31.5
s26.5 -35 35.5 -61s13.5 -57.333 13.5 -94c0 -28.667 -2.83301 -55.834 -8.5 -81.501s-14.334 -48.5 -26.001 -68.5s-27 -35.833 -46 -47.5s-41.167 -17.5 -66.5 -17.5z" />
    <glyph glyph-name="c" unicode="c" 
d="M461 82c-16.667 -18 -37.6719 -31.498 -63.0049 -40.498s-49.666 -13.5 -72.999 -13.5c-17.333 0 -35.666 2.83301 -54.999 8.5s-38.166 16.167 -56.499 31.5s-33.5 37.333 -45.5 66s-18 64.667 -18 108c0 63.333 14.5 113.166 43.5 149.499s70.833 54.5 125.5 54.5
c10.667 0 21.5 -1 32.5 -3s22 -5.83301 33 -11.5s21.5 -14 31.5 -25s18.333 -25.5 25 -43.5h12v2c5.33301 31.333 12.666 59 21.999 83c-46 26.667 -101 40 -165 40c-82 0 -146.5 -23 -193.5 -69s-70.5 -107.667 -70.5 -185c0 -32.667 5 -64 15 -94s25.833 -57 47.5 -81
s49.334 -42.833 83.001 -56.5s73.5 -20.5 119.5 -20.5c30.667 0 58.834 3.66699 84.501 11s46.834 16.666 63.501 27.999v1c0.666992 9.33301 1.66699 18.333 3 27s4 18.667 8 30z" />
    <glyph glyph-name="d" unicode="d" horiz-adv-x="611" 
d="M44 232c0 -42 6.50195 -79.168 19.502 -111.501s30.333 -58.666 52 -78.999s45.5 -35.5 71.5 -45.5s52.333 -15 79 -15c36 0 69.333 8.33301 100 25s54 40 70 70c0 -29.333 -1 -56.333 -3 -81h2c17.333 4 33 6 47 6c12.667 0 27 -1.66699 43 -5l4 -1
c-0.666992 48 -1.33398 100.667 -2.00098 158s-1 110.333 -1 159c0 147.333 3.33301 287.666 10 420.999h-2c-20 -4 -37.667 -6 -53 -6c-10 0 -18.167 0.5 -24.5 1.5l-22.5 3.5l-3 1c2 -33.333 3.33301 -68.166 4 -104.499s1 -77.833 1 -124.5
c0 -0.666992 -0.333008 -19 -1 -55v-53c-9.33301 24 -28.166 45.5 -56.499 64.5s-63.833 28.5 -106.5 28.5c-32.667 0 -62.834 -6 -90.501 -18s-51.834 -29.167 -72.501 -51.5s-36.667 -49.5 -48 -81.5s-17 -67.333 -17 -106zM284.002 30.999
c-16.667 0 -33.167 3.83301 -49.5 11.5s-31 19.667 -44 36s-23.5 37.833 -31.5 64.5s-12 58 -12 94c0 16.667 1 34.667 3 54s7.5 40.5 16.5 63.5s23.5 42.667 43.5 59s46.667 24.5 80 24.5c25.333 0 48.833 -6 70.5 -18s40.167 -32.333 55.5 -61
c8.66699 -16.667 14.5 -34.5 17.5 -53.5s4.5 -40.167 4.5 -63.5c0 -43.333 -3.83301 -76.5 -11.5 -99.5s-17.5 -42.833 -29.5 -59.5c-12 -16 -27.333 -28.667 -46 -38s-41 -14 -67 -14z" />
    <glyph glyph-name="e" unicode="e" horiz-adv-x="556" 
d="M508 238c0 27.333 -2.16797 54.167 -6.50098 80.5s-13.666 52.5 -27.999 78.5s-36.666 47.333 -66.999 64s-69.5 25 -117.5 25c-39.333 0 -74.333 -6.5 -105 -19.5s-56 -31.167 -76 -54.5s-34.833 -50.333 -44.5 -81s-14.5 -63.667 -14.5 -99
c0 -77.333 21.833 -138.333 65.5 -183s103.5 -67 179.5 -67c78.667 0 140.667 21.667 186 65v8c1.33301 18.667 3.66602 36 6.99902 52l-12 3c-5.33301 -8 -12 -16.167 -20 -24.5s-18.333 -16.833 -31 -25.5s-28.167 -16 -46.5 -22s-38.833 -9 -61.5 -9
c-10 0 -20.333 0.666992 -31 2s-22.334 4.5 -35.001 9.5s-25.5 13 -38.5 24s-24.833 25.167 -35.5 42.5c-11.333 20 -18.666 41 -21.999 63s-5 44.667 -5 68h359zM149.999 280.001c4.66699 52 18.3311 92.665 40.998 121.998s55 44 97 44c28 0 50.333 -6.5 67 -19.5
s28.834 -28.667 36.501 -47s12.334 -35.666 14.001 -51.999s2.5 -32.166 2.5 -47.499h-258z" />
    <glyph glyph-name="f" unicode="f" horiz-adv-x="333" 
d="M333 732c-8 2 -17.0049 3.00195 -27.0049 3.00195c-23.333 0 -46.5 -6.66699 -69.5 -20s-43.667 -32.333 -62 -57s-33 -53.5 -44 -86.5s-17.167 -68.5 -18.5 -106.5c-19.333 0 -47.666 0.666992 -84.999 2c0 -1.33301 0.333008 -3 1 -5c0.666992 -8 1 -14 1 -18
s-0.333008 -9.66699 -1 -17c-0.666992 -1.33301 -1 -2.66602 -1 -3.99902c37.333 1.33301 65.333 2 84 2c2 -64 3 -119 3 -165c0 -40.667 -0.666992 -85.334 -2 -134.001c-1.33301 -26.667 -2.66602 -51.5 -3.99902 -74.5s-2.66602 -41.833 -3.99902 -56.5l14 2
c16 2.66699 29.333 4 40 4s24.334 -1.33301 41.001 -4c6 -1.33301 10 -2 12 -2c-1.33301 16 -2.5 35.667 -3.5 59s-1.83301 51.333 -2.5 84c-0.666992 35.333 -1 76.666 -1 123.999l-1 163c23.333 0 58.333 -0.666992 105 -2c-1.33301 8 -2 14.333 -2 19
c0 3.33301 0.333008 9 1 17c0 1.33301 0.333008 4 1 8h-3c-44 -1.33301 -78.667 -2 -104 -2c-2.66699 9.33301 -5.5 24.666 -8.5 45.999s-4.5 40.333 -4.5 57c0 9.33301 0.5 18.5 1.5 27.5s3.83301 18.167 8.5 27.5s12.334 17.333 23.001 24s24.667 10 42 10
c15.333 0 34.333 -4 57 -12l7 4z" />
    <glyph glyph-name="g" unicode="g" horiz-adv-x="556" 
d="M65 325c0 -32 7.83105 -60.166 23.498 -84.499s40.167 -42.833 73.5 -55.5c-6 -1.33301 -13.333 -4.16602 -22 -8.49902s-17.5 -10.333 -26.5 -18s-16.667 -17.667 -23 -30s-9.5 -26.166 -9.5 -41.499c0 -18 5.16699 -34.333 15.5 -49s29.833 -26 58.5 -34
c-0.666992 0 -1.33398 -0.333008 -2.00098 -1c-10 -3.33301 -20.5 -7.83301 -31.5 -13.5s-22.333 -13.5 -34 -23.5s-21.667 -22.833 -30 -38.5s-12.5 -33.834 -12.5 -54.501c0 -18 3.66699 -35.667 11 -53s19.333 -33.166 36 -47.499s38.834 -26 66.501 -35
s60.5 -13.5 98.5 -13.5c49.333 0 91.5 7.33301 126.5 22s62.333 33.167 82 55.5s33.834 45.666 42.501 69.999s13 46.833 13 67.5c0 39.333 -13.333 70.666 -40 93.999c-12.667 12 -28.834 21.333 -48.501 28s-48.834 10.334 -87.501 11.001h-34
c-17.333 -0.666992 -29.666 -1 -36.999 -1c-26.667 0 -48 1.5 -64 4.5s-27.667 6.83301 -35 11.5s-12.166 10 -14.499 16s-3.5 13 -3.5 21c0 13.333 3.83301 24.666 11.5 33.999s18.5 14 32.5 14l14 -1c13.333 -0.666992 25.333 -1.33398 36 -2.00098s17.334 -1 20.001 -1
c59.333 0 107.666 14.5 144.999 43.5s56 69.167 56 120.5c0 39.333 -14 71.333 -42 96h52c14 0 27.333 -0.666992 40 -2c0 2 -0.333008 5 -1 9c-1.33301 7.33301 -2 13 -2 17c0 3.33301 0.666992 9 2 17c0.666992 3.33301 1 6 1 8c-22.667 -2 -39 -3.16699 -49 -3.5
s-24 -0.5 -42 -0.5c-20 0 -35.833 0.5 -47.5 1.5s-30.5 3.83301 -56.5 8.5c-19.333 3.33301 -41.666 5 -66.999 5c-56 0 -102.5 -14.333 -139.5 -43s-55.5 -68.667 -55.5 -120zM263.998 202.001c-30.667 0 -55.665 10.001 -74.998 30.001s-29 50 -29 90
c0 12.667 1.16699 26.167 3.5 40.5s7.16602 28.5 14.499 42.5s18.5 25.667 33.5 35s34.167 14 57.5 14c29.333 0 54.666 -9.83301 75.999 -29.5s32 -49.834 32 -90.501c0 -15.333 -1.83301 -30.5 -5.5 -45.5s-9.66699 -29.167 -18 -42.5s-20 -24 -35 -32
s-33.167 -12 -54.5 -12zM278 -234.998c-47.333 0 -85.498 10.666 -114.498 31.999s-43.5 50.333 -43.5 87c0 26.667 6.33301 48 19 64s28 27.667 46 35s34.5 11.833 49.5 13.5s28.833 2.5 41.5 2.5c18 0 36.167 -1.5 54.5 -4.5s35.666 -8.33301 51.999 -16
s29.666 -18.667 39.999 -33s15.5 -32.5 15.5 -54.5c0 -35.333 -14.167 -65.166 -42.5 -89.499s-67.5 -36.5 -117.5 -36.5z" />
    <glyph glyph-name="h" unicode="h" horiz-adv-x="611" 
d="M182 485c0.666992 26.667 1.33203 60.0029 1.99902 100.003v36c0 14 0.5 31.833 1.5 53.5s2.16699 41.167 3.5 58.5c-2 0 -6 -0.666992 -12 -2c-17.333 -2.66699 -31.333 -4 -42 -4c-12 0 -25.667 1.33301 -41 4c-4 0.666992 -7.66699 1.33398 -11 2.00098
c0 -9.33301 0.333008 -18.333 1 -27c1.33301 -46 2.33301 -79 3 -99c0.666992 -36.667 1 -82 1 -136v-217c0 -36.667 -0.666992 -77.834 -2 -123.501s-3 -90.834 -5 -135.501c8 2 15.833 3.5 23.5 4.5s17.167 1.5 28.5 1.5c21.333 0 39.333 -2 54 -6v4
c-2.66699 46.667 -4.33398 76.667 -5.00098 90c-1.33301 38 -2 89.333 -2 154c0 41.333 2.83301 71.333 8.5 90s14.167 34.667 25.5 48s25.5 24 42.5 32s36.833 12 59.5 12c26.667 0 47.834 -5.16699 63.501 -15.5s27.334 -24.5 35.001 -42.5s12.5 -37.5 14.5 -58.5
s3 -47.167 3 -78.5c0 -27.333 -0.333008 -55.333 -1 -84c-0.666992 -22.667 -1.66699 -48 -3 -76s-3 -53 -5 -75c8 2 15.833 3.5 23.5 4.5s17.5 1.5 29.5 1.5s21.667 -0.5 29 -1.5s14.666 -2.5 21.999 -4.5c-0.666992 3.33301 -1 8 -1 14s-0.333008 18.333 -1 37
c-0.666992 22.667 -1 40.334 -1 53.001c0 11.333 0.333008 33.666 1 66.999s1.33398 63 2.00098 89c0.666992 37.333 1 56.333 1 57c0 19.333 -1.66699 38.166 -5 56.499s-10.5 36.666 -21.5 54.999s-28.5 33.333 -52.5 45s-55 17.5 -93 17.5
c-44 0 -80.5 -9.33301 -109.5 -28s-51.167 -42 -66.5 -70z" />
    <glyph glyph-name="i" unicode="i" horiz-adv-x="278" 
d="M96 249c0 -36 -0.669922 -76.9971 -2.00293 -122.997s-3 -89.667 -5 -131c8.66699 2 16.334 3.5 23.001 4.5s16.334 1.5 29.001 1.5c12 0 21.333 -0.5 28 -1.5s13.667 -2.5 21 -4.5l-3 67c-2 61.333 -3.16699 98 -3.5 110s-0.5 26.667 -0.5 44
c0 67.333 0.666992 122.666 2 165.999c0 14.667 0.333008 27.167 1 37.5s1.66699 27.166 3 50.499v9c-14.667 -4 -32 -6 -52 -6c-10.667 0 -19.667 0.5 -27 1.5s-14.666 2.5 -21.999 4.5c2.66699 -32.667 4.66699 -66.334 6 -101.001s2 -77.667 2 -129zM195.997 643.003
c0 15.333 -5.33301 28.333 -16 39s-23.667 16 -39 16c-14.667 0 -27.334 -5.33301 -38.001 -16s-16 -23.667 -16 -39c0 -14.667 5.33301 -27.334 16 -38.001s23.334 -16 38.001 -16c15.333 0 28.333 5.33301 39 16s16 23.334 16 38.001z" />
    <glyph glyph-name="j" unicode="j" horiz-adv-x="278" 
d="M197 643c0 15.333 -5.33301 28.333 -16 39s-23.667 16 -39 16c-14.667 0 -27.334 -5.33301 -38.001 -16s-16 -23.667 -16 -39c0 -14.667 5.33301 -27.334 16 -38.001s23.334 -16 38.001 -16c15.333 0 28.333 5.33301 39 16s16 23.334 16 38.001zM21 -264
c29.333 4 54.333 12.333 75 25s36.667 27 48 43s19.5 30.833 24.5 44.5s8.83301 26.5 11.5 38.5v0c2.66699 12 4.5 22 5.5 30s1.83301 20.333 2.5 37c0.666992 23.333 1 92.666 1 207.999c0 78 0.333008 134.333 1 169c0.666992 20.667 1.66699 46 3 76s2.33301 54 3 72
c-21.333 -4 -39.333 -6 -54 -6c-16 0 -34 2 -54 6c2.66699 -46 5 -95.333 7 -148s3 -99 3 -139c0 -58 -0.166992 -115.5 -0.5 -172.5s-0.833008 -93.167 -1.5 -108.5c-2.66699 -29.333 -6.66699 -53.166 -12 -71.499s-11.5 -32.333 -18.5 -42s-14 -16.5 -21 -20.5
s-15.833 -7.66699 -26.5 -11z" />
    <glyph glyph-name="k" unicode="k" horiz-adv-x="556" 
d="M526 4l-88 93.002l-156 183l228 199c-17.333 -4 -35.666 -6 -54.999 -6c-20.667 0 -37 2 -49 6c-10.667 -14.667 -23.834 -30.834 -39.501 -48.501s-31.834 -34.834 -48.501 -51.501l-47.5 -46l-49.5 -46l-3 -3l-17 -14c-3.33301 -2.66699 -5.66602 -4 -6.99902 -4
c-5.33301 0 -8 2.66699 -8 8v28c-0.666992 13.333 -1 24.333 -1 33c0 22.667 0.666992 53 2 91c0.666992 42 1 71 1 87c0 59.333 3 132.666 9 219.999h-2c-18 -4 -34.667 -6 -50 -6s-33 2 -53 6c2 -51.333 3.16699 -106.333 3.5 -165s0.5 -129.667 0.5 -213
c0 -160 -1.33301 -280 -4 -360c14 4 30.667 6 50 6c15.333 0 33 -2 53 -6c-0.666992 4 -1.16699 9.5 -1.5 16.5s-1.16602 18.5 -2.49902 34.5s-2.33301 30.833 -3 44.5s-1 25.834 -1 36.501l-1 88c0 11.333 2.33301 17 7 17c3.33301 0 7.16602 -1.5 11.499 -4.5
s8.83301 -6.83301 13.5 -11.5l14 -16l94 -109c22.667 -27.333 47 -59.333 73 -96c22.667 4 43.667 6 63 6c20 0 41.333 -2 64 -6v9z" />
    <glyph glyph-name="l" unicode="l" horiz-adv-x="278" 
d="M93 380c0 -132.667 -0.333008 -216.332 -1 -250.999c0 -22.667 -0.5 -44 -1.5 -64l-3.5 -70v0c10.667 2.66699 19.167 4.5 25.5 5.5s14.833 1.5 25.5 1.5c12 0 21.667 -0.5 29 -1.5s15.666 -2.83301 24.999 -5.5c-2 43.333 -3.33301 77.166 -4 101.499l-2 73.5
c-1.33301 54 -2 116.667 -2 188c0 79.333 0.666992 145 2 197c0 24.667 0.5 53.167 1.5 85.5s2.16699 62.5 3.5 90.5v2h-3c-22 -4 -38.667 -6 -50 -6c-12 0 -28.667 2 -50 6h-2c2 -32 3.33301 -55.5 4 -70.5s1 -33.5 1 -55.5c0.666992 -26.667 1.33398 -98 2.00098 -214v-13
z" />
    <glyph glyph-name="m" unicode="m" horiz-adv-x="889" 
d="M294 427c18 0 35.1709 -3.50195 51.5039 -10.502s28.833 -19.833 37.5 -38.5c3.33301 -8 6.16602 -19 8.49902 -33s4.16602 -29.5 5.49902 -46.5s2.16602 -33.667 2.49902 -50s0.5 -29.5 0.5 -39.5c0 -36 -0.666992 -73 -2 -111s-3.33301 -72.333 -6 -103
c7.33301 2 14.333 3.5 21 4.5s16.334 1.5 29.001 1.5c13.333 0 23.5 -0.5 30.5 -1.5s14.833 -2.5 23.5 -4.5c-2.66699 47.333 -4.66699 92 -6 134s-2 80.333 -2 115c0 22 1.16699 42.667 3.5 62s7.33301 38.333 15 57s19.834 34 36.501 46s38.667 18 66 18
c16 0 31.333 -3 46 -9s26.667 -17 36 -33c4.66699 -7.33301 8.16699 -14.5 10.5 -21.5s4.16602 -16.167 5.49902 -27.5s2.33301 -27.166 3 -47.499s1 -46.833 1 -79.5c0 -41.333 -0.5 -76.333 -1.5 -105s-3.5 -65 -7.5 -109c17.333 4 34.333 6 51 6
c14.667 0 32.334 -2 53.001 -6c-4 76 -6 133.333 -6 172c0 14.667 0.333008 53.334 1 116.001c0.666992 31.333 1 48.666 1 51.999c0 18 -2 35.333 -6 52s-12 32.334 -24 47.001c-16 20 -36.167 33.667 -60.5 41s-47.166 11 -68.499 11c-32 0 -63 -7.33301 -93 -22
s-54 -37.334 -72 -68.001c-12.667 30.667 -31.834 53.334 -57.501 68.001s-56.167 22 -91.5 22c-28.667 0 -56.334 -6.66699 -83.001 -20s-50.334 -36.666 -71.001 -69.999c0 17.333 0.666992 33.666 2 48.999s2.66602 28 3.99902 38
c-1.33301 0 -5.66602 -0.666992 -12.999 -2c-16 -2.66699 -28.667 -4 -38 -4s-21 1.33301 -35 4c-6 0.666992 -10.667 1.33398 -14 2.00098l2 -51c0 -4.66699 0.5 -22.5 1.5 -53.5s1.83301 -54.167 2.5 -69.5c0.666992 -23.333 1 -50.666 1 -81.999
c0 -26.667 -0.333008 -50.667 -1 -72c0 -8.66699 -0.333008 -23.334 -1 -44.001s-1.33398 -39.334 -2.00098 -56.001l-2 -60c21.333 4 38.666 6 51.999 6c14.667 0 32 -2 52 -6c-3.33301 33.333 -5.66602 66.333 -6.99902 99s-2 65.667 -2 99c0 56 1.5 96.333 4.5 121
s10.5 46 22.5 64c11.333 17.333 24.5 29.833 39.5 37.5s31.833 11.5 50.5 11.5z" />
    <glyph glyph-name="n" unicode="n" horiz-adv-x="611" 
d="M91 270c0 -68 -0.838867 -120.836 -2.50586 -158.503s-4.16699 -76.5 -7.5 -116.5c20 4 37.667 6 53 6c16.667 0 34.334 -2 53.001 -6l-1 12c-2 24.667 -3.66699 48.834 -5 72.501s-2 50.834 -2 81.501c0 18.667 0.166992 36.334 0.5 53.001s1 34.334 2 53.001
s2.83301 36.167 5.5 52.5s6 28.5 10 36.5c24.667 46 64.334 69 119.001 69c26.667 0 47.834 -5.16699 63.501 -15.5s27.334 -24.5 35.001 -42.5s12.5 -37.5 14.5 -58.5s3 -47.167 3 -78.5c0 -27.333 -0.333008 -55.333 -1 -84c-0.666992 -22.667 -1.66699 -48 -3 -76
s-3 -53 -5 -75c8 2 15.833 3.5 23.5 4.5s17.5 1.5 29.5 1.5s21.667 -0.5 29 -1.5s14.666 -2.5 21.999 -4.5c-0.666992 3.33301 -1 8 -1 14s-0.333008 18.333 -1 37c-0.666992 22.667 -1 40.334 -1 53.001c0 11.333 0.333008 33.666 1 66.999s1.33398 63 2.00098 89
c0.666992 37.333 1 56.333 1 57c0 19.333 -1.66699 38.166 -5 56.499s-10.5 36.666 -21.5 54.999s-28.5 33.333 -52.5 45s-55 17.5 -93 17.5c-43.333 0 -79.666 -9.5 -108.999 -28.5s-51.666 -42.167 -66.999 -69.5c0.666992 13.333 1.16699 21.333 1.5 24
s0.833008 11.334 1.5 26.001c1.33301 28 2 43 2 45c-4 -0.666992 -6.33301 -1 -7 -1c-16.667 -3.33301 -30.667 -5 -42 -5c-10.667 0 -24.334 1.33301 -41.001 4l-9 2c0.666992 -12.667 1.33398 -29 2.00098 -49c2 -76 3 -130.667 3 -164z" />
    <glyph glyph-name="o" unicode="o" horiz-adv-x="611" 
d="M302 487c-76 0 -137.332 -22.834 -183.999 -68.501s-70 -107.167 -70 -184.5c0 -48.667 7.83301 -89.667 23.5 -123s36 -59.5 61 -78.5s52.167 -32.333 81.5 -40s58.666 -11.5 87.999 -11.5c38 0 73 6 105 18s59.667 29.333 83 52s41.5 50 54.5 82s19.5 67.667 19.5 107
c0 32 -4.83301 62.5 -14.5 91.5s-25.167 55.333 -46.5 79s-48.833 42.334 -82.5 56.001s-73.167 20.5 -118.5 20.5zM308.001 446.999c30.667 0 56.334 -6.8291 77.001 -20.4961s36.5 -31.334 47.5 -53.001s18.667 -44.334 23 -68.001s6.5 -46.834 6.5 -69.501
c0 -66 -14.5 -118.333 -43.5 -157s-67.5 -58 -115.5 -58c-46.667 0 -83.834 18.833 -111.501 56.5s-41.5 90.834 -41.5 159.501c0 16 1.16699 34.167 3.5 54.5s8.5 42.666 18.5 66.999s26 45.166 48 62.499s51.333 26 88 26z" />
    <glyph glyph-name="p" unicode="p" horiz-adv-x="611" 
d="M564 237c0 42.667 -6.50098 79.999 -19.501 111.999s-30.5 58.333 -52.5 79s-46 35.834 -72 45.501s-52 14.5 -78 14.5c-25.333 0 -48 -3.5 -68 -10.5s-36.667 -15.667 -50 -26s-23.666 -20.166 -30.999 -29.499s-14.333 -19.333 -21 -30
c0 13.333 0.166992 25.666 0.5 36.999s1.5 29.333 3.5 54c-18.667 -4 -35 -6 -49 -6s-30.333 2 -49 6c3.33301 -161.333 5 -281 5 -359c0 -141.333 -3.66699 -271.666 -11 -390.999c8.66699 2 16.834 3.5 24.501 4.5s17.5 1.5 29.5 1.5c11.333 0 20.833 -0.5 28.5 -1.5
s15.5 -2.5 23.5 -4.5c-1.33301 18 -2.16602 35.167 -2.49902 51.5s-0.833008 39.166 -1.5 68.499c-0.666992 38.667 -1 112 -1 220c9.33301 -24 28.166 -45.5 56.499 -64.5s63.833 -28.5 106.5 -28.5c32.667 0 63 6 91 18s52.167 29.167 72.5 51.5s36.166 49.5 47.499 81.5
s17 67.333 17 106zM323.999 437.999c17.333 0 34 -3.83203 50 -11.499s30.667 -19.667 44 -36s23.833 -37.833 31.5 -64.5s11.5 -58 11.5 -94c0 -16.667 -1 -34.5 -3 -53.5s-7.5 -40.167 -16.5 -63.5s-23.667 -43.166 -44 -59.499s-46.833 -24.5 -79.5 -24.5
c-43.333 0 -78.666 16.333 -105.999 49c-12.667 15.333 -22.667 33.666 -30 54.999s-11 51.666 -11 90.999c0 44.667 3.66699 78.5 11 101.5s17.333 42.5 30 58.5s28.167 28.667 46.5 38s40.166 14 65.499 14z" />
    <glyph glyph-name="q" unicode="q" horiz-adv-x="611" 
d="M46 237c0 -38.667 5.66797 -73.8281 17.001 -105.495s27.166 -58.834 47.499 -81.501s44.666 -40 72.999 -52s58.833 -18 91.5 -18c44 0 80 9.66699 108 29s46.333 40.666 55 63.999c0 -106.667 -0.333008 -177 -1 -211c0 -24.667 -0.333008 -47.667 -1 -69
s-1.66699 -41.333 -3 -60c15.333 4 32.666 6 51.999 6c21.333 0 39.333 -2 54 -6c-2.66699 40 -4.66699 73.667 -6 101s-2.33301 55.666 -3 84.999c-1.33301 45.333 -2 120 -2 224c0 103.333 0.333008 180.333 1 231c0.666992 21.333 1.33398 40.5 2.00098 57.5
s1.33398 32.5 2.00098 46.5v5c-18.667 -4 -35 -6 -49 -6c-18.667 0 -35 2 -49 6c0 -4 0.333008 -8.66699 1 -14c2 -30 3 -55.667 3 -77l-1 1c-8 14 -16 25.833 -24 35.5s-19.667 19.167 -35 28.5c-33.333 20.667 -70 31 -110 31c-26.667 0 -53 -5 -79 -15
s-50 -25.333 -72 -46s-39.5 -46.834 -52.5 -78.501s-19.5 -68.834 -19.5 -111.501zM149.001 238.006c0 61.333 12.666 110.002 37.999 146.002s59.666 54 102.999 54c24 0 47.5 -5.83301 70.5 -17.5s41.833 -32.167 56.5 -61.5c8 -16 13.833 -35.333 17.5 -58
s5.5 -44.334 5.5 -65.001c0 -44 -3.83301 -79.333 -11.5 -106s-24.5 -50 -50.5 -70c-11.333 -8.66699 -23.666 -15.667 -36.999 -21s-29.666 -8 -48.999 -8c-33.333 0 -60 8.16699 -80 24.5s-34.5 36.166 -43.5 59.499s-14.5 45 -16.5 65s-3 39.333 -3 58z" />
    <glyph glyph-name="r" unicode="r" horiz-adv-x="389" 
d="M363 393c-1.33301 10.667 -1.99707 19.9961 -1.99707 27.9961c0 20.667 3 42.334 9 65.001h-9c-4 0.666992 -7 1 -9 1c-24.667 0 -46.334 -4 -65.001 -12s-34.5 -18.167 -47.5 -30.5s-23.333 -24.666 -31 -36.999s-14.167 -24.833 -19.5 -37.5c0 16 0.5 32.833 1.5 50.5
s3.16699 38.5 6.5 62.5c-16 -4 -33 -6 -51 -6c-18.667 0 -35.667 2 -51 6c0.666992 -6.66699 1 -11.667 1 -15c2.66699 -40 4.5 -75 5.5 -105s1.5 -67.667 1.5 -113c0 -39.333 -0.166992 -71.166 -0.5 -95.499s-1 -45.166 -2 -62.499s-2 -32.333 -3 -45
s-2.83301 -28.667 -5.5 -48v-4c8 2 15.5 3.5 22.5 4.5s16.167 1.5 27.5 1.5c12.667 0 22.834 -0.5 30.501 -1.5s15.5 -2.5 23.5 -4.5v9c-0.666992 14.667 -1.16699 27.334 -1.5 38.001s-1.5 31 -3.5 61c-0.666992 14 -1 35.667 -1 65c0 30 0.166992 54.833 0.5 74.5
s1 35.667 2 48s2.66699 22.333 5 30s5.16602 15.5 8.49902 23.5c7.33301 13.333 19.166 26.166 35.499 38.499s37.166 18.5 62.499 18.5c12 0 21.667 -1 29 -3s15 -5.33301 23 -10z" />
    <glyph glyph-name="s" unicode="s" horiz-adv-x="444" 
d="M346 370c1.33301 16 3.66992 30.5039 7.00293 43.5039s7.66602 26.5 12.999 40.5v0c-18 9.33301 -37 17.166 -57 23.499s-45 9.5 -75 9.5c-32.667 0 -60.334 -4.83301 -83.001 -14.5s-40.5 -22 -53.5 -37s-22.333 -31 -28 -48s-8.5 -33.5 -8.5 -49.5
c0 -20.667 3.66699 -38.667 11 -54s16.833 -28.166 28.5 -38.499s23.5 -18.5 35.5 -24.5s25 -11.333 39 -16c31.333 -10 54.833 -18 70.5 -24s28.667 -12.333 39 -19s17.833 -14.667 22.5 -24s7 -21 7 -35c0 -26.667 -9.66699 -47 -29 -61s-43.333 -21 -72 -21
c-27.333 0 -51.666 6.33301 -72.999 19c-15.333 9.33301 -26.666 19.166 -33.999 29.499s-13.666 21.833 -18.999 34.5l-1 2l-12 -3c-2 -11.333 -5 -25 -9 -41s-8.66699 -29 -14 -39c12 -8.66699 31 -17.834 57 -27.501s56.333 -14.5 91 -14.5
c33.333 0 62.333 4.66699 87 14s44.667 21.666 60 36.999s26.666 32.5 33.999 51.5s11 38.5 11 58.5c0 24 -4 44 -12 60s-19.167 28.833 -33.5 38.5s-29.666 17.334 -45.999 23.001s-39.5 12.5 -69.5 20.5c-10 2.66699 -20.333 6 -31 10s-20.834 9.5 -30.501 16.5
s-17.5 15.667 -23.5 26s-9 22.166 -9 35.499c0 22 8.16699 40 24.5 54s39.166 21 68.499 21c11.333 0 22.666 -1.16699 33.999 -3.5s21.666 -6.83301 30.999 -13.5c12.667 -8.66699 21.5 -17.834 26.5 -27.501s9.16699 -20.167 12.5 -31.5v-1h13z" />
    <glyph glyph-name="t" unicode="t" horiz-adv-x="333" 
d="M104 268c-1.33301 -50 -2 -81.001 -2 -93.001v-35c0 -28.667 1.16699 -49.5 3.5 -62.5s5.83301 -23.5 10.5 -31.5c10 -17.333 23.833 -31.666 41.5 -42.999s39.5 -17 65.5 -17c13.333 0 28.166 1.66699 44.499 5s29.833 8 40.5 14c0 2 -0.333008 5 -1 9v6v5
c0.666992 3.33301 1 6 1 8l-6 -1c-23.333 -3.33301 -36.666 -5 -39.999 -5c-27.333 0 -45.833 10 -55.5 30s-14.5 51.667 -14.5 95c0 106.667 1.66699 198 5 274c15.333 0 32 -0.333008 50 -1s33.667 -1.33398 47 -2.00098h11v2c-1.33301 8 -2 15.333 -2 22
c0 6 0.666992 13.333 2 22v3c-38 -3.33301 -74 -5 -108 -5c0 8 0.333008 13.333 1 16c0.666992 33.333 1.16699 54.5 1.5 63.5s0.833008 19.5 1.5 31.5s1.66699 27.333 3 46l-22.5 -12.5c-7.66699 -4.33301 -16.667 -8.83301 -27 -13.5s-20 -8.83398 -29 -12.501
s-16.833 -6.16699 -23.5 -7.5c1.33301 -26.667 2 -46.5 2 -59.5v-51.5c-14.667 0 -30.667 0.666992 -48 2l-32 3v-2c1.33301 -9.33301 2 -17 2 -23c0 -7.33301 -0.666992 -15.666 -2 -24.999c9.33301 0.666992 16 1.33398 20 2.00098c16.667 0.666992 27.5 1.16699 32.5 1.5
s14.167 0.5 27.5 0.5v-158z" />
    <glyph glyph-name="u" unicode="u" horiz-adv-x="611" 
d="M290 48c-25.333 0 -45.502 5.83594 -60.502 17.5029s-25.667 27.5 -32 47.5s-10.333 41.833 -12 65.5s-2.5 54.834 -2.5 93.501c0 29.333 0.833008 63 2.5 101s3.83398 74.667 6.50098 110c-14.667 -4 -31.334 -6 -50.001 -6s-35.667 2 -51 6
c1.33301 -10 2.33301 -25.667 3 -47s1 -42.333 1 -63c0 -8.66699 -0.333008 -25.334 -1 -50.001s-1.33398 -45.334 -2.00098 -62.001c-0.666992 -30 -1.16699 -53.667 -1.5 -71s-0.5 -27.333 -0.5 -30c0 -17.333 1.83301 -35.5 5.5 -54.5s11.5 -37.667 23.5 -56
s29.667 -33.5 53 -45.5s53.333 -18 90 -18c12 0 24.667 1.33301 38 4s27.333 7.66699 42 15s29.334 18 44.001 32s28 31.667 40 53c0 -5.33301 -0.333008 -11 -1 -17l-1.5 -47c-0.333008 -10.667 -1.16602 -21 -2.49902 -31c10 2 18.167 3.5 24.5 4.5s13.833 1.5 22.5 1.5
c10.667 0 24.334 -1.66699 41.001 -5c2.66699 0 5.33398 -0.333008 8.00098 -1c-0.666992 11.333 -1.5 23.5 -2.5 36.5s-1.5 27.833 -1.5 44.5c-1.33301 33.333 -2 84.333 -2 153c0 45.333 1 88.166 3 128.499s4.33301 82.166 7 125.499h-2c-17.333 -4 -33 -6 -47 -6
c-16 0 -34 2 -54 6c0.666992 -12 1.5 -29.167 2.5 -51.5s1.83301 -47.5 2.5 -75.5c0.666992 -49.333 1 -93.333 1 -132c0 -20.667 -1 -39.5 -3 -56.5s-7 -33.5 -15 -49.5c-9.33301 -18.667 -23.833 -35 -43.5 -49s-43.834 -21 -72.501 -21z" />
    <glyph glyph-name="v" unicode="v" 
d="M254 132c-7.33301 16.667 -16.3311 38.832 -26.998 66.499l-36 95l-36.5 100.5l-30.5 89c-16 -4 -36.667 -6 -62 -6c-18.667 0 -37.667 2 -57 6c44.667 -94 83.167 -179.667 115.5 -257s60.833 -154.333 85.5 -231c5.33301 2 10.666 3.5 15.999 4.5
s12.666 1.5 21.999 1.5c15.333 0 27.666 -2 36.999 -6c11.333 36.667 25.666 77 42.999 121s35.5 87.333 54.5 130l57 123.5l55.5 113.5l-9 -2c-13.333 -2.66699 -25.666 -4 -36.999 -4c-9.33301 0 -22.666 2 -39.999 6c-6.66699 -23.333 -16.5 -54.333 -29.5 -93
l-37 -107.5l-34 -93.5c-11 -29.333 -18.833 -48.666 -23.5 -57.999l-11 -23c-1.33301 -1.33301 -2.33301 -2 -3 -2s-1.66699 0.666992 -3 2z" />
    <glyph glyph-name="w" unicode="w" horiz-adv-x="778" 
d="M378 348c2.66699 0 9.33008 -15.001 19.9971 -45.001l1 -3l35.5 -98.5l22.5 -65.5l23 -69c7.33301 -22.667 14.666 -46.667 21.999 -72c13.333 4 25.333 6 36 6c6 0 12 -0.666992 18 -2s11.333 -2.66602 16 -3.99902l49 128l56 141l54 130c17.333 40 31.333 69.667 42 89
c-11.333 -3.33301 -25.666 -5 -42.999 -5c-14 0 -26 1.66699 -36 5c-14 -50 -28.333 -97.833 -43 -143.5s-28.167 -85.334 -40.5 -119.001s-22.5 -59.5 -30.5 -77.5s-13 -27 -15 -27c-2.66699 0 -7.16699 8 -13.5 24s-15.166 41 -26.499 75c-4 11.333 -11 32.666 -21 63.999
l-37.5 116.5c-8.33301 27 -15.833 56.167 -22.5 87.5c-3.33301 -0.666992 -5.33301 -1 -6 -1c-12.667 -3.33301 -24.334 -5 -35.001 -5c-8 0 -14.667 0.5 -20 1.5s-12.666 2.5 -21.999 4.5c-12 -48 -24.833 -94.167 -38.5 -138.5s-26.667 -83.5 -39 -117.5
s-22.833 -61 -31.5 -81s-14.334 -30 -17.001 -30c-1.33301 0 -3.83301 4.33301 -7.5 13s-8 20.167 -13 34.5l-15 44l-10.5 31.5c-2 6 -3.33301 9.66699 -4 11c-39.333 118.667 -62.666 196.334 -69.999 233.001c-19.333 -4 -38.666 -6 -57.999 -6c-24 0 -43.333 2 -58 6
c14 -33.333 30.667 -75.166 50 -125.499l56.5 -149.5l48 -134c13.667 -40 21.834 -66.333 24.501 -79c9.33301 4 21 6 35 6c13.333 0 26 -2 38 -6l41 122l50 144l14 40c4.66699 14 9 25.333 13 34s7 13 9 13z" />
    <glyph glyph-name="x" unicode="x" 
d="M287 262l36.502 45.499l24.5 31l28.5 34.5l38.5 45l11 13l26.5 29.5c6.33301 7 11.5 12.5 15.5 16.5l5 6c-6.66699 -1.33301 -14.167 -2.66602 -22.5 -3.99902s-16.833 -2 -25.5 -2c-9.33301 0 -17 0.5 -23 1.5s-11.667 2.5 -17 4.5c-16 -26.667 -34 -55 -54 -85l-62 -91
c-3.33301 -4.66699 -5.66602 -7.66699 -6.99902 -9c-23.333 29.333 -43.833 58 -61.5 86s-34.834 57 -51.501 87l-7 12c-10.667 -2 -20.334 -3.5 -29.001 -4.5s-19 -1.5 -31 -1.5c-20.667 0 -44.334 2 -71.001 6l48.5 -62l54.5 -71l51 -67c15.333 -20 29 -38.667 41 -56
c-9.33301 -14.667 -21.833 -32 -37.5 -52l-50.5 -62l-52.5 -60.5l-51.5 -57.5c7.33301 2 14.166 3.5 20.499 4.5s13.833 1.5 22.5 1.5c14.667 0 29.334 -2 44.001 -6c6 10 13.833 22.333 23.5 37l33.5 50.5l37.5 56l34.5 49.5c53.333 -74.667 95.333 -139 126 -193h3
c12.667 2 23.5 3.5 32.5 4.5s17.833 1.5 26.5 1.5c19.333 0 39.666 -2 60.999 -6l-40 57l-53.5 75.5l-55.5 77.5c-17.333 24 -31.666 43 -42.999 57z" />
    <glyph glyph-name="y" unicode="y" 
d="M218 -18c-26 -53.333 -67.6631 -133.331 -124.996 -239.998l-2 -4c18 4 33 6 45 6c14 0 25.667 -2 35 -6c19.333 64.667 42.833 130.167 70.5 196.5s64.5 149.833 110.5 250.5l3 6c8 16 19.333 40 34 72l34 74.5c20 43.667 33.833 73.167 41.5 88.5l17.5 34.5
c4 7.66699 8.33301 15.167 13 22.5c-10.667 -4 -24 -6 -40 -6c-14.667 0 -29.334 2 -44.001 6c-11.333 -38.667 -24.5 -79.334 -39.5 -122.001s-29.833 -82.667 -44.5 -120s-27.334 -67.333 -38.001 -90s-17.334 -34 -20.001 -34s-5.83398 3.16699 -9.50098 9.5
s-7.5 14.5 -11.5 24.5l-37.5 95l-37 97.5l-31 84c-9.66699 26.333 -16.167 44.833 -19.5 55.5c-8.66699 -2.66699 -16.5 -4.33398 -23.5 -5.00098s-17.167 -1 -30.5 -1c-14.667 0 -26.5 0.5 -35.5 1.5s-18.167 2.5 -27.5 4.5l19.5 -40.5c5 -10.333 9.5 -20.166 13.5 -29.499
l13.5 -31.5c5 -11.667 11.167 -26.834 18.5 -45.501l23 -54.5l31 -72.5l53 -128z" />
    <glyph glyph-name="z" unicode="z" 
d="M20 -5c43.333 4 116.331 6 218.998 6c46 0 91.833 -0.666992 137.5 -2s76.167 -2.66602 91.5 -3.99902c-2.66699 17.333 -4 29.666 -4 36.999c0 6 1.33301 14.333 4 25v2c-48 -5.33301 -96 -8.83301 -144 -10.5s-103 -2.5 -165 -2.5c8 17.333 18.667 35.166 32 53.499
l39 52.5v0l115 149l65 82.5c14.667 18.333 25.834 31.666 33.501 39.999l30.5 32.5v18c-62.667 -4 -141 -6 -235 -6c-26.667 0 -49.5 0.5 -68.5 1.5s-38.167 2.5 -57.5 4.5l-7 1c-22 2 -39 4 -51 6c2.66699 -13.333 4 -25 4 -35c0 -7.33301 -1 -16.666 -3 -27.999l-1 -6
c14.667 3.33301 32.5 6 53.5 8s41.667 3.5 62 4.5s39 1.66699 56 2s28.5 0.5 34.5 0.5c12.667 0 24.334 -0.166992 35.001 -0.5s22 -1.16602 34 -2.49902l-34 -47l-33.5 -45l-33.5 -45l-28 -38l-12 -16l-169 -212v-26z" />
    <glyph glyph-name="braceleft" unicode="{" horiz-adv-x="407" 
d="M38 263c32 -2.66699 57.332 -8.16309 75.999 -16.4961s32.167 -18.5 40.5 -30.5s13.5 -24.333 15.5 -37s3 -28.334 3 -47.001v-53c0 -30.667 1.83301 -56.5 5.5 -77.5s11.834 -40.333 24.501 -58s32.334 -32.167 59.001 -43.5s62.667 -18.333 108 -21v40
c-30 2 -53.833 7.66699 -71.5 17s-30.5 20.666 -38.5 33.999s-12.833 27 -14.5 41s-2.5 31 -2.5 51v49c0 25.333 -1 46.166 -3 62.499s-7 32.333 -15 48s-20.833 29 -38.5 40s-41.834 18.167 -72.501 21.5c30.667 3.33301 55 10.666 73 21.999s31 25.166 39 41.499
s12.833 32.5 14.5 48.5s2.5 36 2.5 60v42c0 22.667 1 41.334 3 56.001s6.83301 28.834 14.5 42.501s20.334 25.167 38.001 34.5s41.5 15 71.5 17v40c-46.667 -2.66699 -83.834 -10.167 -111.501 -22.5s-47.5 -28 -59.5 -47s-19.333 -38.667 -22 -59s-4 -46.5 -4 -78.5v-46
c0 -26.667 -1.83301 -46.834 -5.5 -60.501s-11.5 -25.5 -23.5 -35.5c-9.33301 -8 -23.333 -15.5 -42 -22.5s-40 -11.167 -64 -12.5v-40z" />
    <glyph glyph-name="bar" unicode="|" horiz-adv-x="222" 
d="M79 -250h65v1000h-65v-1000z" />
    <glyph glyph-name="braceright" unicode="}" horiz-adv-x="407" 
d="M370 303c-32 2.66699 -57.333 8.32812 -76 16.9951s-32.167 18.834 -40.5 30.501s-13.5 23.834 -15.5 36.501s-3 28.334 -3 47.001v53c0 30.667 -1.83301 56.5 -5.5 77.5s-11.667 40.333 -24 58s-32 32.167 -59 43.5s-63.167 18.333 -108.5 21v-40
c30 -2 53.833 -7.66699 71.5 -17s30.5 -20.666 38.5 -33.999s12.833 -27 14.5 -41s2.5 -31 2.5 -51v-49c0 -25.333 0.833008 -46.166 2.5 -62.499s6.5 -32.333 14.5 -48s21 -29 39 -40s42.333 -18.167 73 -21.5c-30.667 -3.33301 -55 -10.666 -73 -21.999s-31 -25 -39 -41
s-12.833 -32.167 -14.5 -48.5s-2.5 -36.5 -2.5 -60.5v-42c0 -22.667 -1 -41.334 -3 -56.001s-6.83301 -28.834 -14.5 -42.501s-20.334 -25.167 -38.001 -34.5s-41.5 -15 -71.5 -17v-40c46.667 2.66699 83.834 10.167 111.501 22.5s47.5 28 59.5 47s19.333 38.667 22 59
s4 46.5 4 78.5v46c0 26.667 1.83301 46.834 5.5 60.501s11.5 25.5 23.5 35.5c9.33301 8 23.5 15.5 42.5 22.5s40.167 11.167 63.5 12.5v40z" />
    <glyph glyph-name="asciitilde" unicode="~" horiz-adv-x="593" 
d="M79 173c4 26.667 13.499 46.501 28.499 59.501s31.167 19.5 48.5 19.5c16 0 34 -3 54 -9s45.667 -14.667 77 -26l4 -1c31.333 -11.333 58.5 -20.333 81.5 -27s43.833 -10 62.5 -10c36.667 0 65.834 13.667 87.501 41s33.834 60 36.501 98h-45
c-4 -24 -12.5 -43.167 -25.5 -57.5s-30.167 -21.5 -51.5 -21.5c-15.333 0 -33.5 3.16699 -54.5 9.5s-47.833 15.5 -80.5 27.5c-32 11.333 -59.167 20.166 -81.5 26.499s-43.166 9.5 -62.499 9.5c-36.667 0 -65.834 -13.667 -87.501 -41s-33.834 -60 -36.501 -98h45z" />
    <glyph glyph-name="exclamdown" unicode="&#xa1;" horiz-adv-x="444" 
d="M216 356c18 0 33.167 6.33301 45.5 19s18.5 27.667 18.5 45s-6.16699 32.166 -18.5 44.499s-27.5 18.5 -45.5 18.5c-17.333 0 -32.166 -6.16699 -44.499 -18.5s-18.5 -27.166 -18.5 -44.499c0 -18 6.16699 -33.167 18.5 -45.5s27.166 -18.5 44.499 -18.5zM232 298
l-7.00098 -0.000976562c-2.66699 -0.666992 -4.66699 -1 -6 -1s-3.66602 0.333008 -6.99902 1h-7l-40 -404c-2 -15.333 -3 -28 -3 -38c0 -6 0.5 -12.667 1.5 -20s3.16699 -15.166 6.5 -23.499s9 -15.333 17 -21s18.333 -8.5 31 -8.5s23 2.83301 31 8.5s13.667 12.667 17 21
s5.5 16 6.5 23s1.5 13.833 1.5 20.5c0 5.33301 -0.666992 15.333 -2 30l-1 7z" />
    <glyph glyph-name="cent" unicode="&#xa2;" 
d="M378 435c19.333 -10 33.5029 -21.166 42.5029 -33.499s15.833 -25.166 20.5 -38.499h12v2c5.33301 31.333 12.666 59 21.999 83l-2 1c-12 6.66699 -23.5 12.334 -34.5 17.001s-25.833 9 -44.5 13c3.33301 11.333 6 19.5 8 24.5l6.5 16.5c2.33301 6 6 14.667 11 26
l18.5 44c-8.66699 0.666992 -16.667 2.16699 -24 4.5s-16 6.83301 -26 13.5c-6 -22.667 -12.5 -45.5 -19.5 -68.5s-12.833 -40.833 -17.5 -53.5c-10.667 1.33301 -24.334 2 -41.001 2c-82 0 -146.5 -23.167 -193.5 -69.5s-70.5 -108.166 -70.5 -185.499
c0 -36.667 5.16699 -68.834 15.5 -96.501s23.166 -50.5 38.499 -68.5s30.333 -31.833 45 -41.5s28 -17.167 40 -22.5c-0.666992 -0.666992 -1.33398 -2.33398 -2.00098 -5.00098c-0.666992 -2 -1.33398 -3.33301 -2.00098 -4l-14 -36
c-10.667 -26.667 -18.334 -46.334 -23.001 -59.001c10.667 -1.33301 19.334 -3 26.001 -5s14.334 -6 23.001 -12l17.5 62c4.33301 14.667 9.16602 30 14.499 46c1.33301 0 4 -0.333008 8 -1c28 -5.33301 54.333 -8 79 -8c30 0 57.833 3.66699 83.5 11
s46.834 16.666 63.501 27.999v1c0.666992 9.33301 1.66699 18.333 3 27s4 18.667 8 30l-9 3c-16.667 -17.333 -37.667 -30.666 -63 -39.999s-49.666 -14 -72.999 -14c-16.667 0 -31 1.66699 -43 5s-23.667 7.66602 -35 12.999c-0.666992 0 -1.66699 0.333008 -3 1z
M209.003 73.001c-7.33301 6.66699 -13.834 13.6689 -19.501 21.002s-11.667 17.333 -18 30s-11.5 28.667 -15.5 48s-6 41.333 -6 66c0 19.333 1.66699 39.166 5 59.499s9.5 40.666 18.5 60.999s22.5 38 40.5 53s40.667 25.167 68 30.5c0.666992 0 3 0.333008 7 1
c12 2 22.333 3 31 3h9c4.66699 -0.666992 7.33398 -1 8.00098 -1z" />
    <glyph glyph-name="sterling" unicode="&#xa3;" 
d="M463 564c2 34.667 9.33301 65.334 22 92.001c-23.333 10.667 -45.333 18 -66 22s-40.334 6 -59.001 6c-45.333 0 -84.333 -8.83301 -117 -26.5s-59 -39.167 -79 -64.5c-14 -18 -24.667 -39.167 -32 -63.5s-11 -54.833 -11 -91.5c0 -19.333 1.66699 -41.333 5 -66v-3h-4
c-22.667 0.666992 -39.834 1.33398 -51.501 2.00098s-27.5 2 -47.5 4l1 -2c2 -10.667 3 -18.667 3 -24c0 -6 -1.33301 -14.333 -4 -25c2.66699 0 7 0.333008 13 1l43 1.5c10 0.333008 26.667 0.5 50 0.5c4.66699 -42 7 -78.667 7 -110c0 -44.667 -8.5 -81.167 -25.5 -109.5
s-42.167 -42.5 -75.5 -42.5c-6.66699 0 -13.334 0.666992 -20.001 2c2 -6 3.33301 -11.5 4 -16.5s1 -11.5 1 -19.5c0 -8.66699 -0.333008 -15.334 -1 -20.001s-2 -10 -4 -16c12 0 25.333 0.333008 40 1s26.334 1.33398 35.001 2.00098c7.33301 0.666992 28 1.66699 62 3
c17.333 1.33301 35 2 53 2h70c24 0 48.833 -0.333008 74.5 -1s46.834 -1.5 63.501 -2.5s32.5 -2 47.5 -3s24.167 -1.5 27.5 -1.5c-2 8.66699 -3.33301 16 -4 22s-1 13.333 -1 22s0.333008 15.5 1 20.5l3 21.5c0.666992 1.33301 1 2.33301 1 3
c-12 -1.33301 -27.167 -2.33301 -45.5 -3s-40.166 -1.33398 -65.499 -2.00098c-43.333 -1.33301 -86 -2 -128 -2h-125l1 1c14 12 27.167 26 39.5 42s24.166 38 35.499 66c10 24.667 16.333 48 19 70s4 45.667 4 71c41.333 0 71.5 -0.333008 90.5 -1
s42.167 -2.33398 69.5 -5.00098v2c-2.66699 9.33301 -4 17.333 -4 24c0 7.33301 1.33301 16.333 4 27c-24.667 -1.33301 -48.667 -2.5 -72 -3.5s-52.333 -1.5 -87 -1.5c-1.33301 16 -2.33301 30 -3 42s-1 28 -1 48s0.833008 39 2.5 57s6.33398 37 14.001 57s20 36.667 37 50
s39.833 20 68.5 20c25.333 0 47.5 -6.83301 66.5 -20.5s32.5 -33.167 40.5 -58.5h14z" />
    <glyph glyph-name="currency" unicode="&#xa4;" 
d="M16 139l42.998 -42.998l65 64c37.333 -28 79.333 -42 126 -42c44.667 0 86.667 14.333 126 43l65 -65l43 43l-64 65c10.667 15.333 20.334 33 29.001 53s13 44 13 72c0 46 -14 88.333 -42 127l64 64l-43 43l-64 -64c-20 13.333 -39.5 23.666 -58.5 30.999
s-41.833 11 -68.5 11c-29.333 0 -53.5 -3.83301 -72.5 -11.5s-37.167 -17.834 -54.5 -30.501l-64 64l-43 -43l64 -64c-28 -38.667 -42 -80.667 -42 -126c0 -28 4 -51.5 12 -70.5s17.333 -36.833 28 -53.5c0.666992 -0.666992 1.33398 -1.66699 2.00098 -3zM249.998 476.002
c40.667 0 75.333 -14.1689 104 -42.502s43 -63.166 43 -104.499c0 -40.667 -14.333 -75.167 -43 -103.5s-63.334 -42.5 -104.001 -42.5c-20 0 -39 3.83301 -57 11.5s-33.667 18.167 -47 31.5s-23.833 29 -31.5 47s-11.5 36.667 -11.5 56c0 40.667 14.333 75.334 43 104.001
s63.334 43 104.001 43z" />
    <glyph glyph-name="yen" unicode="&#xa5;" 
d="M205 200l-61.501 0.000976562c-13.667 0 -38.5 0.666992 -74.5 2c2.66699 -4 4 -11.333 4 -22c0 -10 -1.33301 -19.333 -4 -28c16 0.666992 38 1.33398 66 2.00098s51.333 1 70 1c0 -56.667 -2.66699 -110 -8 -160c7.33301 2.66699 15 4.33398 23 5.00098s20.333 1 37 1
c20 0 36.333 -2 49 -6c0 6.66699 -0.666992 20 -2 40c-2.66699 63.333 -4 103.333 -4 120c10.667 0 33 -0.333008 67 -1s57 -1.33398 69 -2.00098v2c-2.66699 8 -4 15 -4 21c0 9.33301 1.33301 18.333 4 27c-14.667 -0.666992 -29.334 -1.16699 -44.001 -1.5
s-45.334 -0.5 -92.001 -0.5v65c30 0 69.667 -0.666992 119 -2h17c-2.66699 9.33301 -4 17.666 -4 24.999c0 8 1.33301 16.333 4 25c-42.667 -2 -85.334 -3 -128.001 -3c4 8 7.66699 14.667 11 20l8 16l45 88l67 134l51 104c-8 -2.66699 -14.833 -4.33398 -20.5 -5.00098
s-13.5 -1 -23.5 -1c-20 0 -36 2 -48 6l-41 -125l-36 -103c-11.333 -31.333 -21.166 -56 -29.499 -74s-14.5 -27 -18.5 -27c-4.66699 0 -13.167 12.833 -25.5 38.5s-26.166 57.334 -41.499 95.001s-29.833 75 -43.5 112s-23.5 64.833 -29.5 83.5
c-8 -2 -17.167 -3.5 -27.5 -4.5s-20.166 -1.5 -29.499 -1.5s-19.666 0.333008 -30.999 1s-23 2.33398 -35 5.00098l61 -117l55.5 -108.5l36.5 -73.5c9.33301 -18.667 20.666 -39.667 33.999 -63c-20.667 0 -51 0.666992 -91 2c-17.333 0.666992 -29.666 1 -36.999 1
c0.666992 -2.66699 1 -4.33398 1 -5.00098c2 -6.66699 3 -12.334 3 -17.001c0 -10.667 -1.33301 -20 -4 -28c30 1.33301 75.333 2 136 2v-65z" />
    <glyph glyph-name="brokenbar" unicode="&#xa6;" horiz-adv-x="222" 
d="M79 -175h65v350h-65v-350zM79 325h65v350h-65v-350z" />
    <glyph glyph-name="section" unicode="&#xa7;" 
d="M381 555c4 16 8.00586 29.501 12.0059 40.501s10.333 22.167 19 33.5c-13.333 11.333 -27.833 20.5 -43.5 27.5s-30.5 12 -44.5 15s-26 4.83301 -36 5.5s-18.667 1 -26 1c-56.667 0 -100 -15.5 -130 -46.5s-45 -69.5 -45 -115.5c0 -22.667 3.5 -40.5 10.5 -53.5
s15.167 -24.167 24.5 -33.5l1 -1l-1 -1c-9.33301 -6.66699 -17.833 -13.167 -25.5 -19.5s-14.834 -14.166 -21.501 -23.499c-19.333 -25.333 -29 -55 -29 -89c0 -23.333 4 -43.5 12 -60.5s19 -31.5 33 -43.5s29.167 -22.167 45.5 -30.5s36.833 -17.833 61.5 -28.5
c60.667 -26 101.167 -47 121.5 -63s30.5 -40 30.5 -72s-11 -57 -33 -75s-50 -27 -84 -27c-32 0 -60.333 9 -85 27s-43.334 43.667 -56.001 77h-10c0 -20.667 -1.33301 -38.834 -4 -54.501s-6.66699 -30.5 -12 -44.5c12.667 -10.667 32.667 -21.167 60 -31.5
s57.666 -15.5 90.999 -15.5c31.333 0 59.833 4.83301 85.5 14.5s47.667 23.167 66 40.5s32.166 36.833 41.499 58.5s14 44.5 14 68.5c0 16 -3 32.667 -9 50s-18 34 -36 50c23.333 20.667 41.666 42 54.999 64s20 45.333 20 70c0 23.333 -5 45 -15 65s-22.667 34.667 -38 44
c-16.667 10.667 -44.334 24 -83.001 40c-6 2 -10.333 3.66699 -13 5l-6 2c-52 22 -89.167 41.167 -111.5 57.5s-33.5 39.166 -33.5 68.499c0 27.333 10 49 30 65s46 24 78 24c29.333 0 53.5 -8.33301 72.5 -25s31.833 -36.667 38.5 -60h8zM353.006 154.001
c-13.333 8 -24.999 14.5029 -34.999 19.5029s-31 14.167 -63 27.5l-37 17c-17.333 8 -32.166 15.167 -44.499 21.5s-24 13.833 -35 22.5s-20.167 19 -27.5 31s-11 25.333 -11 40c0 15.333 3.83301 29.666 11.5 42.999s18.167 24 31.5 32
c23.333 -14.667 43.333 -26.167 60 -34.5s39 -18.833 67 -31.5l5 -2c41.333 -16.667 71.666 -32.334 90.999 -47.001s29 -35.334 29 -62.001c0 -18 -4.33301 -33 -13 -45s-18.334 -22.667 -29.001 -32v0z" />
    <glyph glyph-name="dieresis" unicode="&#xa8;" horiz-adv-x="278" 
d="M190 615c0 -13.333 4.5 -24.5 13.5 -33.5s19.833 -13.5 32.5 -13.5s23.667 4.66699 33 14s14 20.333 14 33s-4.66699 23.5 -14 32.5s-20.333 13.5 -33 13.5s-23.5 -4.5 -32.5 -13.5s-13.5 -19.833 -13.5 -32.5zM-6 615c0 -13.333 4.5 -24.5 13.5 -33.5
s19.833 -13.5 32.5 -13.5s23.667 4.66699 33 14s14 20.333 14 33s-4.66699 23.5 -14 32.5s-20.333 13.5 -33 13.5s-23.5 -4.5 -32.5 -13.5s-13.5 -19.833 -13.5 -32.5z" />
    <glyph glyph-name="copyright" unicode="&#xa9;" horiz-adv-x="778" 
d="M389 696c-48.667 0 -94.8301 -9.16699 -138.497 -27.5s-82.167 -44 -115.5 -77s-59.333 -71.333 -78 -115s-28 -89.834 -28 -138.501c0 -48 9.16699 -93.833 27.5 -137.5s44.166 -82 77.499 -115s72 -58.833 116 -77.5s90.333 -28 139 -28s95 9.33301 139 28
s82.667 44.5 116 77.5s59.166 71.333 77.499 115s27.5 89.5 27.5 137.5c0 48.667 -9.33301 94.834 -28 138.501s-44.667 82 -78 115s-71.833 58.667 -115.5 77s-89.834 27.5 -138.501 27.5zM389.004 657c43.333 0 84.3359 -8.16504 123.003 -24.498
s72.5 -39.166 101.5 -68.499s51.667 -63.5 68 -102.5s24.5 -80.167 24.5 -123.5s-8 -84.333 -24 -123s-38.667 -72.834 -68 -102.501s-63.333 -52.667 -102 -69s-79.667 -24.5 -123 -24.5s-84.333 8.16699 -123 24.5s-72.5 39.166 -101.5 68.499s-51.667 63.5 -68 102.5
s-24.5 80.167 -24.5 123.5c0 44 8.16699 85.333 24.5 124s39.166 72.667 68.499 102s63.166 52.166 101.499 68.499s79.166 24.5 122.499 24.5zM521.007 218.002c-18 -24 -38.1709 -40.168 -60.5039 -48.501s-42.833 -12.5 -61.5 -12.5
c-40.667 0 -75.167 16.167 -103.5 48.5s-42.5 77.833 -42.5 136.5c0 56.667 12.667 101.667 38 135s59.666 50 102.999 50c26 0 50 -6.5 72 -19.5s37 -28.167 45 -45.5h6c0.666992 12.667 1.83398 22.334 3.50098 29.001s4.83398 16.667 9.50098 30v0
c-20.667 9.33301 -41.167 17 -61.5 23s-44.166 9 -71.499 9c-68 0 -119.667 -20 -155 -60s-53 -90.333 -53 -151c0 -62.667 17.833 -114 53.5 -154s84.167 -60 145.5 -60c17.333 0 37.833 2.5 61.5 7.5s47.834 15.5 72.501 31.5c0.666992 20 2.33398 36.333 5.00098 49z" />
    <glyph glyph-name="ordfeminine" unicode="&#xaa;" horiz-adv-x="325" 
d="M70 616l0.000976562 1.00195c5.33301 11.333 13.166 21.5 23.499 30.5s27.166 13.5 50.499 13.5c18.667 0 34.667 -5.83301 48 -17.5s20 -26.5 20 -44.5c0 -14 -8 -22.667 -24 -26l-57 -12h-1c-17.333 -3.33301 -31.666 -6.66602 -42.999 -9.99902s-21.833 -8 -31.5 -14
s-17.5 -14.333 -23.5 -25s-9 -23.667 -9 -39c0 -20 7.33301 -38.167 22 -54.5s37.334 -24.5 68.001 -24.5c24.667 0 44.667 3.5 60 10.5s28.666 16.5 39.999 28.5c8 -24 24.667 -36 50 -36c14.667 0 30.667 4.33301 48 13l-1 21c-2.66699 -2 -8 -3 -16 -3
c-10 0 -16.167 4.16699 -18.5 12.5s-3.5 26.166 -3.5 53.499c0 4 0.333008 20.667 1 50c1.33301 31.333 2 50.666 2 57.999c0 16.667 -2.33301 30.167 -7 40.5s-11.334 19.166 -20.001 26.499c-12 10 -25.667 17 -41 21s-30.666 6 -45.999 6
c-25.333 0 -46.5 -3.5 -63.5 -10.5s-32.5 -15.833 -46.5 -26.5l-3 -43h22zM210.001 489.002c0 -16 -6.66797 -29.5 -20.001 -40.5s-28.666 -16.5 -45.999 -16.5c-12.667 0 -24.5 3.66699 -35.5 11s-16.5 19 -16.5 35c0 18 7.5 32.5 22.5 43.5s46.833 20.167 95.5 27.5v-60z
" />
    <glyph glyph-name="guillemotleft" unicode="&#xab;" 
d="M215 440c-7.33301 -12.667 -16.6689 -27.834 -28.002 -45.501l-37.5 -56.5l-39 -55.5c-12.333 -17 -22.5 -29.833 -30.5 -38.5l65 -96c20 -30.667 40 -63.667 60 -99c8 8.66699 15.5 15 22.5 19s16.167 8 27.5 12c-25.333 32 -47.166 61.5 -65.499 88.5
s-34.833 52.5 -49.5 76.5c6.66699 10.667 15.834 24.334 27.501 41.001l33.5 46l32 41.5c10.667 13.667 20.334 25.5 29.001 35.5c-7.33301 2 -14.333 5 -21 9s-15.334 11.333 -26.001 22zM371.997 440c-5.33301 -10 -13.832 -24.167 -25.499 -42.5l-39 -58.5l-40 -56.5
c-12.333 -17 -22.5 -30.167 -30.5 -39.5l4 -5l63.5 -94c19 -29.333 38.167 -61 57.5 -95c8 8.66699 15.667 15.167 23 19.5s16.666 8.16602 27.999 11.499c-42 52.667 -80.667 107.334 -116 164.001l27.5 40.5l32 44.5l33 43c11 14 21.167 26.333 30.5 37h-1
c-7.33301 2 -14.5 5 -21.5 9s-15.5 11.333 -25.5 22z" />
    <glyph glyph-name="logicalnot" unicode="&#xac;" horiz-adv-x="593" 
d="M46 310h440v-191h62v251h-502v-60z" />
    <glyph glyph-name="minus" unicode="&#xad;" horiz-adv-x="593" 
d="M45 215h502v60h-502v-60z" />
    <glyph glyph-name="minus" unicode="&#x2212;" horiz-adv-x="593" 
d="M45 215h502v60h-502v-60z" />
    <glyph glyph-name="registered" unicode="&#xae;" horiz-adv-x="383" 
d="M290 422c-2.66699 2.66699 -8.33301 8.83301 -17 18.5l-26.5 30l-25.5 29.5c-8 9.33301 -14 16.666 -18 21.999c7.33301 0.666992 14.5 1.83398 21.5 3.50098s13.833 4.33398 20.5 8.00098s12.334 8.66699 17.001 15s7 14.5 7 24.5c0 21.333 -8.33301 34.666 -25 39.999
s-42.334 8 -77.001 8c-22.667 0 -39 0.333008 -49 1c0.666992 -14 1.16699 -27.667 1.5 -41s0.5 -32.333 0.5 -57c0 -26.667 -0.166992 -48 -0.5 -64s-1.16602 -29.667 -2.49902 -41c0.666992 0 1.66699 0.333008 3 1c5.33301 0.666992 10.666 1 15.999 1
s11 -0.333008 17 -1l6 -1c-1.33301 18.667 -2.16602 35 -2.49902 49s-0.5 30.667 -0.5 50h7l12 -13c27.333 -31.333 50 -60 68 -86l9 1c7.33301 0.666992 12.666 1 15.999 1c4.66699 0 11 -0.666992 19 -2h2zM230.001 570.999c0 -8.66699 -2.5 -15.833 -7.5 -21.5
s-11.667 -9.66699 -20 -12s-16 -3.83301 -23 -4.5s-14.833 -1 -23.5 -1c0 32 0.333008 57 1 75c23.333 0 41.333 -2 54 -6s19 -14 19 -30zM12.001 516c0 -24.667 4.66699 -47.998 14 -69.998s22.166 -41.167 38.499 -57.5s35.5 -29.166 57.5 -38.499s45.333 -14 70 -14
s47.834 4.66699 69.501 14s40.834 22.166 57.501 38.499s29.5 35.5 38.5 57.5s13.5 45.333 13.5 70s-4.5 48 -13.5 70s-21.833 41.167 -38.5 57.5s-36 29.166 -58 38.499s-45.333 14 -70 14c-24 0 -46.833 -4.5 -68.5 -13.5s-40.834 -21.833 -57.501 -38.5
s-29.667 -35.834 -39 -57.501s-14 -45.167 -14 -70.5zM337.001 516.002c0 -42.667 -13.833 -78 -41.5 -106s-62.5 -42 -104.5 -42c-41.333 0 -75.833 14.167 -103.5 42.5s-41.5 63.5 -41.5 105.5c0 41.333 14 76.333 42 105s62.333 43 103 43c42 0 76.833 -14.333 104.5 -43
s41.5 -63.667 41.5 -105z" />
    <glyph glyph-name="macron" unicode="&#xaf;" horiz-adv-x="278" 
d="M6 590h266v50h-266v-50z" />
    <glyph glyph-name="degree" unicode="&#xb0;" horiz-adv-x="407" 
d="M203 677c-20 0 -39.165 -3.83398 -57.498 -11.501s-34.5 -18.5 -48.5 -32.5s-25 -30.167 -33 -48.5s-12 -37.833 -12 -58.5s3.83301 -40.167 11.5 -58.5s18.667 -34.666 33 -48.999s30.5 -25.333 48.5 -33s37.333 -11.5 58 -11.5s40.167 4 58.5 12s34.666 19 48.999 33
s25.333 30.167 33 48.5s11.5 37.833 11.5 58.5s-3.83301 40.167 -11.5 58.5s-18.5 34.5 -32.5 48.5s-30.333 24.833 -49 32.5s-38.334 11.5 -59.001 11.5zM203.002 619.999c26.667 0 49.167 -9.16699 67.5 -27.5s27.5 -40.5 27.5 -66.5s-9.16699 -48.333 -27.5 -67
s-40.833 -28 -67.5 -28c-26 0 -48.167 9.16699 -66.5 27.5s-27.5 40.833 -27.5 67.5c0 26 9.33301 48.167 28 66.5s40.667 27.5 66 27.5z" />
    <glyph glyph-name="plusminus" unicode="&#xb1;" horiz-adv-x="593" 
d="M263 93h66v173h218v60h-218v174h-66v-174h-218v-60h218v-173zM45 -10h502v60h-502v-60z" />
    <glyph glyph-name="twosuperior" unicode="&#xb2;" horiz-adv-x="325" 
d="M13 268c10 0 29.9971 0.333008 59.9971 1c72 1.33301 122.333 2 151 2c18.667 0 43.334 -1 74.001 -3h8c-2 10 -3 20 -3 30c0 10.667 1 20 3 28c-24 -2.66699 -53.667 -4 -89 -4h-117l119 113c20 20 36.667 41.5 50 64.5s20 46.833 20 71.5c0 31.333 -11.833 57 -35.5 77
s-55.834 30 -96.501 30c-21.333 0 -40.166 -2.66699 -56.499 -8s-29.666 -12 -39.999 -20s-18 -15.5 -23 -22.5s-9.83301 -14.167 -14.5 -21.5v-1l6 -6c12 -14.667 20 -27 24 -37l12 2c0 28.667 8 49.5 24 62.5s33.333 19.5 52 19.5c16 0 29.167 -3.33301 39.5 -10
s18 -15 23 -25s8.33301 -20 10 -30s2.5 -19.333 2.5 -28c0 -28 -6.33301 -52.667 -19 -74s-28.667 -42 -48 -62c-39.333 -40.667 -84.666 -83.667 -135.999 -129v-20z" />
    <glyph glyph-name="threesuperior" unicode="&#xb3;" horiz-adv-x="325" 
d="M25 336c0 -12.667 -0.503906 -22.3301 -1.50391 -28.9971s-3.16699 -13.667 -6.5 -21l2 -1c14.667 -6.66699 29.334 -12.167 44.001 -16.5s33.667 -6.5 57 -6.5c52 0 93.667 11.833 125 35.5s47 53.5 47 89.5c0 18.667 -4 34.167 -12 46.5s-18.167 22.166 -30.5 29.499
s-24.666 12.333 -36.999 15s-23.5 4 -33.5 4c-2 0 -3 0.666992 -3 2s2.66699 2.66602 8 3.99902l3 1c25.333 6.66699 45.666 18.5 60.999 35.5s23 37.167 23 60.5c0 17.333 -4 32 -12 44s-18.5 21.5 -31.5 28.5s-26.833 12 -41.5 15s-29 4.5 -43 4.5
c-28 -0.666992 -50.5 -4.83398 -67.5 -12.501s-32.5 -17.167 -46.5 -28.5c0.666992 -1.33301 1.33398 -2.33301 2.00098 -3c6 -10 9.83301 -17.333 11.5 -22s3.5 -11.334 5.5 -20.001l12 -1c2 16.667 10 30.334 24 41.001s29.667 16 47 16c20.667 0 37.667 -6.5 51 -19.5
s20 -29.833 20 -50.5c0 -20 -6.33301 -38.333 -19 -55s-32 -25 -58 -25c-8 0 -18.667 1.33301 -32 4l1 -5c0.666992 -6.66699 1 -12 1 -16c0 -6.66699 -0.666992 -12.667 -2 -18c8.66699 2.66699 19 4 31 4c27.333 0 50 -7 68 -21s27 -35 27 -63
c0 -9.33301 -1.5 -19.166 -4.5 -29.499s-8.16699 -20 -15.5 -29s-17.333 -16.5 -30 -22.5s-28 -9 -46 -9c-15.333 0 -30.666 3.16699 -45.999 9.5s-28.666 18.166 -39.999 35.499z" />
    <glyph glyph-name="acute" unicode="&#xb4;" horiz-adv-x="278" 
d="M101 549l166 104.001c12.667 8 19 18 19 30c0 9.33301 -3.33301 17.5 -10 24.5s-14.667 10.5 -24 10.5c-8 0 -14.5 -1.83301 -19.5 -5.5s-15.833 -13.834 -32.5 -30.501l-134 -133h35z" />
    <glyph glyph-name="mu" unicode="&#xb5;" horiz-adv-x="611" 
d="M290 48c-25.333 0 -45.5039 5.83398 -60.5039 17.501s-25.667 27.5 -32 47.5s-10.333 41.833 -12 65.5s-2.5 54.834 -2.5 93.501c0 29.333 0.833008 63 2.5 101s3.83398 74.667 6.50098 110c-14.667 -4 -31.334 -6 -50.001 -6s-35.667 2 -51 6
c2 -50.667 3.33301 -105.667 4 -165s1 -131 1 -215c0 -144 -3.33301 -267.333 -10 -370c8.66699 2 16.834 3.5 24.501 4.5s17.5 1.5 29.5 1.5c11.333 0 20.833 -0.5 28.5 -1.5s15.5 -2.5 23.5 -4.5c-2 34.667 -3.33301 70 -4 106s-1 91.667 -1 167
c18.667 -13.333 43.667 -20 75 -20c12 0 24.667 1.33301 38 4s27.333 7.66699 42 15s29.334 18 44.001 32s28 31.667 40 53c0 -5.33301 -0.333008 -11 -1 -17l-1.5 -47c-0.333008 -10.667 -1.16602 -21 -2.49902 -31c10 2 18.167 3.5 24.5 4.5s13.833 1.5 22.5 1.5
c10.667 0 24.334 -1.66699 41.001 -5c2.66699 0 5.33398 -0.333008 8.00098 -1c-0.666992 11.333 -1.5 23.5 -2.5 36.5s-1.5 27.833 -1.5 44.5c-1.33301 33.333 -2 84.333 -2 153c0 45.333 1 88.166 3 128.499s4.33301 82.166 7 125.499h-2c-17.333 -4 -33 -6 -47 -6
c-16 0 -34 2 -54 6c0.666992 -12 1.5 -29.167 2.5 -51.5s1.83301 -47.5 2.5 -75.5c0.666992 -49.333 1 -93.333 1 -132c0 -20.667 -1 -39.5 -3 -56.5s-7 -33.5 -15 -49.5c-9.33301 -18.667 -23.833 -35 -43.5 -49s-43.834 -21 -72.501 -21z" />
    <glyph glyph-name="paragraph" unicode="&#xb6;" 
d="M500 623l-0.00292969 57.0029h-259c-49.333 0 -91 -7.33301 -125 -22s-60.667 -33.834 -80 -57.501s-33 -48.834 -41 -75.501s-12 -53 -12 -79c0 -24.667 3.33301 -49.334 10 -74.001s17.834 -47.5 33.501 -68.5s36.834 -38.667 63.501 -53s59.334 -22.833 98.001 -25.5
v-434h69v832h120v-832h69v832h54z" />
    <glyph glyph-name="periodcentered" unicode="&#xb7;" horiz-adv-x="250" 
d="M126 310c-18 0 -33.167 -6.33301 -45.5 -19s-18.5 -27.667 -18.5 -45s6.16699 -32.166 18.5 -44.499s27.5 -18.5 45.5 -18.5c17.333 0 32.166 6.33301 44.499 19s18.5 27.667 18.5 45s-6.16699 32.166 -18.5 44.499s-27.166 18.5 -44.499 18.5z" />
    <glyph glyph-name="periodcentered" unicode="&#x2219;" horiz-adv-x="250" 
d="M126 310c-18 0 -33.167 -6.33301 -45.5 -19s-18.5 -27.667 -18.5 -45s6.16699 -32.166 18.5 -44.499s27.5 -18.5 45.5 -18.5c17.333 0 32.166 6.33301 44.499 19s18.5 27.667 18.5 45s-6.16699 32.166 -18.5 44.499s-27.166 18.5 -44.499 18.5z" />
    <glyph glyph-name="cedilla" unicode="&#xb8;" horiz-adv-x="278" 
d="M47 -204c20.667 -6 38.1689 -10.166 52.502 -12.499s25.833 -3.5 34.5 -3.5c11.333 0 23.5 1.33301 36.5 4s25.5 7 37.5 13s21.833 14.667 29.5 26s11.5 25 11.5 41c0 22 -7.66699 39.167 -23 51.5s-33 18.5 -53 18.5c-10 0 -21.333 -1.66699 -34 -5
c-0.666992 -0.666992 -1.33398 -1 -2.00098 -1l30 67h-34l-44 -99l16 -6c9.33301 4 18.666 6 27.999 6c16 0 27.833 -3.83301 35.5 -11.5s11.5 -17.167 11.5 -28.5c0 -12.667 -5 -22.834 -15 -30.501s-24.333 -11.5 -43 -11.5c-18 0 -38.333 4 -61 12z" />
    <glyph glyph-name="onesuperior" unicode="&#xb9;" horiz-adv-x="325" 
d="M217 682c-12 -8 -26.833 -16.6719 -44.5 -26.0049s-37.167 -18.666 -58.5 -27.999s-40.5 -17.333 -57.5 -24s-30.833 -11.667 -41.5 -15v-7c8 -4 14 -8.16699 18 -12.5s8 -9.83301 12 -16.5c6 4 14.167 9.16699 24.5 15.5s21.333 12.666 33 18.999l29 15.5l23.5 12
c0 -59.333 -0.666992 -134.333 -2 -225v-29c0 -19.333 -0.5 -35.5 -1.5 -48.5s-2.5 -26.167 -4.5 -39.5l-1 -7c18 2 31.333 3 40 3s21 -1 37 -3c-0.666992 8 -1 30 -1 66c0 58.667 0.333008 109.334 1 152.001c0 34.667 0.333008 66.834 1 96.501s1.66699 51.834 3 66.501
c0 2.66699 0.333008 5.33398 1 8.00098c0 8.66699 0.666992 16.334 2 23.001z" />
    <glyph glyph-name="ordmasculine" unicode="&#xba;" horiz-adv-x="397" 
d="M368 548c0 47.333 -15.833 83.834 -47.5 109.501s-72.167 38.5 -121.5 38.5c-50.667 0 -91.667 -13.333 -123 -40s-47 -65 -47 -115c0 -46.667 15.833 -83.167 47.5 -109.5s72.167 -39.5 121.5 -39.5s90 13.667 122 41s48 65.666 48 114.999zM101 544.001
c0 35.333 7.83301 64.833 23.5 88.5s40.5 35.5 74.5 35.5c33.333 0 57.833 -12.167 73.5 -36.5s23.5 -53.5 23.5 -87.5c0 -32 -8.33301 -60.667 -25 -86s-41 -38 -73 -38c-32.667 0 -57 12.333 -73 37s-24 53.667 -24 87z" />
    <glyph glyph-name="guillemotright" unicode="&#xbb;" 
d="M137 49c19.333 34.667 39.498 68.167 60.498 100.5s42.5 63.833 64.5 94.5c-8 9.33301 -18 22.333 -30 39l-39.5 56.5l-38.5 57.5c-11.333 17.333 -20.333 31.666 -27 42.999c-7.33301 -8.66699 -14.5 -15.167 -21.5 -19.5s-15.5 -8.16602 -25.5 -11.499l25.5 -30.5
c9.66699 -11.667 20.834 -26.167 33.501 -43.5l34 -47.5l29 -42.5c-38 -60 -76.333 -114.667 -115 -164c20.667 -7.33301 37.334 -18 50.001 -32zM294.998 49c19.333 34.667 39.499 68.166 60.499 100.499s42.5 63.833 64.5 94.5c-7.33301 8.66699 -17.333 21.5 -30 38.5
l-40 56l-38 57.5l-27 44c-7.33301 -8.66699 -14.666 -15.167 -21.999 -19.5s-16 -8.16602 -26 -11.499c7.33301 -7.33301 16 -17.5 26 -30.5l32.5 -42.5l35 -47.5c11.667 -16.333 21.5 -30.833 29.5 -43.5c-38 -60 -76.667 -114.667 -116 -164
c20.667 -7.33301 37.667 -18 51 -32z" />
    <glyph glyph-name="onequarter" unicode="&#xbc;" horiz-adv-x="817" 
d="M682 107c0 -21.333 -1.00098 -49.668 -3.00098 -85.001c-1.33301 -14 -2 -22 -2 -24c2.66699 0 7.33398 0.666992 14.001 2c9.33301 1.33301 16.333 2 21 2c8 0 17.667 -1 29 -3l7 -1c0 7.33301 -0.333008 17.333 -1 30v40l-1 39c24 0 43 -1 57 -3c-2 8 -3 16 -3 24
s1 16.333 3 25c-14.667 -0.666992 -25.667 -1 -33 -1c-13.333 -0.666992 -21.333 -1 -24 -1v14c0.666992 68 1 114.333 1 139l2 48l2 50c-10 -2 -19 -3 -27 -3c-12 0 -22 1 -30 3c-2 -3.33301 -12.667 -18.333 -32 -45l-68 -92l-68.5 -91.5
c-19.667 -26.333 -32.167 -42.5 -37.5 -48.5c0 -1.33301 0.333008 -3.66602 1 -6.99902v-4c0 -0.666992 -0.333008 -2 -1 -4v-5c14 0.666992 30 1.16699 48 1.5s31.667 0.5 41 0.5h105zM681.999 150.998h-132l15 22.5l22 31.5l17 23c46 60.667 72 94.667 78 102v-179z
M655.999 672.998c-8 -2 -17.333 -3 -28 -3c-11.333 0 -21 1 -29 3l-438 -690c9.33301 2 19 3 29 3c9.33301 0 18 -1 26 -3zM217.999 681.998c-12.667 -9.33301 -28.3311 -18.8369 -46.998 -28.5039s-37.834 -18.667 -57.501 -27l-56 -23
c-17.667 -7 -31.834 -12.167 -42.501 -15.5v-6c12 -6 21.667 -15.333 29 -28c6.66699 4.66699 15 10 25 16s20.667 12 32 18l30.5 16l23.5 12c0 -60.667 -0.666992 -136.334 -2 -227.001v-28c0 -19.333 -0.5 -35.5 -1.5 -48.5s-2.5 -26.167 -4.5 -39.5l-1 -7
c18 2 31.333 3 40 3s21 -1 37 -3c-0.666992 8 -1 30 -1 66c0 58.667 0.333008 109.334 1 152.001c0 34.667 0.333008 66.834 1 96.501s1.66699 51.834 3 66.501c0 2.66699 0.333008 5.33398 1 8.00098c0 8.66699 0.666992 16.334 2 23.001z" />
    <glyph glyph-name="onehalf" unicode="&#xbd;" horiz-adv-x="817" 
d="M656 673c-8 -2 -17.333 -3 -28 -3c-11.333 0 -21 1 -29 3l-438 -690c9.33301 2 19 3 29 3c9.33301 0 18 -1 26 -3zM505 -3c10 0 29.9971 0.333008 59.9971 1c72 1.33301 122.333 2 151 2c18.667 0 43.334 -1 74.001 -3h8c-2 10 -3 20 -3 30c0 10.667 1 20 3 28
c-24 -2.66699 -53.667 -4 -89 -4h-117l119 113c20 20 36.667 41.5 50 64.5s20 46.833 20 71.5c0 31.333 -11.833 57 -35.5 77s-55.834 30 -96.501 30c-21.333 0 -40.166 -2.66699 -56.499 -8s-29.666 -12 -39.999 -20s-18 -15.5 -23 -22.5s-9.83301 -14.167 -14.5 -21.5v-1
l6 -6c12 -14.667 20 -27 24 -37l12 2c0 28.667 8 49.5 24 62.5s33.333 19.5 52 19.5c16 0 29.167 -3.33301 39.5 -10s18 -15 23 -25s8.33301 -20 10 -30s2.5 -19.333 2.5 -28c0 -28 -6.33301 -52.667 -19 -74s-28.667 -42 -48 -62
c-39.333 -40.667 -84.666 -83.667 -135.999 -129v-20zM216.997 682c-12 -8 -26.833 -16.6719 -44.5 -26.0049s-37.167 -18.666 -58.5 -27.999s-40.5 -17.333 -57.5 -24s-30.833 -11.667 -41.5 -15v-7c8 -4 14 -8.16699 18 -12.5s8 -9.83301 12 -16.5
c6 4 14.167 9.16699 24.5 15.5s21.333 12.666 33 18.999l29 15.5l23.5 12c0 -59.333 -0.666992 -134.333 -2 -225v-29c0 -19.333 -0.5 -35.5 -1.5 -48.5s-2.5 -26.167 -4.5 -39.5l-1 -7c18 2 31.333 3 40 3s21 -1 37 -3c-0.666992 8 -1 30 -1 66
c0 58.667 0.333008 109.334 1 152.001c0 34.667 0.333008 66.834 1 96.501s1.66699 51.834 3 66.501c0 2.66699 0.333008 5.33398 1 8.00098c0 8.66699 0.666992 16.334 2 23.001z" />
    <glyph glyph-name="threequarters" unicode="&#xbe;" horiz-adv-x="817" 
d="M682 107c0 -21.333 -1.00098 -49.668 -3.00098 -85.001c-1.33301 -14 -2 -22 -2 -24c2.66699 0 7.33398 0.666992 14.001 2c9.33301 1.33301 16.333 2 21 2c8 0 17.667 -1 29 -3l7 -1c0 7.33301 -0.333008 17.333 -1 30v40l-1 39c24 0 43 -1 57 -3c-2 8 -3 16 -3 24
s1 16.333 3 25c-14.667 -0.666992 -25.667 -1 -33 -1c-13.333 -0.666992 -21.333 -1 -24 -1v14c0.666992 68 1 114.333 1 139l2 48l2 50c-10 -2 -19 -3 -27 -3c-12 0 -22 1 -30 3c-2 -3.33301 -12.667 -18.333 -32 -45l-68 -92l-68.5 -91.5
c-19.667 -26.333 -32.167 -42.5 -37.5 -48.5c0 -1.33301 0.333008 -3.66602 1 -6.99902v-4c0 -0.666992 -0.333008 -2 -1 -4v-5c14 0.666992 30 1.16699 48 1.5s31.667 0.5 41 0.5h105zM681.999 150.998h-132l15 22.5l22 31.5l17 23c46 60.667 72 94.667 78 102v-179z
M660.999 672.998c-8 -2 -17.333 -3 -28 -3c-11.333 0 -21 1 -29 3l-438 -690c9.33301 2 19 3 29 3c9.33301 0 18 -1 26 -3zM24.999 335.998c0 -12.667 -0.503906 -22.3301 -1.50391 -28.9971s-3.16699 -13.667 -6.5 -21l2 -1c14.667 -6.66699 29.334 -12.167 44.001 -16.5
s33.667 -6.5 57 -6.5c52 0 93.667 11.833 125 35.5s47 53.5 47 89.5c0 18.667 -4 34.167 -12 46.5s-18.167 22.166 -30.5 29.499s-24.666 12.333 -36.999 15s-23.5 4 -33.5 4c-2 0 -3 0.666992 -3 2s2.66699 2.66602 8 3.99902l3 1c25.333 6.66699 45.666 18.5 60.999 35.5
s23 37.167 23 60.5c0 17.333 -4 32 -12 44s-18.5 21.5 -31.5 28.5s-26.833 12 -41.5 15s-29 4.5 -43 4.5c-28 -0.666992 -50.5 -4.83398 -67.5 -12.501s-32.5 -17.167 -46.5 -28.5c0.666992 -1.33301 1.33398 -2.33301 2.00098 -3c6 -10 9.83301 -17.333 11.5 -22
s3.5 -11.334 5.5 -20.001l12 -1c2 16.667 10 30.334 24 41.001s29.667 16 47 16c20.667 0 37.667 -6.5 51 -19.5s20 -29.833 20 -50.5c0 -20 -6.33301 -38.333 -19 -55s-32 -25 -58 -25c-8 0 -18.667 1.33301 -32 4l1 -5c0.666992 -6.66699 1 -12 1 -16
c0 -6.66699 -0.666992 -12.667 -2 -18c8.66699 2.66699 19 4 31 4c27.333 0 50 -7 68 -21s27 -35 27 -63c0 -9.33301 -1.5 -19.166 -4.5 -29.499s-8.16699 -20 -15.5 -29s-17.333 -16.5 -30 -22.5s-28 -9 -46 -9c-15.333 0 -30.666 3.16699 -45.999 9.5
s-28.666 18.166 -39.999 35.499z" />
    <glyph glyph-name="questiondown" unicode="&#xbf;" horiz-adv-x="444" 
d="M242 356c17.333 0 32.166 6.16699 44.499 18.5s18.5 27.5 18.5 45.5c0 17.333 -6.16699 32.166 -18.5 44.499s-27.166 18.5 -44.499 18.5c-18 0 -33.167 -6.16699 -45.5 -18.5s-18.5 -27.5 -18.5 -45.5c0 -17.333 6.33301 -32.166 19 -44.499s27.667 -18.5 45 -18.5z
M350 -121c-20 -34.667 -50.335 -51.9951 -91.002 -51.9951c-25.333 0 -45.5 7.66699 -60.5 23s-22.5 34.666 -22.5 57.999c0 20.667 5.66699 39.834 17 57.501s32 41.5 62 71.5c26.667 26.667 47.167 51 61.5 73s21.5 46 21.5 72c0 13.333 -2.16699 26.5 -6.5 39.5
s-11.166 25.167 -20.499 36.5s-21.5 20.333 -36.5 27s-33.167 10 -54.5 10c-10.667 0 -22.667 -1.66699 -36 -5c-1.33301 -12 -4.33301 -23 -9 -33l6 -4c12 6.66699 23 10 33 10c14.667 0 26.5 -4.83301 35.5 -14.5s13.5 -22.834 13.5 -39.501
c0 -8.66699 -1.16699 -16.834 -3.5 -24.501s-6.66602 -16.167 -12.999 -25.5s-15.5 -20.5 -27.5 -33.5s-28.667 -29.5 -50 -49.5v0c-23.333 -22.667 -42.333 -45.334 -57 -68.001s-22 -50.667 -22 -84c0 -38.667 13.833 -71.334 41.5 -98.001s67.5 -40 119.5 -40
c6.66699 0 13.834 0.333008 21.501 1s17.167 2.16699 28.5 4.5s23.166 6.16602 35.499 11.499s23.833 12.333 34.5 21c-4 12 -6.5 20.167 -7.5 24.5s-2.5 12.833 -4.5 25.5v3z" />
    <glyph glyph-name="Agrave" unicode="&#xc0;" horiz-adv-x="667" 
d="M431 257l5 -10.998c18.667 -40.667 35.834 -80.334 51.501 -119.001s30.5 -82.667 44.5 -132c25.333 4 46.666 6 63.999 6c16.667 0 36.334 -2 59.001 -6c-1.33301 2.66699 -14.833 32.5 -40.5 89.5l-89 200.5l-97 226c-31 74 -55.5 135.333 -73.5 184
c-8 -2 -15.333 -3 -22 -3c-4.66699 0 -10.667 0.666992 -18 2l-7 1c-16 -41.333 -36.5 -91 -61.5 -149l-79 -180.5l-86 -192l-81.5 -178.5c3.33301 0.666992 7 1.33398 11 2.00098c12.667 2.66699 23.667 4 33 4s19.666 -1.33301 30.999 -4l10 -2
c13.333 52 27.333 97.667 42 137s30.667 78.666 48 117.999c1.33301 3.33301 2.33301 5.66602 3 6.99902h253zM411 307.002h-213l105 248zM407 727.002l-134.999 132.999c-16.667 16.667 -27.5 26.834 -32.5 30.501s-11.167 5.5 -18.5 5.5
c-9.33301 0 -17.333 -3.5 -24 -10.5s-10 -15.167 -10 -24.5c0 -5.33301 1.16699 -10.5 3.5 -15.5s7.16602 -9.83301 14.499 -14.5l167 -104h35z" />
    <glyph glyph-name="Aacute" unicode="&#xc1;" horiz-adv-x="667" 
d="M431 257l5 -10.998c18.667 -40.667 35.834 -80.334 51.501 -119.001s30.5 -82.667 44.5 -132c25.333 4 46.666 6 63.999 6c16.667 0 36.334 -2 59.001 -6c-1.33301 2.66699 -14.833 32.5 -40.5 89.5l-89 200.5l-97 226c-31 74 -55.5 135.333 -73.5 184
c-8 -2 -15.333 -3 -22 -3c-4.66699 0 -10.667 0.666992 -18 2l-7 1c-16 -41.333 -36.5 -91 -61.5 -149l-79 -180.5l-86 -192l-81.5 -178.5c3.33301 0.666992 7 1.33398 11 2.00098c12.667 2.66699 23.667 4 33 4s19.666 -1.33301 30.999 -4l10 -2
c13.333 52 27.333 97.667 42 137s30.667 78.666 48 117.999c1.33301 3.33301 2.33301 5.66602 3 6.99902h253zM411 307.002h-213l105 248zM296 727.002l166 104.001c12.667 8 19 18 19 30c0 9.33301 -3.33301 17.5 -10 24.5s-14.667 10.5 -24 10.5
c-8 0 -14.5 -1.83301 -19.5 -5.5s-15.833 -13.834 -32.5 -30.501l-134 -133h35z" />
    <glyph glyph-name="Acircumflex" unicode="&#xc2;" horiz-adv-x="667" 
d="M431 257l5 -10.998c18.667 -40.667 35.834 -80.334 51.501 -119.001s30.5 -82.667 44.5 -132c25.333 4 46.666 6 63.999 6c16.667 0 36.334 -2 59.001 -6c-1.33301 2.66699 -14.833 32.5 -40.5 89.5l-89 200.5l-97 226c-31 74 -55.5 135.333 -73.5 184
c-8 -2 -15.333 -3 -22 -3c-4.66699 0 -10.667 0.666992 -18 2l-7 1c-16 -41.333 -36.5 -91 -61.5 -149l-79 -180.5l-86 -192l-81.5 -178.5c3.33301 0.666992 7 1.33398 11 2.00098c12.667 2.66699 23.667 4 33 4s19.666 -1.33301 30.999 -4l10 -2
c13.333 52 27.333 97.667 42 137s30.667 78.666 48 117.999c1.33301 3.33301 2.33301 5.66602 3 6.99902h253zM411 307.002h-213l105 248zM183 727.002h34l117 105l117 -105h33l-122 167h-56z" />
    <glyph glyph-name="Atilde" unicode="&#xc3;" horiz-adv-x="667" 
d="M431 257l5 -10.998c18.667 -40.667 35.834 -80.334 51.501 -119.001s30.5 -82.667 44.5 -132c25.333 4 46.666 6 63.999 6c16.667 0 36.334 -2 59.001 -6c-1.33301 2.66699 -14.833 32.5 -40.5 89.5l-89 200.5l-97 226c-31 74 -55.5 135.333 -73.5 184
c-8 -2 -15.333 -3 -22 -3c-4.66699 0 -10.667 0.666992 -18 2l-7 1c-16 -41.333 -36.5 -91 -61.5 -149l-79 -180.5l-86 -192l-81.5 -178.5c3.33301 0.666992 7 1.33398 11 2.00098c12.667 2.66699 23.667 4 33 4s19.666 -1.33301 30.999 -4l10 -2
c13.333 52 27.333 97.667 42 137s30.667 78.666 48 117.999c1.33301 3.33301 2.33301 5.66602 3 6.99902h253zM411 307.002h-213l105 248zM198 752.002c5.33301 18.667 13.501 30.999 24.501 36.999s21.167 9 30.5 9c11.333 0 27 -5 47 -15l35 -17
c18.667 -9.33301 37.667 -14 57 -14c16 0 30.167 3.5 42.5 10.5s22.833 16 31.5 27s15.5 22.167 20.5 33.5s8.5 21.666 10.5 30.999h-29c-6 -14.667 -13.333 -26.667 -22 -36s-20 -14 -34 -14c-8 0 -14.833 1 -20.5 3s-15.834 6.33301 -30.501 13l-3 1
c-1.33301 0.666992 -2.33301 1.33398 -3 2.00098c-28 12.667 -45.833 20.334 -53.5 23.001s-16.5 4 -26.5 4c-24.667 0 -47 -9 -67 -27s-32.333 -41.667 -37 -71h27z" />
    <glyph glyph-name="Adieresis" unicode="&#xc4;" horiz-adv-x="667" 
d="M431 257l5 -10.998c18.667 -40.667 35.834 -80.334 51.501 -119.001s30.5 -82.667 44.5 -132c25.333 4 46.666 6 63.999 6c16.667 0 36.334 -2 59.001 -6c-1.33301 2.66699 -14.833 32.5 -40.5 89.5l-89 200.5l-97 226c-31 74 -55.5 135.333 -73.5 184
c-8 -2 -15.333 -3 -22 -3c-4.66699 0 -10.667 0.666992 -18 2l-7 1c-16 -41.333 -36.5 -91 -61.5 -149l-79 -180.5l-86 -192l-81.5 -178.5c3.33301 0.666992 7 1.33398 11 2.00098c12.667 2.66699 23.667 4 33 4s19.666 -1.33301 30.999 -4l10 -2
c13.333 52 27.333 97.667 42 137s30.667 78.666 48 117.999c1.33301 3.33301 2.33301 5.66602 3 6.99902h253zM411 307.002h-213l105 248zM385 793.002c0 -13.333 4.5 -24.5 13.5 -33.5s19.833 -13.5 32.5 -13.5s23.667 4.66699 33 14s14 20.333 14 33
s-4.66699 23.5 -14 32.5s-20.333 13.5 -33 13.5s-23.5 -4.5 -32.5 -13.5s-13.5 -19.833 -13.5 -32.5zM189 793.002c0 -13.333 4.5 -24.5 13.5 -33.5s19.833 -13.5 32.5 -13.5s23.667 4.66699 33 14s14 20.333 14 33s-4.66699 23.5 -14 32.5s-20.333 13.5 -33 13.5
s-23.5 -4.5 -32.5 -13.5s-13.5 -19.833 -13.5 -32.5z" />
    <glyph glyph-name="Aring" unicode="&#xc5;" horiz-adv-x="667" 
d="M431 257l5 -10.998c18.667 -40.667 35.834 -80.334 51.501 -119.001s30.5 -82.667 44.5 -132c25.333 4 46.666 6 63.999 6c16.667 0 36.334 -2 59.001 -6c-1.33301 2.66699 -14.833 32.5 -40.5 89.5l-89 200.5l-97 226c-31 74 -55.5 135.333 -73.5 184
c-8 -2 -15.333 -3 -22 -3c-4.66699 0 -10.667 0.666992 -18 2l-7 1c-16 -41.333 -36.5 -91 -61.5 -149l-79 -180.5l-86 -192l-81.5 -178.5c3.33301 0.666992 7 1.33398 11 2.00098c12.667 2.66699 23.667 4 33 4s19.666 -1.33301 30.999 -4l10 -2
c13.333 52 27.333 97.667 42 137s30.667 78.666 48 117.999c1.33301 3.33301 2.33301 5.66602 3 6.99902h253zM411 307.002h-213l105 248zM334 712.002c25.333 0 46.833 9 64.5 27s26.5 39.667 26.5 65c0 24.667 -9 46 -27 64s-39.333 27 -64 27
c-25.333 0 -47 -8.83301 -65 -26.5s-27 -39.167 -27 -64.5s9 -47 27 -65s39.667 -27 65 -27zM334 739.002c-18.667 0 -34.167 6.33301 -46.5 19s-18.5 28 -18.5 46c0 17.333 6.16699 32.333 18.5 45s27.5 19 45.5 19c18.667 0 34.167 -6.16699 46.5 -18.5
s18.5 -27.5 18.5 -45.5s-6.16699 -33.333 -18.5 -46s-27.5 -19 -45.5 -19z" />
    <glyph glyph-name="AE" unicode="&#xc6;" horiz-adv-x="889" 
d="M471 249c0 -39.333 -0.338867 -82.666 -1.00586 -129.999c-0.666992 -27.333 -1.5 -51.833 -2.5 -73.5s-1.83301 -38.5 -2.5 -50.5c22.667 2 45.334 3.5 68.001 4.5s46.334 1.5 71.001 1.5c63.333 0 112.5 -0.333008 147.5 -1s63.833 -2.33398 86.5 -5.00098l-1 3
c-2 10.667 -3 21 -3 31c0 8 1 16.667 3 26l1 6c-56.667 -5.33301 -105.5 -8.66602 -146.5 -9.99902s-80.833 -2 -119.5 -2c-4 48 -6 95.667 -6 143c0 16 0.333008 40 1 72c0.666992 31.333 1 55 1 71h27c14.667 0.666992 23.334 1 26.001 1c34 0 67.667 -1 101 -3
s61.333 -4.66699 84 -8l-1 3c-2 10.667 -3 21 -3 31s1 20.333 3 31l1 3c-64 -7.33301 -124.333 -11 -181 -11c-20 0 -39 1 -57 3c0 11.333 -0.333008 27.666 -1 48.999s-1 37.666 -1 48.999c0 31.333 0.333008 58.5 1 81.5s1.66699 45.5 3 67.5c1.33301 0 8 0.333008 20 1
h23c41.333 0 79.833 -0.833008 115.5 -2.5s70.167 -5.16699 103.5 -10.5c0 0.666992 -0.333008 1.66699 -1 3c-2 10.667 -3 21.334 -3 32.001c0 10 1 19.667 3 29l1 3c-15.333 -1.33301 -40.666 -2.66602 -75.999 -3.99902s-70 -2 -104 -2
c-53.333 0 -94.666 0.666992 -123.999 2c-14.667 0 -29 0.5 -43 1.5l-36 2.5c-8 -14.667 -17 -30.167 -27 -46.5l-46 -72.5l-34 -54l-115.5 -180.5l-58.5 -91l-66 -101.5c-4 -6.66699 -29.667 -43.334 -77 -110.001l-25 -36c9.33301 2 17.333 3.5 24 4.5s16 1.5 28 1.5
c11.333 0 20 -0.5 26 -1.5l21 -3.5l3 -1c14.667 36.667 32.834 76.167 54.501 118.5s48.5 86.833 80.5 133.5c16 1.33301 27.667 2 35 2h24h175zM450.994 594l2.00195 2c4 6 7.33301 9 10 9c3.33301 0 5.66602 -9.66699 6.99902 -29
c1.33301 -18 2.16602 -39.833 2.49902 -65.5s0.5 -54.5 0.5 -86.5c0 -10.667 -0.333008 -32 -1 -64s-1 -53.333 -1 -64h-125c-22 0 -48.333 0.666992 -79 2z" />
    <glyph glyph-name="Ccedilla" unicode="&#xc7;" horiz-adv-x="722" 
d="M426 -17c11.333 0 24.832 0.500977 40.499 1.50098s34.5 3.66699 56.5 8s45.833 11 71.5 20s50.834 20.833 75.501 35.5c0.666992 16.667 2 31 4 43s4.33301 24.667 7 38l-12 5c-18.667 -22 -38.5 -39.833 -59.5 -53.5s-42 -24.167 -63 -31.5s-40 -12.166 -57 -14.499
s-32.833 -3.5 -47.5 -3.5c-36 0 -70.333 6.5 -103 19.5s-61.667 32.667 -87 59s-45.166 59.166 -59.499 98.499s-21.5 84 -21.5 134c0 96 23.833 171.5 71.5 226.5s111.5 82.5 191.5 82.5c49.333 0 94.333 -10.833 135 -32.5s68 -47.5 82 -77.5h10
c2.66699 22.667 5.33398 39.5 8.00098 50.5s8 27.5 16 49.5c-33.333 14.667 -69.5 27.167 -108.5 37.5s-85.167 15.5 -138.5 15.5c-64 0 -120.167 -9 -168.5 -27s-88.333 -43.167 -120 -75.5s-55.334 -69.833 -71.001 -112.5s-23.5 -88.667 -23.5 -138
c0 -47.333 7 -91.833 21 -133.5s35.167 -78.5 63.5 -110.5s63.833 -57.833 106.5 -77.5s91.334 -31.5 146.001 -35.5l-39 -88l17 -6c9.33301 4 18.333 6 27 6c16 0 28 -3.83301 36 -11.5s12 -17.167 12 -28.5c0 -12.667 -5 -22.834 -15 -30.501s-24.333 -11.5 -43 -11.5
c-11.333 0 -21.5 1 -30.5 3s-19.5 5 -31.5 9l-14 -30c21.333 -6 39.166 -10.167 53.499 -12.5s25.833 -3.5 34.5 -3.5c11.333 0 23.5 1.33301 36.5 4s25.5 7 37.5 13s21.833 14.667 29.5 26s11.5 25 11.5 41c0 22 -7.66699 39.167 -23 51.5s-33 18.5 -53 18.5
c-10 0 -21.333 -1.66699 -34 -5c-0.666992 -0.666992 -1.33398 -1 -2.00098 -1z" />
    <glyph glyph-name="Egrave" unicode="&#xc8;" 
d="M188 385c-0.666992 35.333 -0.995117 78.6641 -0.995117 129.997v67c0 12 0.666992 28 2 48c22 1.33301 38.5 2 49.5 2h47.5c39.333 0 70 -1 92 -3s44.333 -5.33301 67 -10l-1 3c-2 10.667 -3 20.334 -3 29.001s1.33301 20.334 4 35.001
c-40.667 -4 -91.334 -6 -152.001 -6c-92.667 0 -162.334 2 -209.001 6c2.66699 -46 4.66699 -99.833 6 -161.5s2 -118.834 2 -171.501c0 -58 -0.333008 -104.5 -1 -139.5s-1.33398 -65 -2.00098 -90s-1.66699 -45.833 -3 -62.5s-3 -38.667 -5 -66c102.667 4 180 6 232 6
c62 0 108.333 -2 139 -6l-1 3c-2 10.667 -3 20.334 -3 29.001s1 18.667 3 30l1 4c-52 -5.33301 -97.5 -8.66602 -136.5 -9.99902s-81.167 -2 -126.5 -2c-0.666992 20 -1.33398 45.167 -2.00098 75.5s-1 56.833 -1 79.5c0 30 0.666992 73.667 2 131
c33.333 1.33301 60.333 2 81 2c22.667 0 48 -0.833008 76 -2.5s54.333 -4.16699 79 -7.5c0 2.66699 -0.666992 7 -2 13c-1.33301 7.33301 -2 13.333 -2 18c0 8.66699 1 18.667 3 30l1 4c-43.333 -5.33301 -97 -8 -161 -8c-12.667 0 -25.334 0.333008 -38.001 1h-37z
M343.005 726.998l-134.999 132.999c-16.667 16.667 -27.5 26.834 -32.5 30.501s-11.167 5.5 -18.5 5.5c-9.33301 0 -17.333 -3.5 -24 -10.5s-10 -15.167 -10 -24.5c0 -5.33301 1.16699 -10.5 3.5 -15.5s7.16602 -9.83301 14.499 -14.5l167 -104h35z" />
    <glyph glyph-name="Eacute" unicode="&#xc9;" 
d="M188 385c-0.666992 35.333 -0.995117 78.6641 -0.995117 129.997v67c0 12 0.666992 28 2 48c22 1.33301 38.5 2 49.5 2h47.5c39.333 0 70 -1 92 -3s44.333 -5.33301 67 -10l-1 3c-2 10.667 -3 20.334 -3 29.001s1.33301 20.334 4 35.001
c-40.667 -4 -91.334 -6 -152.001 -6c-92.667 0 -162.334 2 -209.001 6c2.66699 -46 4.66699 -99.833 6 -161.5s2 -118.834 2 -171.501c0 -58 -0.333008 -104.5 -1 -139.5s-1.33398 -65 -2.00098 -90s-1.66699 -45.833 -3 -62.5s-3 -38.667 -5 -66c102.667 4 180 6 232 6
c62 0 108.333 -2 139 -6l-1 3c-2 10.667 -3 20.334 -3 29.001s1 18.667 3 30l1 4c-52 -5.33301 -97.5 -8.66602 -136.5 -9.99902s-81.167 -2 -126.5 -2c-0.666992 20 -1.33398 45.167 -2.00098 75.5s-1 56.833 -1 79.5c0 30 0.666992 73.667 2 131
c33.333 1.33301 60.333 2 81 2c22.667 0 48 -0.833008 76 -2.5s54.333 -4.16699 79 -7.5c0 2.66699 -0.666992 7 -2 13c-1.33301 7.33301 -2 13.333 -2 18c0 8.66699 1 18.667 3 30l1 4c-43.333 -5.33301 -97 -8 -161 -8c-12.667 0 -25.334 0.333008 -38.001 1h-37z
M222.005 726.998l166 104.001c12.667 8 19 18 19 30c0 9.33301 -3.33301 17.5 -10 24.5s-14.667 10.5 -24 10.5c-8 0 -14.5 -1.83301 -19.5 -5.5s-15.833 -13.834 -32.5 -30.501l-134 -133h35z" />
    <glyph glyph-name="Ecircumflex" unicode="&#xca;" 
d="M188 385c-0.666992 35.333 -0.995117 78.6641 -0.995117 129.997v67c0 12 0.666992 28 2 48c22 1.33301 38.5 2 49.5 2h47.5c39.333 0 70 -1 92 -3s44.333 -5.33301 67 -10l-1 3c-2 10.667 -3 20.334 -3 29.001s1.33301 20.334 4 35.001
c-40.667 -4 -91.334 -6 -152.001 -6c-92.667 0 -162.334 2 -209.001 6c2.66699 -46 4.66699 -99.833 6 -161.5s2 -118.834 2 -171.501c0 -58 -0.333008 -104.5 -1 -139.5s-1.33398 -65 -2.00098 -90s-1.66699 -45.833 -3 -62.5s-3 -38.667 -5 -66c102.667 4 180 6 232 6
c62 0 108.333 -2 139 -6l-1 3c-2 10.667 -3 20.334 -3 29.001s1 18.667 3 30l1 4c-52 -5.33301 -97.5 -8.66602 -136.5 -9.99902s-81.167 -2 -126.5 -2c-0.666992 20 -1.33398 45.167 -2.00098 75.5s-1 56.833 -1 79.5c0 30 0.666992 73.667 2 131
c33.333 1.33301 60.333 2 81 2c22.667 0 48 -0.833008 76 -2.5s54.333 -4.16699 79 -7.5c0 2.66699 -0.666992 7 -2 13c-1.33301 7.33301 -2 13.333 -2 18c0 8.66699 1 18.667 3 30l1 4c-43.333 -5.33301 -97 -8 -161 -8c-12.667 0 -25.334 0.333008 -38.001 1h-37z
M114.005 726.998h34l117 105l117 -105h33l-122 167h-56z" />
    <glyph glyph-name="Edieresis" unicode="&#xcb;" 
d="M188 385c-0.666992 35.333 -0.995117 78.6641 -0.995117 129.997v67c0 12 0.666992 28 2 48c22 1.33301 38.5 2 49.5 2h47.5c39.333 0 70 -1 92 -3s44.333 -5.33301 67 -10l-1 3c-2 10.667 -3 20.334 -3 29.001s1.33301 20.334 4 35.001
c-40.667 -4 -91.334 -6 -152.001 -6c-92.667 0 -162.334 2 -209.001 6c2.66699 -46 4.66699 -99.833 6 -161.5s2 -118.834 2 -171.501c0 -58 -0.333008 -104.5 -1 -139.5s-1.33398 -65 -2.00098 -90s-1.66699 -45.833 -3 -62.5s-3 -38.667 -5 -66c102.667 4 180 6 232 6
c62 0 108.333 -2 139 -6l-1 3c-2 10.667 -3 20.334 -3 29.001s1 18.667 3 30l1 4c-52 -5.33301 -97.5 -8.66602 -136.5 -9.99902s-81.167 -2 -126.5 -2c-0.666992 20 -1.33398 45.167 -2.00098 75.5s-1 56.833 -1 79.5c0 30 0.666992 73.667 2 131
c33.333 1.33301 60.333 2 81 2c22.667 0 48 -0.833008 76 -2.5s54.333 -4.16699 79 -7.5c0 2.66699 -0.666992 7 -2 13c-1.33301 7.33301 -2 13.333 -2 18c0 8.66699 1 18.667 3 30l1 4c-43.333 -5.33301 -97 -8 -161 -8c-12.667 0 -25.334 0.333008 -38.001 1h-37z
M316.005 792.998c0 -13.333 4.5 -24.5 13.5 -33.5s19.833 -13.5 32.5 -13.5s23.667 4.66699 33 14s14 20.333 14 33s-4.66699 23.5 -14 32.5s-20.333 13.5 -33 13.5s-23.5 -4.5 -32.5 -13.5s-13.5 -19.833 -13.5 -32.5zM120.005 792.998c0 -13.333 4.5 -24.5 13.5 -33.5
s19.833 -13.5 32.5 -13.5s23.667 4.66699 33 14s14 20.333 14 33s-4.66699 23.5 -14 32.5s-20.333 13.5 -33 13.5s-23.5 -4.5 -32.5 -13.5s-13.5 -19.833 -13.5 -32.5z" />
    <glyph glyph-name="Igrave" unicode="&#xcc;" horiz-adv-x="333" 
d="M118 351c0 -48 -0.166016 -88.5 -0.499023 -121.5s-1 -62.167 -2 -87.5s-2.16699 -50.166 -3.5 -74.499l-4 -72.5h2c20 4 37 6 51 6c16 0 36.667 -2 62 -6l-1 20c-2 52 -3.5 99.167 -4.5 141.5s-1.5 100.166 -1.5 173.499c0 132 2.66699 251 8 357
c-9.33301 -2 -18 -3.5 -26 -4.5s-18.667 -1.5 -32 -1.5c-12.667 0 -22.834 0.5 -30.501 1.5s-15.834 2.5 -24.501 4.5c2 -54 3.33301 -91.5 4 -112.5s1.33398 -44.5 2.00098 -70.5c0.666992 -28.667 1 -79.667 1 -153zM240.001 727l-134.999 132.999
c-16.667 16.667 -27.5 26.834 -32.5 30.501s-11.167 5.5 -18.5 5.5c-9.33301 0 -17.333 -3.5 -24 -10.5s-10 -15.167 -10 -24.5c0 -5.33301 1.16699 -10.5 3.5 -15.5s7.16602 -9.83301 14.499 -14.5l167 -104h35z" />
    <glyph glyph-name="Iacute" unicode="&#xcd;" horiz-adv-x="333" 
d="M118 351c0 -48 -0.166016 -88.5 -0.499023 -121.5s-1 -62.167 -2 -87.5s-2.16699 -50.166 -3.5 -74.499l-4 -72.5h2c20 4 37 6 51 6c16 0 36.667 -2 62 -6l-1 20c-2 52 -3.5 99.167 -4.5 141.5s-1.5 100.166 -1.5 173.499c0 132 2.66699 251 8 357
c-9.33301 -2 -18 -3.5 -26 -4.5s-18.667 -1.5 -32 -1.5c-12.667 0 -22.834 0.5 -30.501 1.5s-15.834 2.5 -24.501 4.5c2 -54 3.33301 -91.5 4 -112.5s1.33398 -44.5 2.00098 -70.5c0.666992 -28.667 1 -79.667 1 -153zM129.001 727l166 104.001c12.667 8 19 18 19 30
c0 9.33301 -3.33301 17.5 -10 24.5s-14.667 10.5 -24 10.5c-8 0 -14.5 -1.83301 -19.5 -5.5s-15.833 -13.834 -32.5 -30.501l-134 -133h35z" />
    <glyph glyph-name="Icircumflex" unicode="&#xce;" horiz-adv-x="333" 
d="M118 351c0 -48 -0.166016 -88.5 -0.499023 -121.5s-1 -62.167 -2 -87.5s-2.16699 -50.166 -3.5 -74.499l-4 -72.5h2c20 4 37 6 51 6c16 0 36.667 -2 62 -6l-1 20c-2 52 -3.5 99.167 -4.5 141.5s-1.5 100.166 -1.5 173.499c0 132 2.66699 251 8 357
c-9.33301 -2 -18 -3.5 -26 -4.5s-18.667 -1.5 -32 -1.5c-12.667 0 -22.834 0.5 -30.501 1.5s-15.834 2.5 -24.501 4.5c2 -54 3.33301 -91.5 4 -112.5s1.33398 -44.5 2.00098 -70.5c0.666992 -28.667 1 -79.667 1 -153zM16.001 727h34l117 105l117 -105h33l-122 167h-56z" />
    <glyph glyph-name="Idieresis" unicode="&#xcf;" horiz-adv-x="333" 
d="M118 351c0 -48 -0.166016 -88.5 -0.499023 -121.5s-1 -62.167 -2 -87.5s-2.16699 -50.166 -3.5 -74.499l-4 -72.5h2c20 4 37 6 51 6c16 0 36.667 -2 62 -6l-1 20c-2 52 -3.5 99.167 -4.5 141.5s-1.5 100.166 -1.5 173.499c0 132 2.66699 251 8 357
c-9.33301 -2 -18 -3.5 -26 -4.5s-18.667 -1.5 -32 -1.5c-12.667 0 -22.834 0.5 -30.501 1.5s-15.834 2.5 -24.501 4.5c2 -54 3.33301 -91.5 4 -112.5s1.33398 -44.5 2.00098 -70.5c0.666992 -28.667 1 -79.667 1 -153zM218.001 793c0 -13.333 4.5 -24.5 13.5 -33.5
s19.833 -13.5 32.5 -13.5s23.667 4.66699 33 14s14 20.333 14 33s-4.66699 23.5 -14 32.5s-20.333 13.5 -33 13.5s-23.5 -4.5 -32.5 -13.5s-13.5 -19.833 -13.5 -32.5zM22.001 793c0 -13.333 4.5 -24.5 13.5 -33.5s19.833 -13.5 32.5 -13.5s23.667 4.66699 33 14
s14 20.333 14 33s-4.66699 23.5 -14 32.5s-20.333 13.5 -33 13.5s-23.5 -4.5 -32.5 -13.5s-13.5 -19.833 -13.5 -32.5z" />
    <glyph glyph-name="Eth" unicode="&#xd0;" horiz-adv-x="778" 
d="M725 360c0 49.333 -8.33008 95.6689 -24.9971 139.002s-45 81 -85 113c-22.667 18 -46.167 32.167 -70.5 42.5s-50.333 17.666 -78 21.999s-57.167 7 -88.5 8s-75 1.5 -131 1.5c-54 0 -108.667 1 -164 3c4.66699 -74.667 7 -171.334 7 -290.001c-30 0 -60.667 1 -92 3
c1.33301 -6 2 -14 2 -24c0 -9.33301 -0.666992 -18 -2 -26c10.667 0.666992 21 1 31 1c27.333 1.33301 47.666 2 60.999 2c0 -88.667 -0.666992 -153 -2 -193c-0.666992 -22.667 -1.66699 -47.167 -3 -73.5s-3.33301 -57.5 -6 -93.5l67 3c14.667 0.666992 28 1 40 1
c6 0 17.667 -0.166992 35 -0.5s41.666 -1.16602 72.999 -2.49902c32 -0.666992 49 -1 51 -1c51.333 0 99.666 7.33301 144.999 22s85.833 37 121.5 67s63.5 68.167 83.5 114.5s30 100.166 30 161.499zM614.003 348.003c0 -22 -1.66504 -44.501 -4.99805 -67.501
s-9 -46.167 -17 -69.5s-19.5 -45.666 -34.5 -66.999s-33.5 -39.666 -55.5 -54.999c-16 -11.333 -33.5 -20.333 -52.5 -27s-37.833 -11.5 -56.5 -14.5s-35.667 -4.83301 -51 -5.5s-31.333 -1 -48 -1c-22 0 -40.5 0.5 -55.5 1.5s-31.833 2.5 -50.5 4.5
c-0.666992 17.333 -1.33398 36.333 -2.00098 57s-1 35 -1 43v208c76 0 135 -1 177 -3c-1.33301 8 -2 15.333 -2 22c0 8 0.666992 16.667 2 26v2c-42 -2 -101 -3 -177 -3c0 92 1.66699 171 5 237h5c16 2 28.333 3.16699 37 3.5s24 0.5 46 0.5c54 0 98.833 -3 134.5 -9
s69.167 -20.667 100.5 -44c20 -14.667 36.667 -31.834 50 -51.501s23.666 -40 30.999 -61s12.5 -42.167 15.5 -63.5s4.5 -42.333 4.5 -63z" />
    <glyph glyph-name="Ntilde" unicode="&#xd1;" horiz-adv-x="778" 
d="M149 512l194.999 -202.998l51 -50c16 -14.667 36.167 -34.667 60.5 -60l77 -82l70.5 -78c20 -22.667 34.333 -39.334 43 -50.001c1.33301 0 3.33301 0.333008 6 1c4.66699 0.666992 8 1 10 1c3.33301 0 7.66602 -0.333008 12.999 -1c0.666992 0 2.66699 -0.333008 6 -1
c-2 31.333 -3.16699 69.333 -3.5 114s-0.5 96.334 -0.5 155.001c0 96 1 176 3 240s6.66699 128.333 14 193c-17.333 -4 -31.666 -6 -42.999 -6s-24.333 2 -39 6c3.33301 -38 5.83301 -72.833 7.5 -104.5s2.83398 -64.5 3.50098 -98.5c1.33301 -48 2 -143 2 -285v-37
l-66.5 68l-58.5 60.5l-153 160.5l-71 75l-64.5 69l-47.5 53l-33 39c-4 -0.666992 -6.33301 -1 -7 -1c-6 -0.666992 -10.667 -1 -14 -1c-2.66699 0 -7 0.666992 -13 2h-3v-120c0 -10.667 0.333008 -50.334 1 -119.001c1.33301 -72.667 2 -116.334 2 -131.001
c0 -24.667 -0.333008 -52.5 -1 -83.5s-1.83398 -64 -3.50098 -99s-3.16699 -64.833 -4.5 -89.5s-2.66602 -42.667 -3.99902 -54l5 1c12 3.33301 23.333 5 34 5c12 0 26 -2 42 -6c-0.666992 8 -1 16.667 -1 26c-2.66699 38.667 -4.66699 71.167 -6 97.5
s-2.5 54.833 -3.5 85.5s-2 64 -3 100s-1.83301 84.333 -2.5 145v63zM257.999 752.002c5.33301 18.667 13.501 30.999 24.501 36.999s21.167 9 30.5 9c11.333 0 27 -5 47 -15l35 -17c18.667 -9.33301 37.667 -14 57 -14c16 0 30.167 3.5 42.5 10.5s22.833 16 31.5 27
s15.5 22.167 20.5 33.5s8.5 21.666 10.5 30.999h-29c-6 -14.667 -13.333 -26.667 -22 -36s-20 -14 -34 -14c-8 0 -14.833 1 -20.5 3s-15.834 6.33301 -30.501 13l-3 1c-1.33301 0.666992 -2.33301 1.33398 -3 2.00098c-28 12.667 -45.833 20.334 -53.5 23.001
s-16.5 4 -26.5 4c-24.667 0 -47 -9 -67 -27s-32.333 -41.667 -37 -71h27z" />
    <glyph glyph-name="Ograve" unicode="&#xd2;" horiz-adv-x="889" 
d="M450 696c-60 0 -114.001 -8.66797 -162.001 -26.001s-88.667 -42 -122 -74s-58.666 -70 -75.999 -114s-26 -92.667 -26 -146c0 -54.667 9.16699 -104 27.5 -148s44.5 -81.5 78.5 -112.5s74 -54.667 120 -71s96 -24.5 150 -24.5c58.667 0 111.834 9.16699 159.501 27.5
s88.5 44.166 122.5 77.499s59.833 72.5 77.5 117.5s26.5 93.5 26.5 145.5c0 54.667 -9.5 103.834 -28.5 147.501s-45.667 80.334 -80 110.001s-74.333 52.167 -120 67.5s-94.834 23 -147.501 23zM177.999 336.999c0 54 7.33301 101.335 22 142.002s34.667 73.667 60 99
s53.833 44.166 85.5 56.499s64.834 18.5 99.501 18.5c18.667 0 38.167 -2 58.5 -6s40.5 -10.5 60.5 -19.5s39.167 -21.167 57.5 -36.5s33.833 -34 46.5 -56c16 -26.667 27.333 -57.5 34 -92.5s10 -68.167 10 -99.5c0 -100.667 -24.833 -179.167 -74.5 -235.5
s-114.834 -84.5 -195.501 -84.5c-38 0 -73.333 7.16699 -106 21.5s-60.667 35.166 -84 62.499s-41.5 60.5 -54.5 99.5s-19.5 82.5 -19.5 130.5zM517.999 727.001l-134.999 132.999c-16.667 16.667 -27.5 26.834 -32.5 30.501s-11.167 5.5 -18.5 5.5
c-9.33301 0 -17.333 -3.5 -24 -10.5s-10 -15.167 -10 -24.5c0 -5.33301 1.16699 -10.5 3.5 -15.5s7.16602 -9.83301 14.499 -14.5l167 -104h35z" />
    <glyph glyph-name="Oacute" unicode="&#xd3;" horiz-adv-x="889" 
d="M450 696c-60 0 -114.001 -8.66797 -162.001 -26.001s-88.667 -42 -122 -74s-58.666 -70 -75.999 -114s-26 -92.667 -26 -146c0 -54.667 9.16699 -104 27.5 -148s44.5 -81.5 78.5 -112.5s74 -54.667 120 -71s96 -24.5 150 -24.5c58.667 0 111.834 9.16699 159.501 27.5
s88.5 44.166 122.5 77.499s59.833 72.5 77.5 117.5s26.5 93.5 26.5 145.5c0 54.667 -9.5 103.834 -28.5 147.501s-45.667 80.334 -80 110.001s-74.333 52.167 -120 67.5s-94.834 23 -147.501 23zM177.999 336.999c0 54 7.33301 101.335 22 142.002s34.667 73.667 60 99
s53.833 44.166 85.5 56.499s64.834 18.5 99.501 18.5c18.667 0 38.167 -2 58.5 -6s40.5 -10.5 60.5 -19.5s39.167 -21.167 57.5 -36.5s33.833 -34 46.5 -56c16 -26.667 27.333 -57.5 34 -92.5s10 -68.167 10 -99.5c0 -100.667 -24.833 -179.167 -74.5 -235.5
s-114.834 -84.5 -195.501 -84.5c-38 0 -73.333 7.16699 -106 21.5s-60.667 35.166 -84 62.499s-41.5 60.5 -54.5 99.5s-19.5 82.5 -19.5 130.5zM406.999 727.001l166 104.001c12.667 8 19 18 19 30c0 9.33301 -3.33301 17.5 -10 24.5s-14.667 10.5 -24 10.5
c-8 0 -14.5 -1.83301 -19.5 -5.5s-15.833 -13.834 -32.5 -30.501l-134 -133h35z" />
    <glyph glyph-name="Ocircumflex" unicode="&#xd4;" horiz-adv-x="889" 
d="M450 696c-60 0 -114.001 -8.66797 -162.001 -26.001s-88.667 -42 -122 -74s-58.666 -70 -75.999 -114s-26 -92.667 -26 -146c0 -54.667 9.16699 -104 27.5 -148s44.5 -81.5 78.5 -112.5s74 -54.667 120 -71s96 -24.5 150 -24.5c58.667 0 111.834 9.16699 159.501 27.5
s88.5 44.166 122.5 77.499s59.833 72.5 77.5 117.5s26.5 93.5 26.5 145.5c0 54.667 -9.5 103.834 -28.5 147.501s-45.667 80.334 -80 110.001s-74.333 52.167 -120 67.5s-94.834 23 -147.501 23zM177.999 336.999c0 54 7.33301 101.335 22 142.002s34.667 73.667 60 99
s53.833 44.166 85.5 56.499s64.834 18.5 99.501 18.5c18.667 0 38.167 -2 58.5 -6s40.5 -10.5 60.5 -19.5s39.167 -21.167 57.5 -36.5s33.833 -34 46.5 -56c16 -26.667 27.333 -57.5 34 -92.5s10 -68.167 10 -99.5c0 -100.667 -24.833 -179.167 -74.5 -235.5
s-114.834 -84.5 -195.501 -84.5c-38 0 -73.333 7.16699 -106 21.5s-60.667 35.166 -84 62.499s-41.5 60.5 -54.5 99.5s-19.5 82.5 -19.5 130.5zM293.999 727.001h34l117 105l117 -105h33l-122 167h-56z" />
    <glyph glyph-name="Otilde" unicode="&#xd5;" horiz-adv-x="889" 
d="M450 696c-60 0 -114.001 -8.66797 -162.001 -26.001s-88.667 -42 -122 -74s-58.666 -70 -75.999 -114s-26 -92.667 -26 -146c0 -54.667 9.16699 -104 27.5 -148s44.5 -81.5 78.5 -112.5s74 -54.667 120 -71s96 -24.5 150 -24.5c58.667 0 111.834 9.16699 159.501 27.5
s88.5 44.166 122.5 77.499s59.833 72.5 77.5 117.5s26.5 93.5 26.5 145.5c0 54.667 -9.5 103.834 -28.5 147.501s-45.667 80.334 -80 110.001s-74.333 52.167 -120 67.5s-94.834 23 -147.501 23zM177.999 336.999c0 54 7.33301 101.335 22 142.002s34.667 73.667 60 99
s53.833 44.166 85.5 56.499s64.834 18.5 99.501 18.5c18.667 0 38.167 -2 58.5 -6s40.5 -10.5 60.5 -19.5s39.167 -21.167 57.5 -36.5s33.833 -34 46.5 -56c16 -26.667 27.333 -57.5 34 -92.5s10 -68.167 10 -99.5c0 -100.667 -24.833 -179.167 -74.5 -235.5
s-114.834 -84.5 -195.501 -84.5c-38 0 -73.333 7.16699 -106 21.5s-60.667 35.166 -84 62.499s-41.5 60.5 -54.5 99.5s-19.5 82.5 -19.5 130.5zM308.999 752.001c5.33301 18.667 13.501 30.999 24.501 36.999s21.167 9 30.5 9c11.333 0 27 -5 47 -15l35 -17
c18.667 -9.33301 37.667 -14 57 -14c16 0 30.167 3.5 42.5 10.5s22.833 16 31.5 27s15.5 22.167 20.5 33.5s8.5 21.666 10.5 30.999h-29c-6 -14.667 -13.333 -26.667 -22 -36s-20 -14 -34 -14c-8 0 -14.833 1 -20.5 3s-15.834 6.33301 -30.501 13l-3 1
c-1.33301 0.666992 -2.33301 1.33398 -3 2.00098c-28 12.667 -45.833 20.334 -53.5 23.001s-16.5 4 -26.5 4c-24.667 0 -47 -9 -67 -27s-32.333 -41.667 -37 -71h27z" />
    <glyph glyph-name="Odieresis" unicode="&#xd6;" horiz-adv-x="889" 
d="M450 696c-60 0 -114.001 -8.66797 -162.001 -26.001s-88.667 -42 -122 -74s-58.666 -70 -75.999 -114s-26 -92.667 -26 -146c0 -54.667 9.16699 -104 27.5 -148s44.5 -81.5 78.5 -112.5s74 -54.667 120 -71s96 -24.5 150 -24.5c58.667 0 111.834 9.16699 159.501 27.5
s88.5 44.166 122.5 77.499s59.833 72.5 77.5 117.5s26.5 93.5 26.5 145.5c0 54.667 -9.5 103.834 -28.5 147.501s-45.667 80.334 -80 110.001s-74.333 52.167 -120 67.5s-94.834 23 -147.501 23zM177.999 336.999c0 54 7.33301 101.335 22 142.002s34.667 73.667 60 99
s53.833 44.166 85.5 56.499s64.834 18.5 99.501 18.5c18.667 0 38.167 -2 58.5 -6s40.5 -10.5 60.5 -19.5s39.167 -21.167 57.5 -36.5s33.833 -34 46.5 -56c16 -26.667 27.333 -57.5 34 -92.5s10 -68.167 10 -99.5c0 -100.667 -24.833 -179.167 -74.5 -235.5
s-114.834 -84.5 -195.501 -84.5c-38 0 -73.333 7.16699 -106 21.5s-60.667 35.166 -84 62.499s-41.5 60.5 -54.5 99.5s-19.5 82.5 -19.5 130.5zM495.999 793.001c0 -13.333 4.5 -24.5 13.5 -33.5s19.833 -13.5 32.5 -13.5s23.667 4.66699 33 14s14 20.333 14 33
s-4.66699 23.5 -14 32.5s-20.333 13.5 -33 13.5s-23.5 -4.5 -32.5 -13.5s-13.5 -19.833 -13.5 -32.5zM299.999 793.001c0 -13.333 4.5 -24.5 13.5 -33.5s19.833 -13.5 32.5 -13.5s23.667 4.66699 33 14s14 20.333 14 33s-4.66699 23.5 -14 32.5s-20.333 13.5 -33 13.5
s-23.5 -4.5 -32.5 -13.5s-13.5 -19.833 -13.5 -32.5z" />
    <glyph glyph-name="multiply" unicode="&#xd7;" horiz-adv-x="593" 
d="M59 53l46 -45l192 193l192 -193l45 45l-192 193l192 191l-45 45l-192 -192l-193 193l-45 -45l193 -193z" />
    <glyph glyph-name="Oslash" unicode="&#xd8;" horiz-adv-x="889" 
d="M671 639c-32.667 19.333 -68.166 33.6689 -106.499 43.002s-78.166 14 -119.499 14c-54 0 -104.333 -7.83301 -151 -23.5s-87.167 -39 -121.5 -70s-61 -69 -80 -114s-28.5 -95.833 -28.5 -152.5c0 -60 9.5 -110.5 28.5 -151.5s45.833 -78.167 80.5 -111.5l-43 -46
c-9.33301 -9.33301 -28 -29 -56 -59c9.33301 -6 16.166 -11 20.499 -15s9.16602 -10 14.499 -18l31.5 37.5l33.5 38.5l32 37c17.333 -12 33.333 -21.667 48 -29c22 -10.667 49 -19.834 81 -27.501s67 -11.5 105 -11.5c58 0 111 9.16699 159 27.5s88.833 44.166 122.5 77.499
s59.5 72.5 77.5 117.5s27 93.5 27 145.5c0 36.667 -3.83301 69.5 -11.5 98.5s-17.5 53.833 -29.5 74.5s-23.833 37.667 -35.5 51s-25.167 27 -40.5 41c14 16 24.833 28 32.5 36l33.5 36l19 20l-3 2c-10.667 7.33301 -17.667 12.5 -21 15.5s-8.33301 8.83301 -15 17.5
c-26.667 -30.667 -42.5 -49.167 -47.5 -55.5l-13.5 -17zM712.001 343.003c0 -44.667 -5.8291 -86.332 -17.4961 -124.999s-28.834 -72.5 -51.501 -101.5s-50.834 -51.667 -84.501 -68s-71.834 -24.5 -114.501 -24.5c-26.667 0 -50.667 2.83301 -72 8.5
s-39.333 12.667 -54 21s-26.5 16.166 -35.5 23.499s-18.167 16 -27.5 26v0l120 136.5l80.5 91l97.5 109l102 113.5c15.333 -24 26.666 -46 33.999 -66c15.333 -46 23 -94 23 -144zM178.005 337.005c0 17.333 1.00098 35.667 3.00098 55s5.66699 39.5 11 60.5
s13.166 42 23.499 63s23.166 39.833 38.499 56.5c22.667 25.333 50.834 45.166 84.501 59.499s68.834 21.5 105.501 21.5c33.333 0 65.666 -5.66699 96.999 -17s59.333 -27.666 84 -48.999l-211.5 -243.5l-183.5 -206.5c-14 22 -26.167 48.167 -36.5 78.5
s-15.5 70.833 -15.5 121.5z" />
    <glyph glyph-name="Ugrave" unicode="&#xd9;" horiz-adv-x="778" 
d="M98 273c0 -48 2.66797 -85.998 8.00098 -113.998s16.666 -53.667 33.999 -77c14.667 -20 31.834 -36.5 51.501 -49.5s40.5 -23.333 62.5 -31s43.833 -13 65.5 -16s43.167 -4.5 64.5 -4.5c53.333 0 97.5 7 132.5 21s64.167 33.333 87.5 58
c16 16.667 28.833 35.5 38.5 56.5s17 43.5 22 67.5s8.16699 47.667 9.5 71s2 49.666 2 78.999c0 78 1.33301 145.333 4 202s7 107 13 151l-3 -1c-6.66699 -1.33301 -12.834 -2.5 -18.501 -3.5s-13.167 -1.5 -22.5 -1.5c-10 0 -18 0.5 -24 1.5l-20 3.5l-3 1
c2 -14.667 4 -36.667 6 -66s3.5 -59.5 4.5 -90.5s1.83301 -60.333 2.5 -88s1 -46.167 1 -55.5c0 -8.66699 -0.166992 -21 -0.5 -37s-1 -33.667 -2 -53s-2.66699 -39.5 -5 -60.5s-5.5 -39.5 -9.5 -55.5c-7.33301 -32 -20 -58.167 -38 -78.5s-37.5 -35.333 -58.5 -45
s-40 -15.834 -57 -18.501s-31.5 -4 -43.5 -4c-32 0 -62.667 6 -92 18s-52 27.667 -68 47c-18.667 22.667 -30.667 51.667 -36 87s-8 88 -8 158c0 42 0.333008 85.333 1 130c0.666992 35.333 1.66699 72.5 3 111.5s3 72.5 5 100.5c-22.667 -4 -42 -6 -58 -6
c-11.333 0 -30 2 -56 6h-3c2 -34 3.5 -62 4.5 -84s1.83301 -45 2.5 -69c0.666992 -36 1 -123 1 -261zM462.001 727.002l-134.999 132.999c-16.667 16.667 -27.5 26.834 -32.5 30.501s-11.167 5.5 -18.5 5.5c-9.33301 0 -17.333 -3.5 -24 -10.5s-10 -15.167 -10 -24.5
c0 -5.33301 1.16699 -10.5 3.5 -15.5s7.16602 -9.83301 14.499 -14.5l167 -104h35z" />
    <glyph glyph-name="Uacute" unicode="&#xda;" horiz-adv-x="778" 
d="M98 273c0 -48 2.66797 -85.998 8.00098 -113.998s16.666 -53.667 33.999 -77c14.667 -20 31.834 -36.5 51.501 -49.5s40.5 -23.333 62.5 -31s43.833 -13 65.5 -16s43.167 -4.5 64.5 -4.5c53.333 0 97.5 7 132.5 21s64.167 33.333 87.5 58
c16 16.667 28.833 35.5 38.5 56.5s17 43.5 22 67.5s8.16699 47.667 9.5 71s2 49.666 2 78.999c0 78 1.33301 145.333 4 202s7 107 13 151l-3 -1c-6.66699 -1.33301 -12.834 -2.5 -18.501 -3.5s-13.167 -1.5 -22.5 -1.5c-10 0 -18 0.5 -24 1.5l-20 3.5l-3 1
c2 -14.667 4 -36.667 6 -66s3.5 -59.5 4.5 -90.5s1.83301 -60.333 2.5 -88s1 -46.167 1 -55.5c0 -8.66699 -0.166992 -21 -0.5 -37s-1 -33.667 -2 -53s-2.66699 -39.5 -5 -60.5s-5.5 -39.5 -9.5 -55.5c-7.33301 -32 -20 -58.167 -38 -78.5s-37.5 -35.333 -58.5 -45
s-40 -15.834 -57 -18.501s-31.5 -4 -43.5 -4c-32 0 -62.667 6 -92 18s-52 27.667 -68 47c-18.667 22.667 -30.667 51.667 -36 87s-8 88 -8 158c0 42 0.333008 85.333 1 130c0.666992 35.333 1.66699 72.5 3 111.5s3 72.5 5 100.5c-22.667 -4 -42 -6 -58 -6
c-11.333 0 -30 2 -56 6h-3c2 -34 3.5 -62 4.5 -84s1.83301 -45 2.5 -69c0.666992 -36 1 -123 1 -261zM356.001 727.002l166 104.001c12.667 8 19 18 19 30c0 9.33301 -3.33301 17.5 -10 24.5s-14.667 10.5 -24 10.5c-8 0 -14.5 -1.83301 -19.5 -5.5
s-15.833 -13.834 -32.5 -30.501l-134 -133h35z" />
    <glyph glyph-name="Ucircumflex" unicode="&#xdb;" horiz-adv-x="778" 
d="M98 273c0 -48 2.66797 -85.998 8.00098 -113.998s16.666 -53.667 33.999 -77c14.667 -20 31.834 -36.5 51.501 -49.5s40.5 -23.333 62.5 -31s43.833 -13 65.5 -16s43.167 -4.5 64.5 -4.5c53.333 0 97.5 7 132.5 21s64.167 33.333 87.5 58
c16 16.667 28.833 35.5 38.5 56.5s17 43.5 22 67.5s8.16699 47.667 9.5 71s2 49.666 2 78.999c0 78 1.33301 145.333 4 202s7 107 13 151l-3 -1c-6.66699 -1.33301 -12.834 -2.5 -18.501 -3.5s-13.167 -1.5 -22.5 -1.5c-10 0 -18 0.5 -24 1.5l-20 3.5l-3 1
c2 -14.667 4 -36.667 6 -66s3.5 -59.5 4.5 -90.5s1.83301 -60.333 2.5 -88s1 -46.167 1 -55.5c0 -8.66699 -0.166992 -21 -0.5 -37s-1 -33.667 -2 -53s-2.66699 -39.5 -5 -60.5s-5.5 -39.5 -9.5 -55.5c-7.33301 -32 -20 -58.167 -38 -78.5s-37.5 -35.333 -58.5 -45
s-40 -15.834 -57 -18.501s-31.5 -4 -43.5 -4c-32 0 -62.667 6 -92 18s-52 27.667 -68 47c-18.667 22.667 -30.667 51.667 -36 87s-8 88 -8 158c0 42 0.333008 85.333 1 130c0.666992 35.333 1.66699 72.5 3 111.5s3 72.5 5 100.5c-22.667 -4 -42 -6 -58 -6
c-11.333 0 -30 2 -56 6h-3c2 -34 3.5 -62 4.5 -84s1.83301 -45 2.5 -69c0.666992 -36 1 -123 1 -261zM253.001 727.002h34l117 105l117 -105h33l-122 167h-56z" />
    <glyph glyph-name="Udieresis" unicode="&#xdc;" horiz-adv-x="778" 
d="M98 273c0 -48 2.66797 -85.998 8.00098 -113.998s16.666 -53.667 33.999 -77c14.667 -20 31.834 -36.5 51.501 -49.5s40.5 -23.333 62.5 -31s43.833 -13 65.5 -16s43.167 -4.5 64.5 -4.5c53.333 0 97.5 7 132.5 21s64.167 33.333 87.5 58
c16 16.667 28.833 35.5 38.5 56.5s17 43.5 22 67.5s8.16699 47.667 9.5 71s2 49.666 2 78.999c0 78 1.33301 145.333 4 202s7 107 13 151l-3 -1c-6.66699 -1.33301 -12.834 -2.5 -18.501 -3.5s-13.167 -1.5 -22.5 -1.5c-10 0 -18 0.5 -24 1.5l-20 3.5l-3 1
c2 -14.667 4 -36.667 6 -66s3.5 -59.5 4.5 -90.5s1.83301 -60.333 2.5 -88s1 -46.167 1 -55.5c0 -8.66699 -0.166992 -21 -0.5 -37s-1 -33.667 -2 -53s-2.66699 -39.5 -5 -60.5s-5.5 -39.5 -9.5 -55.5c-7.33301 -32 -20 -58.167 -38 -78.5s-37.5 -35.333 -58.5 -45
s-40 -15.834 -57 -18.501s-31.5 -4 -43.5 -4c-32 0 -62.667 6 -92 18s-52 27.667 -68 47c-18.667 22.667 -30.667 51.667 -36 87s-8 88 -8 158c0 42 0.333008 85.333 1 130c0.666992 35.333 1.66699 72.5 3 111.5s3 72.5 5 100.5c-22.667 -4 -42 -6 -58 -6
c-11.333 0 -30 2 -56 6h-3c2 -34 3.5 -62 4.5 -84s1.83301 -45 2.5 -69c0.666992 -36 1 -123 1 -261zM460.001 793.002c0 -13.333 4.5 -24.5 13.5 -33.5s19.833 -13.5 32.5 -13.5s23.667 4.66699 33 14s14 20.333 14 33s-4.66699 23.5 -14 32.5s-20.333 13.5 -33 13.5
s-23.5 -4.5 -32.5 -13.5s-13.5 -19.833 -13.5 -32.5zM264.001 793.002c0 -13.333 4.5 -24.5 13.5 -33.5s19.833 -13.5 32.5 -13.5s23.667 4.66699 33 14s14 20.333 14 33s-4.66699 23.5 -14 32.5s-20.333 13.5 -33 13.5s-23.5 -4.5 -32.5 -13.5s-13.5 -19.833 -13.5 -32.5z
" />
    <glyph glyph-name="Yacute" unicode="&#xdd;" horiz-adv-x="611" 
d="M363 227c0 26.667 0.334961 44.9932 1.00195 54.9932c0 0.666992 0.666992 2.33398 2 5.00098c6 14.667 11.667 26.667 17 36c10 18.667 25.333 45.334 46 80.001l70 114.5l67.5 106.5l41.5 63c-8.66699 -2 -16.167 -3.5 -22.5 -4.5s-13.833 -1.5 -22.5 -1.5
c-19.333 0 -35 2 -47 6c-38 -92 -84.333 -185.333 -139 -280c0 -0.666992 -1.33301 -3 -4 -7c-8 -14 -15.5 -26.5 -22.5 -37.5s-11.5 -16.5 -13.5 -16.5c-3.33301 0 -9.5 7.16699 -18.5 21.5s-19.833 32.5 -32.5 54.5c-29.333 50.667 -54.333 95.834 -75 135.501
s-40.334 82.834 -59.001 129.501c-20 -4 -43.333 -6 -70 -6c-9.33301 0 -19.666 0.333008 -30.999 1s-22.333 2.33398 -33 5.00098l43 -70.5l43.5 -72.5l67.5 -112.5l94 -157.5v-75c0.666992 -17.333 1 -33 1 -47c0 -32 -0.5 -59.667 -1.5 -83s-2.83301 -48 -5.5 -74
c7.33301 2.66699 15.166 4.33398 23.499 5.00098s20.5 1 36.5 1c20 0 36.667 -2 50 -6c-1.33301 20 -2.33301 40.333 -3 61s-1.33398 44.334 -2.00098 71.001c-1.33301 42 -2 75.333 -2 100zM293.002 726.993l166 104.001c12.667 8 19 18 19 30
c0 9.33301 -3.33301 17.5 -10 24.5s-14.667 10.5 -24 10.5c-8 0 -14.5 -1.83301 -19.5 -5.5s-15.833 -13.834 -32.5 -30.501l-134 -133h35z" />
    <glyph glyph-name="Thorn" unicode="&#xde;" horiz-adv-x="556" 
d="M190 566c0 3.33301 0.999023 25.9971 2.99902 67.9971c0.666992 24.667 1.33398 42.334 2.00098 53.001c-4 -0.666992 -8.33301 -1.33398 -13 -2.00098c-18.667 -2.66699 -33.334 -4 -44.001 -4c-10 0 -22.333 1.33301 -37 4l-15 2c2 -31.333 3.33301 -51.833 4 -61.5
s1.33398 -25.167 2.00098 -46.5s1.16699 -45.166 1.5 -71.499s0.5 -56.5 0.5 -90.5c0 -174.667 -2.66699 -315.334 -8 -422.001l3 1l23 3.5c6.66699 1 15.667 1.5 27 1.5c12 0 21.333 -0.333008 28 -1s14.667 -2 24 -4c2.66699 -0.666992 4.66699 -1 6 -1l-3.5 87.5
c-1 24.333 -1.83301 51.5 -2.5 81.5l-1 21h3c21.333 -1.33301 36 -2 44 -2c20 0 40 1 60 3s37.333 4.33301 52 7c34.667 6.66699 64.167 17.334 88.5 32.001s43.333 31.334 57 50.001s23.5 37.834 29.5 57.501s9 39.167 9 58.5c0 33.333 -8 63.5 -24 90.5
s-38.667 47.5 -68 61.5c-20.667 10 -42.5 16.333 -65.5 19s-51.833 4 -86.5 4h-99zM423.999 381.997c0 -32 -5.49805 -58.5 -16.498 -79.5s-25.833 -37 -44.5 -48s-39.334 -18.5 -62.001 -22.5s-47.334 -6 -74.001 -6c-4.66699 0 -11 0.333008 -19 1h-18v74
c-0.666992 32.667 -1 57 -1 73c0 16.667 0.333008 41 1 73v73c10 1.33301 19 2.33301 27 3s17.667 1 29 1c58.667 0 103 -11.5 133 -34.5s45 -58.833 45 -107.5z" />
    <glyph glyph-name="germandbls" unicode="&#xdf;" horiz-adv-x="611" 
d="M268 88c-2 -20.667 -4.5 -36.333 -7.5 -47s-6.83301 -21.334 -11.5 -32.001v0c14 -7.33301 28.5 -13.5 43.5 -18.5s33.5 -7.5 55.5 -7.5c28 0 54.667 5.5 80 16.5s47.5 25.667 66.5 44s34 39 45 62s16.5 46.167 16.5 69.5c0 21.333 -3.5 40.333 -10.5 57
s-16.667 31.5 -29 44.5s-25.833 24.833 -40.5 35.5s-34 23.334 -58 38.001l-1 1l-2 1c-14.667 9.33301 -28.167 19.5 -40.5 30.5s-18.5 22.833 -18.5 35.5c0 6.66699 2.66699 14.334 8 23.001c6 7.33301 13.667 16.166 23 26.499s17.666 19.166 24.999 26.499l1 1
c17.333 17.333 31.5 34.833 42.5 52.5s16.5 39.5 16.5 65.5c0 37.333 -15.167 67.5 -45.5 90.5s-68.833 34.5 -115.5 34.5c-34.667 0 -66.5 -6.16699 -95.5 -18.5s-53.167 -30.5 -72.5 -54.5c-12 -14 -21 -27.833 -27 -41.5s-10.333 -29.5 -13 -47.5
s-4.33398 -38.5 -5.00098 -61.5s-1 -58.833 -1 -107.5v-103c0 -111.333 -0.333008 -181 -1 -209c0 -18.667 -0.5 -36 -1.5 -52s-2.5 -32 -4.5 -48l4 1c10 1.33301 18.333 2.5 25 3.5s15.667 1.5 27 1.5s20.166 -0.5 26.499 -1.5s13.833 -2.5 22.5 -4.5
c-2 23.333 -3.5 54 -4.5 92s-1.5 78 -1.5 120c0 46.667 0.333008 109.334 1 188.001v153c0 22 2.33301 42.167 7 60.5s10.334 32.833 17.001 43.5c9.33301 15.333 22.166 27.166 38.499 35.499s33.833 12.5 52.5 12.5c29.333 0 53 -8.66699 71 -26s27 -42 27 -74
c0 -23.333 -5.16699 -44.666 -15.5 -63.999s-24.5 -39 -42.5 -59l-1 -1c-28.667 -31.333 -46.5 -52.5 -53.5 -63.5s-10.5 -23.5 -10.5 -37.5c0 -4 0.333008 -9.16699 1 -15.5s2.33398 -11.833 5.00098 -16.5c6 -12 16.833 -25.5 32.5 -40.5s31.834 -27.167 48.501 -36.5
c12.667 -7.33301 25 -15 37 -23s23.667 -17.667 35 -29s20.833 -24.333 28.5 -39s11.5 -30.667 11.5 -48c0 -10.667 -1.83301 -21.667 -5.5 -33s-9.5 -21.833 -17.5 -31.5s-18.667 -17.667 -32 -24s-29.666 -9.5 -48.999 -9.5c-24 0 -44.167 6 -60.5 18
s-28.5 25.333 -36.5 40z" />
    <glyph glyph-name="agrave" unicode="&#xe0;" 
d="M103 361l-0.00585938 0.994141c3.33301 7.33301 7.33301 14.833 12 22.5s11.167 15.5 19.5 23.5s19.333 14.5 33 19.5s30.167 7.5 49.5 7.5c33.333 0 60.333 -9.83301 81 -29.5s31 -46.167 31 -79.5c0 -14 -2.66699 -24.667 -8 -32s-15 -12.666 -29 -15.999l-87 -19
c-27.333 -6 -49.666 -11.667 -66.999 -17s-33.666 -13 -48.999 -23s-27.5 -23.333 -36.5 -40s-13.5 -37.667 -13.5 -63c0 -14.667 2.5 -29.667 7.5 -45s13 -29.666 24 -42.999s25.333 -24.166 43 -32.499s38.834 -12.5 63.501 -12.5c34.667 0 63.334 6.33301 86.001 19
s44.334 29.667 65.001 51c5.33301 -21.333 15 -37.5 29 -48.5s29.667 -16.5 47 -16.5c12 0 23.333 1.83301 34 5.5s23.334 9.16699 38.001 16.5l-1 28c-8 -3.33301 -16.333 -5 -25 -5c-17.333 0 -27.833 7.33301 -31.5 22s-5.5 46.334 -5.5 95.001
c0 10.667 0.666992 39.334 2 86.001c0.666992 22.667 1.16699 42.5 1.5 59.5s0.5 28.5 0.5 34.5c0 28 -3.5 50.5 -10.5 67.5s-17.167 31.833 -30.5 44.5c-18 16.667 -38.833 28.334 -62.5 35.001s-47.5 10 -71.5 10c-36 0 -66.5 -5.66699 -91.5 -17s-48.5 -26 -70.5 -44
l-4 -65h27zM326.994 134.994c0 -26.667 -11 -49.165 -33 -67.498s-46.333 -27.5 -73 -27.5c-21.333 0 -40.833 6.66699 -58.5 20s-26.5 34.666 -26.5 63.999c0 15.333 2.16699 28.666 6.5 39.999s13 22 26 32s32.333 19.167 58 27.5s59.167 15.5 100.5 21.5v-110z
M322.994 548.996l-134.999 132.999c-16.667 16.667 -27.5 26.834 -32.5 30.501s-11.167 5.5 -18.5 5.5c-9.33301 0 -17.333 -3.5 -24 -10.5s-10 -15.167 -10 -24.5c0 -5.33301 1.16699 -10.5 3.5 -15.5s7.16602 -9.83301 14.499 -14.5l167 -104h35z" />
    <glyph glyph-name="aacute" unicode="&#xe1;" 
d="M103 361l-0.00585938 0.994141c3.33301 7.33301 7.33301 14.833 12 22.5s11.167 15.5 19.5 23.5s19.333 14.5 33 19.5s30.167 7.5 49.5 7.5c33.333 0 60.333 -9.83301 81 -29.5s31 -46.167 31 -79.5c0 -14 -2.66699 -24.667 -8 -32s-15 -12.666 -29 -15.999l-87 -19
c-27.333 -6 -49.666 -11.667 -66.999 -17s-33.666 -13 -48.999 -23s-27.5 -23.333 -36.5 -40s-13.5 -37.667 -13.5 -63c0 -14.667 2.5 -29.667 7.5 -45s13 -29.666 24 -42.999s25.333 -24.166 43 -32.499s38.834 -12.5 63.501 -12.5c34.667 0 63.334 6.33301 86.001 19
s44.334 29.667 65.001 51c5.33301 -21.333 15 -37.5 29 -48.5s29.667 -16.5 47 -16.5c12 0 23.333 1.83301 34 5.5s23.334 9.16699 38.001 16.5l-1 28c-8 -3.33301 -16.333 -5 -25 -5c-17.333 0 -27.833 7.33301 -31.5 22s-5.5 46.334 -5.5 95.001
c0 10.667 0.666992 39.334 2 86.001c0.666992 22.667 1.16699 42.5 1.5 59.5s0.5 28.5 0.5 34.5c0 28 -3.5 50.5 -10.5 67.5s-17.167 31.833 -30.5 44.5c-18 16.667 -38.833 28.334 -62.5 35.001s-47.5 10 -71.5 10c-36 0 -66.5 -5.66699 -91.5 -17s-48.5 -26 -70.5 -44
l-4 -65h27zM326.994 134.994c0 -26.667 -11 -49.165 -33 -67.498s-46.333 -27.5 -73 -27.5c-21.333 0 -40.833 6.66699 -58.5 20s-26.5 34.666 -26.5 63.999c0 15.333 2.16699 28.666 6.5 39.999s13 22 26 32s32.333 19.167 58 27.5s59.167 15.5 100.5 21.5v-110z
M211.994 548.996l166 104.001c12.667 8 19 18 19 30c0 9.33301 -3.33301 17.5 -10 24.5s-14.667 10.5 -24 10.5c-8 0 -14.5 -1.83301 -19.5 -5.5s-15.833 -13.834 -32.5 -30.501l-134 -133h35z" />
    <glyph glyph-name="acircumflex" unicode="&#xe2;" 
d="M103 361l-0.00585938 0.994141c3.33301 7.33301 7.33301 14.833 12 22.5s11.167 15.5 19.5 23.5s19.333 14.5 33 19.5s30.167 7.5 49.5 7.5c33.333 0 60.333 -9.83301 81 -29.5s31 -46.167 31 -79.5c0 -14 -2.66699 -24.667 -8 -32s-15 -12.666 -29 -15.999l-87 -19
c-27.333 -6 -49.666 -11.667 -66.999 -17s-33.666 -13 -48.999 -23s-27.5 -23.333 -36.5 -40s-13.5 -37.667 -13.5 -63c0 -14.667 2.5 -29.667 7.5 -45s13 -29.666 24 -42.999s25.333 -24.166 43 -32.499s38.834 -12.5 63.501 -12.5c34.667 0 63.334 6.33301 86.001 19
s44.334 29.667 65.001 51c5.33301 -21.333 15 -37.5 29 -48.5s29.667 -16.5 47 -16.5c12 0 23.333 1.83301 34 5.5s23.334 9.16699 38.001 16.5l-1 28c-8 -3.33301 -16.333 -5 -25 -5c-17.333 0 -27.833 7.33301 -31.5 22s-5.5 46.334 -5.5 95.001
c0 10.667 0.666992 39.334 2 86.001c0.666992 22.667 1.16699 42.5 1.5 59.5s0.5 28.5 0.5 34.5c0 28 -3.5 50.5 -10.5 67.5s-17.167 31.833 -30.5 44.5c-18 16.667 -38.833 28.334 -62.5 35.001s-47.5 10 -71.5 10c-36 0 -66.5 -5.66699 -91.5 -17s-48.5 -26 -70.5 -44
l-4 -65h27zM326.994 134.994c0 -26.667 -11 -49.165 -33 -67.498s-46.333 -27.5 -73 -27.5c-21.333 0 -40.833 6.66699 -58.5 20s-26.5 34.666 -26.5 63.999c0 15.333 2.16699 28.666 6.5 39.999s13 22 26 32s32.333 19.167 58 27.5s59.167 15.5 100.5 21.5v-110z
M98.9941 548.996h34l117 105l117 -105h33l-122 167h-56z" />
    <glyph glyph-name="atilde" unicode="&#xe3;" 
d="M103 361l-0.00585938 0.994141c3.33301 7.33301 7.33301 14.833 12 22.5s11.167 15.5 19.5 23.5s19.333 14.5 33 19.5s30.167 7.5 49.5 7.5c33.333 0 60.333 -9.83301 81 -29.5s31 -46.167 31 -79.5c0 -14 -2.66699 -24.667 -8 -32s-15 -12.666 -29 -15.999l-87 -19
c-27.333 -6 -49.666 -11.667 -66.999 -17s-33.666 -13 -48.999 -23s-27.5 -23.333 -36.5 -40s-13.5 -37.667 -13.5 -63c0 -14.667 2.5 -29.667 7.5 -45s13 -29.666 24 -42.999s25.333 -24.166 43 -32.499s38.834 -12.5 63.501 -12.5c34.667 0 63.334 6.33301 86.001 19
s44.334 29.667 65.001 51c5.33301 -21.333 15 -37.5 29 -48.5s29.667 -16.5 47 -16.5c12 0 23.333 1.83301 34 5.5s23.334 9.16699 38.001 16.5l-1 28c-8 -3.33301 -16.333 -5 -25 -5c-17.333 0 -27.833 7.33301 -31.5 22s-5.5 46.334 -5.5 95.001
c0 10.667 0.666992 39.334 2 86.001c0.666992 22.667 1.16699 42.5 1.5 59.5s0.5 28.5 0.5 34.5c0 28 -3.5 50.5 -10.5 67.5s-17.167 31.833 -30.5 44.5c-18 16.667 -38.833 28.334 -62.5 35.001s-47.5 10 -71.5 10c-36 0 -66.5 -5.66699 -91.5 -17s-48.5 -26 -70.5 -44
l-4 -65h27zM326.994 134.994c0 -26.667 -11 -49.165 -33 -67.498s-46.333 -27.5 -73 -27.5c-21.333 0 -40.833 6.66699 -58.5 20s-26.5 34.666 -26.5 63.999c0 15.333 2.16699 28.666 6.5 39.999s13 22 26 32s32.333 19.167 58 27.5s59.167 15.5 100.5 21.5v-110z
M113.994 573.996c5.33301 18.667 13.501 30.999 24.501 36.999s21.167 9 30.5 9c11.333 0 27 -5 47 -15l35 -17c18.667 -9.33301 37.667 -14 57 -14c16 0 30.167 3.5 42.5 10.5s22.833 16 31.5 27s15.5 22.167 20.5 33.5s8.5 21.666 10.5 30.999h-29
c-6 -14.667 -13.333 -26.667 -22 -36s-20 -14 -34 -14c-8 0 -14.833 1 -20.5 3s-15.834 6.33301 -30.501 13l-3 1c-1.33301 0.666992 -2.33301 1.33398 -3 2.00098c-28 12.667 -45.833 20.334 -53.5 23.001s-16.5 4 -26.5 4c-24.667 0 -47 -9 -67 -27
s-32.333 -41.667 -37 -71h27z" />
    <glyph glyph-name="adieresis" unicode="&#xe4;" 
d="M103 361l-0.00585938 0.994141c3.33301 7.33301 7.33301 14.833 12 22.5s11.167 15.5 19.5 23.5s19.333 14.5 33 19.5s30.167 7.5 49.5 7.5c33.333 0 60.333 -9.83301 81 -29.5s31 -46.167 31 -79.5c0 -14 -2.66699 -24.667 -8 -32s-15 -12.666 -29 -15.999l-87 -19
c-27.333 -6 -49.666 -11.667 -66.999 -17s-33.666 -13 -48.999 -23s-27.5 -23.333 -36.5 -40s-13.5 -37.667 -13.5 -63c0 -14.667 2.5 -29.667 7.5 -45s13 -29.666 24 -42.999s25.333 -24.166 43 -32.499s38.834 -12.5 63.501 -12.5c34.667 0 63.334 6.33301 86.001 19
s44.334 29.667 65.001 51c5.33301 -21.333 15 -37.5 29 -48.5s29.667 -16.5 47 -16.5c12 0 23.333 1.83301 34 5.5s23.334 9.16699 38.001 16.5l-1 28c-8 -3.33301 -16.333 -5 -25 -5c-17.333 0 -27.833 7.33301 -31.5 22s-5.5 46.334 -5.5 95.001
c0 10.667 0.666992 39.334 2 86.001c0.666992 22.667 1.16699 42.5 1.5 59.5s0.5 28.5 0.5 34.5c0 28 -3.5 50.5 -10.5 67.5s-17.167 31.833 -30.5 44.5c-18 16.667 -38.833 28.334 -62.5 35.001s-47.5 10 -71.5 10c-36 0 -66.5 -5.66699 -91.5 -17s-48.5 -26 -70.5 -44
l-4 -65h27zM326.994 134.994c0 -26.667 -11 -49.165 -33 -67.498s-46.333 -27.5 -73 -27.5c-21.333 0 -40.833 6.66699 -58.5 20s-26.5 34.666 -26.5 63.999c0 15.333 2.16699 28.666 6.5 39.999s13 22 26 32s32.333 19.167 58 27.5s59.167 15.5 100.5 21.5v-110z
M300.994 614.996c0 -13.333 4.5 -24.5 13.5 -33.5s19.833 -13.5 32.5 -13.5s23.667 4.66699 33 14s14 20.333 14 33s-4.66699 23.5 -14 32.5s-20.333 13.5 -33 13.5s-23.5 -4.5 -32.5 -13.5s-13.5 -19.833 -13.5 -32.5zM104.994 614.996c0 -13.333 4.5 -24.5 13.5 -33.5
s19.833 -13.5 32.5 -13.5s23.667 4.66699 33 14s14 20.333 14 33s-4.66699 23.5 -14 32.5s-20.333 13.5 -33 13.5s-23.5 -4.5 -32.5 -13.5s-13.5 -19.833 -13.5 -32.5z" />
    <glyph glyph-name="aring" unicode="&#xe5;" 
d="M103 361l-0.00585938 0.994141c3.33301 7.33301 7.33301 14.833 12 22.5s11.167 15.5 19.5 23.5s19.333 14.5 33 19.5s30.167 7.5 49.5 7.5c33.333 0 60.333 -9.83301 81 -29.5s31 -46.167 31 -79.5c0 -14 -2.66699 -24.667 -8 -32s-15 -12.666 -29 -15.999l-87 -19
c-27.333 -6 -49.666 -11.667 -66.999 -17s-33.666 -13 -48.999 -23s-27.5 -23.333 -36.5 -40s-13.5 -37.667 -13.5 -63c0 -14.667 2.5 -29.667 7.5 -45s13 -29.666 24 -42.999s25.333 -24.166 43 -32.499s38.834 -12.5 63.501 -12.5c34.667 0 63.334 6.33301 86.001 19
s44.334 29.667 65.001 51c5.33301 -21.333 15 -37.5 29 -48.5s29.667 -16.5 47 -16.5c12 0 23.333 1.83301 34 5.5s23.334 9.16699 38.001 16.5l-1 28c-8 -3.33301 -16.333 -5 -25 -5c-17.333 0 -27.833 7.33301 -31.5 22s-5.5 46.334 -5.5 95.001
c0 10.667 0.666992 39.334 2 86.001c0.666992 22.667 1.16699 42.5 1.5 59.5s0.5 28.5 0.5 34.5c0 28 -3.5 50.5 -10.5 67.5s-17.167 31.833 -30.5 44.5c-18 16.667 -38.833 28.334 -62.5 35.001s-47.5 10 -71.5 10c-36 0 -66.5 -5.66699 -91.5 -17s-48.5 -26 -70.5 -44
l-4 -65h27zM326.994 134.994c0 -26.667 -11 -49.165 -33 -67.498s-46.333 -27.5 -73 -27.5c-21.333 0 -40.833 6.66699 -58.5 20s-26.5 34.666 -26.5 63.999c0 15.333 2.16699 28.666 6.5 39.999s13 22 26 32s32.333 19.167 58 27.5s59.167 15.5 100.5 21.5v-110z
M249.994 531.996c25.333 0 46.833 9 64.5 27s26.5 39.667 26.5 65c0 24.667 -9 46 -27 64s-39.333 27 -64 27c-25.333 0 -47 -8.83301 -65 -26.5s-27 -39.167 -27 -64.5s9 -47 27 -65s39.667 -27 65 -27zM249.994 558.996c-18.667 0 -34.167 6.33301 -46.5 19
s-18.5 28 -18.5 46c0 17.333 6.16699 32.333 18.5 45s27.5 19 45.5 19c18.667 0 34.167 -6.16699 46.5 -18.5s18.5 -27.5 18.5 -45.5s-6.16699 -33.333 -18.5 -46s-27.5 -19 -45.5 -19z" />
    <glyph glyph-name="ae" unicode="&#xe6;" horiz-adv-x="833" 
d="M782 238c0 78.667 -17.1768 139.995 -51.5098 183.995s-88.5 66 -162.5 66c-42 0 -75.333 -6.5 -100 -19.5s-45.334 -27.833 -62.001 -44.5l-1 -1c-17.333 20.667 -35.833 36.667 -55.5 48s-49.167 17 -88.5 17c-43.333 0 -78.666 -6.66699 -105.999 -20
s-49.666 -27.333 -66.999 -42c0 -15.333 -1 -35 -3 -59l-1 -9l24 -2c4 10 8.5 18.833 13.5 26.5s12.5 15.5 22.5 23.5c11.333 9.33301 24.833 16.666 40.5 21.999s31.834 8 48.501 8c17.333 0 35.166 -3.66699 53.499 -11s32.5 -20.333 42.5 -39
c6.66699 -12.667 11.334 -25.167 14.001 -37.5s4 -24.5 4 -36.5c0 -4 -0.333008 -7.66699 -1 -11v-7c-0.666992 -0.666992 -2 -1.33398 -4 -2.00098c-10 -5.33301 -20.333 -9.66602 -31 -12.999c-4.66699 -1.33301 -9.83398 -2.66602 -15.501 -3.99902
s-17.834 -3.66602 -36.501 -6.99902l-30 -6h-2c-30 -6 -54.167 -11.5 -72.5 -16.5s-35.666 -12.5 -51.999 -22.5s-29.5 -23.667 -39.5 -41s-15 -39 -15 -65c0 -40.667 12.833 -73.167 38.5 -97.5s61.5 -36.5 107.5 -36.5c26.667 0 50.334 4 71.001 12
s37.834 17.833 51.501 29.5s24.334 23 32.001 34s14.834 22.5 21.501 34.5v0c18.667 -36.667 45.834 -64.167 81.501 -82.5s75.5 -27.5 119.5 -27.5c28 0 57.833 4.33301 89.5 13s63.5 25 95.5 49c0.666992 18.667 1.33398 31.334 2.00098 38.001s2.33398 15.667 5.00098 27
l-10 3c-5.33301 -7.33301 -12.166 -15.333 -20.499 -24s-19 -17.5 -32 -26.5s-28.5 -16.667 -46.5 -23s-38 -9.5 -60 -9.5c-20.667 0 -40.667 3.83301 -60 11.5s-36.666 19.834 -51.999 36.501s-27.5 38.334 -36.5 65.001s-13.5 58.334 -13.5 95.001h350zM431.99 279.995
c0 46.667 11.5 86.167 34.5 118.5s55.833 48.5 98.5 48.5c26 0 47 -5.66699 63 -17s28 -25.5 36 -42.5s13.167 -34.5 15.5 -52.5s3.5 -36.333 3.5 -55h-251zM343.99 186.995l0.00195312 -3.00195c-0.666992 -28.667 -2.33398 -50.167 -5.00098 -64.5
s-9.66699 -28.5 -21 -42.5c-20 -26 -47.333 -39 -82 -39c-24 0 -44.833 6.83301 -62.5 20.5s-26.5 35.834 -26.5 66.501c0 28.667 7.16699 49.834 21.5 63.501s34.166 24.5 59.499 32.5c4.66699 1.33301 11.667 3 21 5l29 6l58 11l8 1v-57z" />
    <glyph glyph-name="ccedilla" unicode="&#xe7;" 
d="M461 82c-16.667 -18 -37.5 -31.498 -62.5 -40.498s-49.167 -13.5 -72.5 -13.5c-18 0 -36.667 2.83301 -56 8.5s-38.166 16.167 -56.499 31.5s-33.5 37.333 -45.5 66s-18 64.667 -18 108c0 63.333 14.667 113.166 44 149.499s71.333 54.5 126 54.5
c10.667 0 21.334 -1 32.001 -3s21.5 -5.83301 32.5 -11.5s21.5 -14 31.5 -25s18.333 -25.5 25 -43.5h12v2c5.33301 31.333 12.666 59 21.999 83c-46 26.667 -100.667 40 -164 40c-82 0 -146.667 -23 -194 -69s-71 -107.667 -71 -185c0 -66.667 19.333 -123.167 58 -169.5
s94.667 -73.166 168 -80.499l-39 -88l16 -6l2 1c9.33301 3.33301 18 5 26 5c16 0 28 -3.83301 36 -11.5s12 -17.167 12 -28.5c0 -12.667 -5.16699 -22.834 -15.5 -30.501s-24.833 -11.5 -43.5 -11.5c-10.667 0 -20.5 1 -29.5 3s-19.5 5 -31.5 9l-14 -30
c21.333 -6 39 -10.167 53 -12.5s25.333 -3.5 34 -3.5c11.333 0 23.5 1.33301 36.5 4s25.5 7 37.5 13s22 14.667 30 26s12 25 12 41c0 22 -7.66699 39.167 -23 51.5s-33 18.5 -53 18.5c-10 0 -21.333 -1.66699 -34 -5c-0.666992 -0.666992 -1.33398 -1 -2.00098 -1l24 54
c33.333 0 63 3.66699 89 11s47.333 16.666 64 27.999v1c0.666992 9.33301 1.66699 18.333 3 27s4 18.667 8 30z" />
    <glyph glyph-name="egrave" unicode="&#xe8;" horiz-adv-x="556" 
d="M508 238c0 27.333 -2.16797 54.167 -6.50098 80.5s-13.666 52.5 -27.999 78.5s-36.666 47.333 -66.999 64s-69.5 25 -117.5 25c-39.333 0 -74.333 -6.5 -105 -19.5s-56 -31.167 -76 -54.5s-34.833 -50.333 -44.5 -81s-14.5 -63.667 -14.5 -99
c0 -77.333 21.833 -138.333 65.5 -183s103.5 -67 179.5 -67c78.667 0 140.667 21.667 186 65v8c1.33301 18.667 3.66602 36 6.99902 52l-12 3c-5.33301 -8 -12 -16.167 -20 -24.5s-18.333 -16.833 -31 -25.5s-28.167 -16 -46.5 -22s-38.833 -9 -61.5 -9
c-10 0 -20.333 0.666992 -31 2s-22.334 4.5 -35.001 9.5s-25.5 13 -38.5 24s-24.833 25.167 -35.5 42.5c-11.333 20 -18.666 41 -21.999 63s-5 44.667 -5 68h359zM149.999 280.001c4.66699 52 18.3311 92.665 40.998 121.998s55 44 97 44c28 0 50.333 -6.5 67 -19.5
s28.834 -28.667 36.501 -47s12.334 -35.666 14.001 -51.999s2.5 -32.166 2.5 -47.499h-258zM370.996 548.999l-134.999 132.999c-16.667 16.667 -27.5 26.834 -32.5 30.501s-11.167 5.5 -18.5 5.5c-9.33301 0 -17.333 -3.5 -24 -10.5s-10 -15.167 -10 -24.5
c0 -5.33301 1.16699 -10.5 3.5 -15.5s7.16602 -9.83301 14.499 -14.5l167 -104h35z" />
    <glyph glyph-name="eacute" unicode="&#xe9;" horiz-adv-x="556" 
d="M508 238c0 27.333 -2.16797 54.167 -6.50098 80.5s-13.666 52.5 -27.999 78.5s-36.666 47.333 -66.999 64s-69.5 25 -117.5 25c-39.333 0 -74.333 -6.5 -105 -19.5s-56 -31.167 -76 -54.5s-34.833 -50.333 -44.5 -81s-14.5 -63.667 -14.5 -99
c0 -77.333 21.833 -138.333 65.5 -183s103.5 -67 179.5 -67c78.667 0 140.667 21.667 186 65v8c1.33301 18.667 3.66602 36 6.99902 52l-12 3c-5.33301 -8 -12 -16.167 -20 -24.5s-18.333 -16.833 -31 -25.5s-28.167 -16 -46.5 -22s-38.833 -9 -61.5 -9
c-10 0 -20.333 0.666992 -31 2s-22.334 4.5 -35.001 9.5s-25.5 13 -38.5 24s-24.833 25.167 -35.5 42.5c-11.333 20 -18.666 41 -21.999 63s-5 44.667 -5 68h359zM149.999 280.001c4.66699 52 18.3311 92.665 40.998 121.998s55 44 97 44c28 0 50.333 -6.5 67 -19.5
s28.834 -28.667 36.501 -47s12.334 -35.666 14.001 -51.999s2.5 -32.166 2.5 -47.499h-258zM249.996 548.999l166 104.001c12.667 8 19 18 19 30c0 9.33301 -3.33301 17.5 -10 24.5s-14.667 10.5 -24 10.5c-8 0 -14.5 -1.83301 -19.5 -5.5s-15.833 -13.834 -32.5 -30.501
l-134 -133h35z" />
    <glyph glyph-name="ecircumflex" unicode="&#xea;" horiz-adv-x="556" 
d="M508 238c0 27.333 -2.16797 54.167 -6.50098 80.5s-13.666 52.5 -27.999 78.5s-36.666 47.333 -66.999 64s-69.5 25 -117.5 25c-39.333 0 -74.333 -6.5 -105 -19.5s-56 -31.167 -76 -54.5s-34.833 -50.333 -44.5 -81s-14.5 -63.667 -14.5 -99
c0 -77.333 21.833 -138.333 65.5 -183s103.5 -67 179.5 -67c78.667 0 140.667 21.667 186 65v8c1.33301 18.667 3.66602 36 6.99902 52l-12 3c-5.33301 -8 -12 -16.167 -20 -24.5s-18.333 -16.833 -31 -25.5s-28.167 -16 -46.5 -22s-38.833 -9 -61.5 -9
c-10 0 -20.333 0.666992 -31 2s-22.334 4.5 -35.001 9.5s-25.5 13 -38.5 24s-24.833 25.167 -35.5 42.5c-11.333 20 -18.666 41 -21.999 63s-5 44.667 -5 68h359zM149.999 280.001c4.66699 52 18.3311 92.665 40.998 121.998s55 44 97 44c28 0 50.333 -6.5 67 -19.5
s28.834 -28.667 36.501 -47s12.334 -35.666 14.001 -51.999s2.5 -32.166 2.5 -47.499h-258zM136.996 548.999h34l117 105l117 -105h33l-122 167h-56z" />
    <glyph glyph-name="edieresis" unicode="&#xeb;" horiz-adv-x="556" 
d="M508 238c0 27.333 -2.16797 54.167 -6.50098 80.5s-13.666 52.5 -27.999 78.5s-36.666 47.333 -66.999 64s-69.5 25 -117.5 25c-39.333 0 -74.333 -6.5 -105 -19.5s-56 -31.167 -76 -54.5s-34.833 -50.333 -44.5 -81s-14.5 -63.667 -14.5 -99
c0 -77.333 21.833 -138.333 65.5 -183s103.5 -67 179.5 -67c78.667 0 140.667 21.667 186 65v8c1.33301 18.667 3.66602 36 6.99902 52l-12 3c-5.33301 -8 -12 -16.167 -20 -24.5s-18.333 -16.833 -31 -25.5s-28.167 -16 -46.5 -22s-38.833 -9 -61.5 -9
c-10 0 -20.333 0.666992 -31 2s-22.334 4.5 -35.001 9.5s-25.5 13 -38.5 24s-24.833 25.167 -35.5 42.5c-11.333 20 -18.666 41 -21.999 63s-5 44.667 -5 68h359zM149.999 280.001c4.66699 52 18.3311 92.665 40.998 121.998s55 44 97 44c28 0 50.333 -6.5 67 -19.5
s28.834 -28.667 36.501 -47s12.334 -35.666 14.001 -51.999s2.5 -32.166 2.5 -47.499h-258zM338.996 614.999c0 -13.333 4.5 -24.5 13.5 -33.5s19.833 -13.5 32.5 -13.5s23.667 4.66699 33 14s14 20.333 14 33s-4.66699 23.5 -14 32.5s-20.333 13.5 -33 13.5
s-23.5 -4.5 -32.5 -13.5s-13.5 -19.833 -13.5 -32.5zM142.996 614.999c0 -13.333 4.5 -24.5 13.5 -33.5s19.833 -13.5 32.5 -13.5s23.667 4.66699 33 14s14 20.333 14 33s-4.66699 23.5 -14 32.5s-20.333 13.5 -33 13.5s-23.5 -4.5 -32.5 -13.5s-13.5 -19.833 -13.5 -32.5z
" />
    <glyph glyph-name="igrave" unicode="&#xec;" horiz-adv-x="278" 
d="M96 249c0 -36 -0.669922 -76.9971 -2.00293 -122.997s-3 -89.667 -5 -131c8.66699 2 16.334 3.5 23.001 4.5s16.334 1.5 29.001 1.5c12 0 21.333 -0.5 28 -1.5s13.667 -2.5 21 -4.5l-3 67c-2 61.333 -3.16699 98 -3.5 110s-0.5 26.667 -0.5 44
c0 67.333 0.666992 122.666 2 165.999c0 14.667 0.333008 27.167 1 37.5s1.66699 27.166 3 50.499v9c-14.667 -4 -32 -6 -52 -6c-10.667 0 -19.667 0.5 -27 1.5s-14.666 2.5 -21.999 4.5c2.66699 -32.667 4.66699 -66.334 6 -101.001s2 -77.667 2 -129zM211.997 549.003
l-134.999 132.999c-16.667 16.667 -27.5 26.834 -32.5 30.501s-11.167 5.5 -18.5 5.5c-9.33301 0 -17.333 -3.5 -24 -10.5s-10 -15.167 -10 -24.5c0 -5.33301 1.16699 -10.5 3.5 -15.5s7.16602 -9.83301 14.499 -14.5l167 -104h35z" />
    <glyph glyph-name="iacute" unicode="&#xed;" horiz-adv-x="278" 
d="M96 249c0 -36 -0.669922 -76.9971 -2.00293 -122.997s-3 -89.667 -5 -131c8.66699 2 16.334 3.5 23.001 4.5s16.334 1.5 29.001 1.5c12 0 21.333 -0.5 28 -1.5s13.667 -2.5 21 -4.5l-3 67c-2 61.333 -3.16699 98 -3.5 110s-0.5 26.667 -0.5 44
c0 67.333 0.666992 122.666 2 165.999c0 14.667 0.333008 27.167 1 37.5s1.66699 27.166 3 50.499v9c-14.667 -4 -32 -6 -52 -6c-10.667 0 -19.667 0.5 -27 1.5s-14.666 2.5 -21.999 4.5c2.66699 -32.667 4.66699 -66.334 6 -101.001s2 -77.667 2 -129zM100.997 549.003
l166 104.001c12.667 8 19 18 19 30c0 9.33301 -3.33301 17.5 -10 24.5s-14.667 10.5 -24 10.5c-8 0 -14.5 -1.83301 -19.5 -5.5s-15.833 -13.834 -32.5 -30.501l-134 -133h35z" />
    <glyph glyph-name="icircumflex" unicode="&#xee;" horiz-adv-x="278" 
d="M96 249c0 -36 -0.669922 -76.9971 -2.00293 -122.997s-3 -89.667 -5 -131c8.66699 2 16.334 3.5 23.001 4.5s16.334 1.5 29.001 1.5c12 0 21.333 -0.5 28 -1.5s13.667 -2.5 21 -4.5l-3 67c-2 61.333 -3.16699 98 -3.5 110s-0.5 26.667 -0.5 44
c0 67.333 0.666992 122.666 2 165.999c0 14.667 0.333008 27.167 1 37.5s1.66699 27.166 3 50.499v9c-14.667 -4 -32 -6 -52 -6c-10.667 0 -19.667 0.5 -27 1.5s-14.666 2.5 -21.999 4.5c2.66699 -32.667 4.66699 -66.334 6 -101.001s2 -77.667 2 -129zM-12.0029 549.003h34
l117 105l117 -105h33l-122 167h-56z" />
    <glyph glyph-name="idieresis" unicode="&#xef;" horiz-adv-x="278" 
d="M96 249c0 -36 -0.669922 -76.9971 -2.00293 -122.997s-3 -89.667 -5 -131c8.66699 2 16.334 3.5 23.001 4.5s16.334 1.5 29.001 1.5c12 0 21.333 -0.5 28 -1.5s13.667 -2.5 21 -4.5l-3 67c-2 61.333 -3.16699 98 -3.5 110s-0.5 26.667 -0.5 44
c0 67.333 0.666992 122.666 2 165.999c0 14.667 0.333008 27.167 1 37.5s1.66699 27.166 3 50.499v9c-14.667 -4 -32 -6 -52 -6c-10.667 0 -19.667 0.5 -27 1.5s-14.666 2.5 -21.999 4.5c2.66699 -32.667 4.66699 -66.334 6 -101.001s2 -77.667 2 -129zM189.997 615.003
c0 -13.333 4.5 -24.5 13.5 -33.5s19.833 -13.5 32.5 -13.5s23.667 4.66699 33 14s14 20.333 14 33s-4.66699 23.5 -14 32.5s-20.333 13.5 -33 13.5s-23.5 -4.5 -32.5 -13.5s-13.5 -19.833 -13.5 -32.5zM-6.00293 615.003c0 -13.333 4.5 -24.5 13.5 -33.5
s19.833 -13.5 32.5 -13.5s23.667 4.66699 33 14s14 20.333 14 33s-4.66699 23.5 -14 32.5s-20.333 13.5 -33 13.5s-23.5 -4.5 -32.5 -13.5s-13.5 -19.833 -13.5 -32.5z" />
    <glyph glyph-name="eth" unicode="&#xf0;" horiz-adv-x="611" 
d="M48 229c0 -46 7.83301 -85.334 23.5 -118.001s36 -58.334 61 -77.001s52.167 -32.167 81.5 -40.5s58.666 -12.5 87.999 -12.5c30.667 0 61 4.5 91 13.5s58.167 23.833 84.5 44.5s47.333 48.667 63 84s23.5 78 23.5 128c0 40.667 -5.83301 79 -17.5 115
s-27.834 69.5 -48.501 100.5s-44.834 60 -72.501 87s-58.5 53.167 -92.5 78.5c24.667 10 60.667 21.667 108 35c10 3.33301 18.667 6 26 8c-10 14.667 -17.667 28 -23 40c-31.333 -14 -76.666 -31.333 -135.999 -52l-8 -3c-50.667 35.333 -98.667 66 -144 92
c-13.333 -6 -24.666 -10.667 -33.999 -14s-23 -7 -41 -11c27.333 -18 51.166 -34.333 71.499 -49s41.166 -31 62.499 -49c-31.333 -11.333 -55.666 -19.666 -72.999 -24.999s-39.333 -11.666 -66 -18.999c10.667 -14 18.667 -26.667 24 -38l33 14.5l26 10.5
c8.66699 3.33301 20.167 7.33301 34.5 12l54.5 17c28 -24 51.833 -45.667 71.5 -65s37.834 -40 54.501 -62c-14 4 -26.333 6.83301 -37 8.5s-24 2.5 -40 2.5c-77.333 0 -138.166 -23.5 -182.499 -70.5s-66.5 -108.833 -66.5 -185.5zM308 446.999
c30.667 0 56.334 -6.8291 77.001 -20.4961s36.5 -31.334 47.5 -53.001s18.667 -44.334 23 -68.001s6.5 -46.834 6.5 -69.501c0 -66 -14.5 -118.333 -43.5 -157s-67.5 -58 -115.5 -58c-46.667 0 -83.834 18.833 -111.501 56.5s-41.5 90.834 -41.5 159.501
c0 16 1.16699 34.167 3.5 54.5s8.5 42.666 18.5 66.999s26 45.166 48 62.499s51.333 26 88 26z" />
    <glyph glyph-name="ntilde" unicode="&#xf1;" horiz-adv-x="611" 
d="M91 270c0 -68 -0.838867 -120.836 -2.50586 -158.503s-4.16699 -76.5 -7.5 -116.5c20 4 37.667 6 53 6c16.667 0 34.334 -2 53.001 -6l-1 12c-2 24.667 -3.66699 48.834 -5 72.501s-2 50.834 -2 81.501c0 18.667 0.166992 36.334 0.5 53.001s1 34.334 2 53.001
s2.83301 36.167 5.5 52.5s6 28.5 10 36.5c24.667 46 64.334 69 119.001 69c26.667 0 47.834 -5.16699 63.501 -15.5s27.334 -24.5 35.001 -42.5s12.5 -37.5 14.5 -58.5s3 -47.167 3 -78.5c0 -27.333 -0.333008 -55.333 -1 -84c-0.666992 -22.667 -1.66699 -48 -3 -76
s-3 -53 -5 -75c8 2 15.833 3.5 23.5 4.5s17.5 1.5 29.5 1.5s21.667 -0.5 29 -1.5s14.666 -2.5 21.999 -4.5c-0.666992 3.33301 -1 8 -1 14s-0.333008 18.333 -1 37c-0.666992 22.667 -1 40.334 -1 53.001c0 11.333 0.333008 33.666 1 66.999s1.33398 63 2.00098 89
c0.666992 37.333 1 56.333 1 57c0 19.333 -1.66699 38.166 -5 56.499s-10.5 36.666 -21.5 54.999s-28.5 33.333 -52.5 45s-55 17.5 -93 17.5c-43.333 0 -79.666 -9.5 -108.999 -28.5s-51.666 -42.167 -66.999 -69.5c0.666992 13.333 1.16699 21.333 1.5 24
s0.833008 11.334 1.5 26.001c1.33301 28 2 43 2 45c-4 -0.666992 -6.33301 -1 -7 -1c-16.667 -3.33301 -30.667 -5 -42 -5c-10.667 0 -24.334 1.33301 -41.001 4l-9 2c0.666992 -12.667 1.33398 -29 2.00098 -49c2 -76 3 -130.667 3 -164zM169.994 573.997
c5.33301 18.667 13.501 30.999 24.501 36.999s21.167 9 30.5 9c11.333 0 27 -5 47 -15l35 -17c18.667 -9.33301 37.667 -14 57 -14c16 0 30.167 3.5 42.5 10.5s22.833 16 31.5 27s15.5 22.167 20.5 33.5s8.5 21.666 10.5 30.999h-29c-6 -14.667 -13.333 -26.667 -22 -36
s-20 -14 -34 -14c-8 0 -14.833 1 -20.5 3s-15.834 6.33301 -30.501 13l-3 1c-1.33301 0.666992 -2.33301 1.33398 -3 2.00098c-28 12.667 -45.833 20.334 -53.5 23.001s-16.5 4 -26.5 4c-24.667 0 -47 -9 -67 -27s-32.333 -41.667 -37 -71h27z" />
    <glyph glyph-name="ograve" unicode="&#xf2;" horiz-adv-x="611" 
d="M302 487c-76 0 -137.332 -22.834 -183.999 -68.501s-70 -107.167 -70 -184.5c0 -48.667 7.83301 -89.667 23.5 -123s36 -59.5 61 -78.5s52.167 -32.333 81.5 -40s58.666 -11.5 87.999 -11.5c38 0 73 6 105 18s59.667 29.333 83 52s41.5 50 54.5 82s19.5 67.667 19.5 107
c0 32 -4.83301 62.5 -14.5 91.5s-25.167 55.333 -46.5 79s-48.833 42.334 -82.5 56.001s-73.167 20.5 -118.5 20.5zM308.001 446.999c30.667 0 56.334 -6.8291 77.001 -20.4961s36.5 -31.334 47.5 -53.001s18.667 -44.334 23 -68.001s6.5 -46.834 6.5 -69.501
c0 -66 -14.5 -118.333 -43.5 -157s-67.5 -58 -115.5 -58c-46.667 0 -83.834 18.833 -111.501 56.5s-41.5 90.834 -41.5 159.501c0 16 1.16699 34.167 3.5 54.5s8.5 42.666 18.5 66.999s26 45.166 48 62.499s51.333 26 88 26zM379.001 549.003l-134.999 132.999
c-16.667 16.667 -27.5 26.834 -32.5 30.501s-11.167 5.5 -18.5 5.5c-9.33301 0 -17.333 -3.5 -24 -10.5s-10 -15.167 -10 -24.5c0 -5.33301 1.16699 -10.5 3.5 -15.5s7.16602 -9.83301 14.499 -14.5l167 -104h35z" />
    <glyph glyph-name="oacute" unicode="&#xf3;" horiz-adv-x="611" 
d="M302 487c-76 0 -137.332 -22.834 -183.999 -68.501s-70 -107.167 -70 -184.5c0 -48.667 7.83301 -89.667 23.5 -123s36 -59.5 61 -78.5s52.167 -32.333 81.5 -40s58.666 -11.5 87.999 -11.5c38 0 73 6 105 18s59.667 29.333 83 52s41.5 50 54.5 82s19.5 67.667 19.5 107
c0 32 -4.83301 62.5 -14.5 91.5s-25.167 55.333 -46.5 79s-48.833 42.334 -82.5 56.001s-73.167 20.5 -118.5 20.5zM308.001 446.999c30.667 0 56.334 -6.8291 77.001 -20.4961s36.5 -31.334 47.5 -53.001s18.667 -44.334 23 -68.001s6.5 -46.834 6.5 -69.501
c0 -66 -14.5 -118.333 -43.5 -157s-67.5 -58 -115.5 -58c-46.667 0 -83.834 18.833 -111.501 56.5s-41.5 90.834 -41.5 159.501c0 16 1.16699 34.167 3.5 54.5s8.5 42.666 18.5 66.999s26 45.166 48 62.499s51.333 26 88 26zM268.001 549.003l166 104.001
c12.667 8 19 18 19 30c0 9.33301 -3.33301 17.5 -10 24.5s-14.667 10.5 -24 10.5c-8 0 -14.5 -1.83301 -19.5 -5.5s-15.833 -13.834 -32.5 -30.501l-134 -133h35z" />
    <glyph glyph-name="ocircumflex" unicode="&#xf4;" horiz-adv-x="611" 
d="M302 487c-76 0 -137.332 -22.834 -183.999 -68.501s-70 -107.167 -70 -184.5c0 -48.667 7.83301 -89.667 23.5 -123s36 -59.5 61 -78.5s52.167 -32.333 81.5 -40s58.666 -11.5 87.999 -11.5c38 0 73 6 105 18s59.667 29.333 83 52s41.5 50 54.5 82s19.5 67.667 19.5 107
c0 32 -4.83301 62.5 -14.5 91.5s-25.167 55.333 -46.5 79s-48.833 42.334 -82.5 56.001s-73.167 20.5 -118.5 20.5zM308.001 446.999c30.667 0 56.334 -6.8291 77.001 -20.4961s36.5 -31.334 47.5 -53.001s18.667 -44.334 23 -68.001s6.5 -46.834 6.5 -69.501
c0 -66 -14.5 -118.333 -43.5 -157s-67.5 -58 -115.5 -58c-46.667 0 -83.834 18.833 -111.501 56.5s-41.5 90.834 -41.5 159.501c0 16 1.16699 34.167 3.5 54.5s8.5 42.666 18.5 66.999s26 45.166 48 62.499s51.333 26 88 26zM155.001 549.003h34l117 105l117 -105h33
l-122 167h-56z" />
    <glyph glyph-name="otilde" unicode="&#xf5;" horiz-adv-x="611" 
d="M302 487c-76 0 -137.332 -22.834 -183.999 -68.501s-70 -107.167 -70 -184.5c0 -48.667 7.83301 -89.667 23.5 -123s36 -59.5 61 -78.5s52.167 -32.333 81.5 -40s58.666 -11.5 87.999 -11.5c38 0 73 6 105 18s59.667 29.333 83 52s41.5 50 54.5 82s19.5 67.667 19.5 107
c0 32 -4.83301 62.5 -14.5 91.5s-25.167 55.333 -46.5 79s-48.833 42.334 -82.5 56.001s-73.167 20.5 -118.5 20.5zM308.001 446.999c30.667 0 56.334 -6.8291 77.001 -20.4961s36.5 -31.334 47.5 -53.001s18.667 -44.334 23 -68.001s6.5 -46.834 6.5 -69.501
c0 -66 -14.5 -118.333 -43.5 -157s-67.5 -58 -115.5 -58c-46.667 0 -83.834 18.833 -111.501 56.5s-41.5 90.834 -41.5 159.501c0 16 1.16699 34.167 3.5 54.5s8.5 42.666 18.5 66.999s26 45.166 48 62.499s51.333 26 88 26zM170.001 574.003
c5.33301 18.667 13.501 30.999 24.501 36.999s21.167 9 30.5 9c11.333 0 27 -5 47 -15l35 -17c18.667 -9.33301 37.667 -14 57 -14c16 0 30.167 3.5 42.5 10.5s22.833 16 31.5 27s15.5 22.167 20.5 33.5s8.5 21.666 10.5 30.999h-29c-6 -14.667 -13.333 -26.667 -22 -36
s-20 -14 -34 -14c-8 0 -14.833 1 -20.5 3s-15.834 6.33301 -30.501 13l-3 1c-1.33301 0.666992 -2.33301 1.33398 -3 2.00098c-28 12.667 -45.833 20.334 -53.5 23.001s-16.5 4 -26.5 4c-24.667 0 -47 -9 -67 -27s-32.333 -41.667 -37 -71h27z" />
    <glyph glyph-name="odieresis" unicode="&#xf6;" horiz-adv-x="611" 
d="M302 487c-76 0 -137.332 -22.834 -183.999 -68.501s-70 -107.167 -70 -184.5c0 -48.667 7.83301 -89.667 23.5 -123s36 -59.5 61 -78.5s52.167 -32.333 81.5 -40s58.666 -11.5 87.999 -11.5c38 0 73 6 105 18s59.667 29.333 83 52s41.5 50 54.5 82s19.5 67.667 19.5 107
c0 32 -4.83301 62.5 -14.5 91.5s-25.167 55.333 -46.5 79s-48.833 42.334 -82.5 56.001s-73.167 20.5 -118.5 20.5zM308.001 446.999c30.667 0 56.334 -6.8291 77.001 -20.4961s36.5 -31.334 47.5 -53.001s18.667 -44.334 23 -68.001s6.5 -46.834 6.5 -69.501
c0 -66 -14.5 -118.333 -43.5 -157s-67.5 -58 -115.5 -58c-46.667 0 -83.834 18.833 -111.501 56.5s-41.5 90.834 -41.5 159.501c0 16 1.16699 34.167 3.5 54.5s8.5 42.666 18.5 66.999s26 45.166 48 62.499s51.333 26 88 26zM357.001 615.003
c0 -13.333 4.5 -24.5 13.5 -33.5s19.833 -13.5 32.5 -13.5s23.667 4.66699 33 14s14 20.333 14 33s-4.66699 23.5 -14 32.5s-20.333 13.5 -33 13.5s-23.5 -4.5 -32.5 -13.5s-13.5 -19.833 -13.5 -32.5zM161.001 615.003c0 -13.333 4.5 -24.5 13.5 -33.5
s19.833 -13.5 32.5 -13.5s23.667 4.66699 33 14s14 20.333 14 33s-4.66699 23.5 -14 32.5s-20.333 13.5 -33 13.5s-23.5 -4.5 -32.5 -13.5s-13.5 -19.833 -13.5 -32.5z" />
    <glyph glyph-name="divide" unicode="&#xf7;" horiz-adv-x="593" 
d="M45 215h502v60h-502v-60zM296 118c-14.667 0 -27.167 -5.16699 -37.5 -15.5s-15.5 -22.833 -15.5 -37.5s5.16699 -27.167 15.5 -37.5s22.833 -15.5 37.5 -15.5s27.167 5.16699 37.5 15.5s15.5 22.833 15.5 37.5c0 15.333 -5.16699 28 -15.5 38s-22.833 15 -37.5 15z
M296 478c-14.667 0 -27.167 -5.16699 -37.5 -15.5s-15.5 -22.833 -15.5 -37.5s5.16699 -27.167 15.5 -37.5s22.833 -15.5 37.5 -15.5c14 0 26.333 5.16699 37 15.5s16 22.833 16 37.5s-5.16699 27.167 -15.5 37.5s-22.833 15.5 -37.5 15.5z" />
    <glyph glyph-name="oslash" unicode="&#xf8;" horiz-adv-x="611" 
d="M564 240c0 28 -3.00098 52.8311 -9.00098 74.498s-13.333 40 -22 55s-17 26.833 -25 35.5s-17 17.334 -27 26.001v0c25.333 31.333 40.5 49.833 45.5 55.5l29.5 34.5c-6.66699 4 -12.167 7.66699 -16.5 11s-8.83301 7.33301 -13.5 12l-50 -65
c-4.66699 -6.66699 -12 -16.334 -22 -29.001c-25.333 14.667 -50.333 24.5 -75 29.5s-48.334 7.5 -71.001 7.5c-25.333 0 -52.333 -3.33301 -81 -10s-56.667 -19.167 -84 -37.5s-50 -44.666 -68 -78.999s-27 -77.166 -27 -128.499c0 -47.333 6.5 -85 19.5 -113
s31.5 -54 55.5 -78c-2 -2.66699 -6.66699 -8.5 -14 -17.5l-15 -18.5l-14 -17l-36 -43c8 -3.33301 13.833 -6.33301 17.5 -9s7.5 -7.33398 11.5 -14.001l2 3l13.5 17.5l23.5 30.5l19.5 25l18.5 23c45.333 -26.667 96.333 -40 153 -40c36.667 0 70.834 5.83301 102.501 17.5
s59.334 28.834 83.001 51.501s42.167 50 55.5 82s20 68 20 108zM461.999 233.998c0 -63.333 -14.168 -114.666 -42.501 -153.999s-67.166 -59 -116.499 -59c-30 0 -53.5 5.66699 -70.5 17s-30.5 23.666 -40.5 36.999c10 13.333 15.333 20 16 20l67 85l47 58l110 132l1 2
c10.667 -20 18.167 -41.5 22.5 -64.5s6.5 -47.5 6.5 -73.5zM149.998 234.998c0 17.333 1.16797 36.333 3.50098 57s8.5 43.167 18.5 67.5s26 45 48 62s51.333 25.5 88 25.5c27.333 0 48.666 -4.16699 63.999 -12.5s29.333 -19.5 42 -33.5l-54.5 -68.5l-71.5 -89l-65 -80
l-48 -59.5v0c-7.33301 16 -13.333 33.5 -18 52.5s-7 45.167 -7 78.5z" />
    <glyph glyph-name="ugrave" unicode="&#xf9;" horiz-adv-x="611" 
d="M290 48c-25.333 0 -45.502 5.83594 -60.502 17.5029s-25.667 27.5 -32 47.5s-10.333 41.833 -12 65.5s-2.5 54.834 -2.5 93.501c0 29.333 0.833008 63 2.5 101s3.83398 74.667 6.50098 110c-14.667 -4 -31.334 -6 -50.001 -6s-35.667 2 -51 6
c1.33301 -10 2.33301 -25.667 3 -47s1 -42.333 1 -63c0 -8.66699 -0.333008 -25.334 -1 -50.001s-1.33398 -45.334 -2.00098 -62.001c-0.666992 -30 -1.16699 -53.667 -1.5 -71s-0.5 -27.333 -0.5 -30c0 -17.333 1.83301 -35.5 5.5 -54.5s11.5 -37.667 23.5 -56
s29.667 -33.5 53 -45.5s53.333 -18 90 -18c12 0 24.667 1.33301 38 4s27.333 7.66699 42 15s29.334 18 44.001 32s28 31.667 40 53c0 -5.33301 -0.333008 -11 -1 -17l-1.5 -47c-0.333008 -10.667 -1.16602 -21 -2.49902 -31c10 2 18.167 3.5 24.5 4.5s13.833 1.5 22.5 1.5
c10.667 0 24.334 -1.66699 41.001 -5c2.66699 0 5.33398 -0.333008 8.00098 -1c-0.666992 11.333 -1.5 23.5 -2.5 36.5s-1.5 27.833 -1.5 44.5c-1.33301 33.333 -2 84.333 -2 153c0 45.333 1 88.166 3 128.499s4.33301 82.166 7 125.499h-2c-17.333 -4 -33 -6 -47 -6
c-16 0 -34 2 -54 6c0.666992 -12 1.5 -29.167 2.5 -51.5s1.83301 -47.5 2.5 -75.5c0.666992 -49.333 1 -93.333 1 -132c0 -20.667 -1 -39.5 -3 -56.5s-7 -33.5 -15 -49.5c-9.33301 -18.667 -23.833 -35 -43.5 -49s-43.834 -21 -72.501 -21zM378.998 549.003
l-134.999 132.999c-16.667 16.667 -27.5 26.834 -32.5 30.501s-11.167 5.5 -18.5 5.5c-9.33301 0 -17.333 -3.5 -24 -10.5s-10 -15.167 -10 -24.5c0 -5.33301 1.16699 -10.5 3.5 -15.5s7.16602 -9.83301 14.499 -14.5l167 -104h35z" />
    <glyph glyph-name="uacute" unicode="&#xfa;" horiz-adv-x="611" 
d="M290 48c-25.333 0 -45.502 5.83594 -60.502 17.5029s-25.667 27.5 -32 47.5s-10.333 41.833 -12 65.5s-2.5 54.834 -2.5 93.501c0 29.333 0.833008 63 2.5 101s3.83398 74.667 6.50098 110c-14.667 -4 -31.334 -6 -50.001 -6s-35.667 2 -51 6
c1.33301 -10 2.33301 -25.667 3 -47s1 -42.333 1 -63c0 -8.66699 -0.333008 -25.334 -1 -50.001s-1.33398 -45.334 -2.00098 -62.001c-0.666992 -30 -1.16699 -53.667 -1.5 -71s-0.5 -27.333 -0.5 -30c0 -17.333 1.83301 -35.5 5.5 -54.5s11.5 -37.667 23.5 -56
s29.667 -33.5 53 -45.5s53.333 -18 90 -18c12 0 24.667 1.33301 38 4s27.333 7.66699 42 15s29.334 18 44.001 32s28 31.667 40 53c0 -5.33301 -0.333008 -11 -1 -17l-1.5 -47c-0.333008 -10.667 -1.16602 -21 -2.49902 -31c10 2 18.167 3.5 24.5 4.5s13.833 1.5 22.5 1.5
c10.667 0 24.334 -1.66699 41.001 -5c2.66699 0 5.33398 -0.333008 8.00098 -1c-0.666992 11.333 -1.5 23.5 -2.5 36.5s-1.5 27.833 -1.5 44.5c-1.33301 33.333 -2 84.333 -2 153c0 45.333 1 88.166 3 128.499s4.33301 82.166 7 125.499h-2c-17.333 -4 -33 -6 -47 -6
c-16 0 -34 2 -54 6c0.666992 -12 1.5 -29.167 2.5 -51.5s1.83301 -47.5 2.5 -75.5c0.666992 -49.333 1 -93.333 1 -132c0 -20.667 -1 -39.5 -3 -56.5s-7 -33.5 -15 -49.5c-9.33301 -18.667 -23.833 -35 -43.5 -49s-43.834 -21 -72.501 -21zM267.998 549.003l166 104.001
c12.667 8 19 18 19 30c0 9.33301 -3.33301 17.5 -10 24.5s-14.667 10.5 -24 10.5c-8 0 -14.5 -1.83301 -19.5 -5.5s-15.833 -13.834 -32.5 -30.501l-134 -133h35z" />
    <glyph glyph-name="ucircumflex" unicode="&#xfb;" horiz-adv-x="611" 
d="M290 48c-25.333 0 -45.502 5.83594 -60.502 17.5029s-25.667 27.5 -32 47.5s-10.333 41.833 -12 65.5s-2.5 54.834 -2.5 93.501c0 29.333 0.833008 63 2.5 101s3.83398 74.667 6.50098 110c-14.667 -4 -31.334 -6 -50.001 -6s-35.667 2 -51 6
c1.33301 -10 2.33301 -25.667 3 -47s1 -42.333 1 -63c0 -8.66699 -0.333008 -25.334 -1 -50.001s-1.33398 -45.334 -2.00098 -62.001c-0.666992 -30 -1.16699 -53.667 -1.5 -71s-0.5 -27.333 -0.5 -30c0 -17.333 1.83301 -35.5 5.5 -54.5s11.5 -37.667 23.5 -56
s29.667 -33.5 53 -45.5s53.333 -18 90 -18c12 0 24.667 1.33301 38 4s27.333 7.66699 42 15s29.334 18 44.001 32s28 31.667 40 53c0 -5.33301 -0.333008 -11 -1 -17l-1.5 -47c-0.333008 -10.667 -1.16602 -21 -2.49902 -31c10 2 18.167 3.5 24.5 4.5s13.833 1.5 22.5 1.5
c10.667 0 24.334 -1.66699 41.001 -5c2.66699 0 5.33398 -0.333008 8.00098 -1c-0.666992 11.333 -1.5 23.5 -2.5 36.5s-1.5 27.833 -1.5 44.5c-1.33301 33.333 -2 84.333 -2 153c0 45.333 1 88.166 3 128.499s4.33301 82.166 7 125.499h-2c-17.333 -4 -33 -6 -47 -6
c-16 0 -34 2 -54 6c0.666992 -12 1.5 -29.167 2.5 -51.5s1.83301 -47.5 2.5 -75.5c0.666992 -49.333 1 -93.333 1 -132c0 -20.667 -1 -39.5 -3 -56.5s-7 -33.5 -15 -49.5c-9.33301 -18.667 -23.833 -35 -43.5 -49s-43.834 -21 -72.501 -21zM154.998 549.003h34l117 105
l117 -105h33l-122 167h-56z" />
    <glyph glyph-name="udieresis" unicode="&#xfc;" horiz-adv-x="611" 
d="M290 48c-25.333 0 -45.502 5.83594 -60.502 17.5029s-25.667 27.5 -32 47.5s-10.333 41.833 -12 65.5s-2.5 54.834 -2.5 93.501c0 29.333 0.833008 63 2.5 101s3.83398 74.667 6.50098 110c-14.667 -4 -31.334 -6 -50.001 -6s-35.667 2 -51 6
c1.33301 -10 2.33301 -25.667 3 -47s1 -42.333 1 -63c0 -8.66699 -0.333008 -25.334 -1 -50.001s-1.33398 -45.334 -2.00098 -62.001c-0.666992 -30 -1.16699 -53.667 -1.5 -71s-0.5 -27.333 -0.5 -30c0 -17.333 1.83301 -35.5 5.5 -54.5s11.5 -37.667 23.5 -56
s29.667 -33.5 53 -45.5s53.333 -18 90 -18c12 0 24.667 1.33301 38 4s27.333 7.66699 42 15s29.334 18 44.001 32s28 31.667 40 53c0 -5.33301 -0.333008 -11 -1 -17l-1.5 -47c-0.333008 -10.667 -1.16602 -21 -2.49902 -31c10 2 18.167 3.5 24.5 4.5s13.833 1.5 22.5 1.5
c10.667 0 24.334 -1.66699 41.001 -5c2.66699 0 5.33398 -0.333008 8.00098 -1c-0.666992 11.333 -1.5 23.5 -2.5 36.5s-1.5 27.833 -1.5 44.5c-1.33301 33.333 -2 84.333 -2 153c0 45.333 1 88.166 3 128.499s4.33301 82.166 7 125.499h-2c-17.333 -4 -33 -6 -47 -6
c-16 0 -34 2 -54 6c0.666992 -12 1.5 -29.167 2.5 -51.5s1.83301 -47.5 2.5 -75.5c0.666992 -49.333 1 -93.333 1 -132c0 -20.667 -1 -39.5 -3 -56.5s-7 -33.5 -15 -49.5c-9.33301 -18.667 -23.833 -35 -43.5 -49s-43.834 -21 -72.501 -21zM356.998 615.003
c0 -13.333 4.5 -24.5 13.5 -33.5s19.833 -13.5 32.5 -13.5s23.667 4.66699 33 14s14 20.333 14 33s-4.66699 23.5 -14 32.5s-20.333 13.5 -33 13.5s-23.5 -4.5 -32.5 -13.5s-13.5 -19.833 -13.5 -32.5zM160.998 615.003c0 -13.333 4.5 -24.5 13.5 -33.5
s19.833 -13.5 32.5 -13.5s23.667 4.66699 33 14s14 20.333 14 33s-4.66699 23.5 -14 32.5s-20.333 13.5 -33 13.5s-23.5 -4.5 -32.5 -13.5s-13.5 -19.833 -13.5 -32.5z" />
    <glyph glyph-name="yacute" unicode="&#xfd;" 
d="M218 -18c-26 -53.333 -67.6631 -133.331 -124.996 -239.998l-2 -4c18 4 33 6 45 6c14 0 25.667 -2 35 -6c19.333 64.667 42.833 130.167 70.5 196.5s64.5 149.833 110.5 250.5l3 6c8 16 19.333 40 34 72l34 74.5c20 43.667 33.833 73.167 41.5 88.5l17.5 34.5
c4 7.66699 8.33301 15.167 13 22.5c-10.667 -4 -24 -6 -40 -6c-14.667 0 -29.334 2 -44.001 6c-11.333 -38.667 -24.5 -79.334 -39.5 -122.001s-29.833 -82.667 -44.5 -120s-27.334 -67.333 -38.001 -90s-17.334 -34 -20.001 -34s-5.83398 3.16699 -9.50098 9.5
s-7.5 14.5 -11.5 24.5l-37.5 95l-37 97.5l-31 84c-9.66699 26.333 -16.167 44.833 -19.5 55.5c-8.66699 -2.66699 -16.5 -4.33398 -23.5 -5.00098s-17.167 -1 -30.5 -1c-14.667 0 -26.5 0.5 -35.5 1.5s-18.167 2.5 -27.5 4.5l19.5 -40.5c5 -10.333 9.5 -20.166 13.5 -29.499
l13.5 -31.5c5 -11.667 11.167 -26.834 18.5 -45.501l23 -54.5l31 -72.5l53 -128zM232.004 549.002l166 104.001c12.667 8 19 18 19 30c0 9.33301 -3.33301 17.5 -10 24.5s-14.667 10.5 -24 10.5c-8 0 -14.5 -1.83301 -19.5 -5.5s-15.833 -13.834 -32.5 -30.501l-134 -133h35
z" />
    <glyph glyph-name="thorn" unicode="&#xfe;" horiz-adv-x="611" 
d="M564 237c0 42.667 -6.50098 79.998 -19.501 111.998s-30.5 58.333 -52.5 79s-46 35.834 -72 45.501s-52 14.5 -78 14.5c-25.333 0 -48 -3.5 -68 -10.5s-36.667 -15.667 -50 -26s-23.666 -20.166 -30.999 -29.499s-14.333 -19.333 -21 -30v91
c-0.666992 23.333 -1 45 -1 65c0 42.667 0.5 78.834 1.5 108.501s2.5 55.167 4.5 76.5c-20 -4 -36.667 -6 -50 -6s-30 2 -50 6c4 -180.667 6 -362 6 -544c0 -69.333 -0.333008 -125.333 -1 -168s-1.5 -81 -2.5 -115s-2 -62.667 -3 -86s-2.5 -51 -4.5 -83v-4
c8.66699 2 16.834 3.5 24.501 4.5s17.5 1.5 29.5 1.5c11.333 0 20.833 -0.5 28.5 -1.5s15.5 -2.5 23.5 -4.5c-1.33301 18 -2.16602 35.167 -2.49902 51.5s-0.833008 39.166 -1.5 68.499c-0.666992 38.667 -1 112 -1 220c9.33301 -24 28.166 -45.5 56.499 -64.5
s63.833 -28.5 106.5 -28.5c32.667 0 63 6 91 18s52.167 29.167 72.5 51.5s36.166 49.5 47.499 81.5s17 67.333 17 106zM460.999 231.998c0 -16.667 -1 -34.499 -3 -53.499s-7.5 -40.167 -16.5 -63.5s-23.667 -43.166 -44 -59.499s-46.833 -24.5 -79.5 -24.5
c-43.333 0 -78.666 16.333 -105.999 49c-12.667 15.333 -22.667 33.666 -30 54.999s-11 51.666 -11 90.999c0 44.667 3.66699 78.5 11 101.5s17.333 42.5 30 58.5s28.167 28.667 46.5 38s40.166 14 65.499 14c17.333 0 34 -3.83301 50 -11.5s30.667 -19.667 44 -36
s23.833 -37.833 31.5 -64.5s11.5 -58 11.5 -94z" />
    <glyph glyph-name="ydieresis" unicode="&#xff;" 
d="M218 -18c-26 -53.333 -67.6631 -133.331 -124.996 -239.998l-2 -4c18 4 33 6 45 6c14 0 25.667 -2 35 -6c19.333 64.667 42.833 130.167 70.5 196.5s64.5 149.833 110.5 250.5l3 6c8 16 19.333 40 34 72l34 74.5c20 43.667 33.833 73.167 41.5 88.5l17.5 34.5
c4 7.66699 8.33301 15.167 13 22.5c-10.667 -4 -24 -6 -40 -6c-14.667 0 -29.334 2 -44.001 6c-11.333 -38.667 -24.5 -79.334 -39.5 -122.001s-29.833 -82.667 -44.5 -120s-27.334 -67.333 -38.001 -90s-17.334 -34 -20.001 -34s-5.83398 3.16699 -9.50098 9.5
s-7.5 14.5 -11.5 24.5l-37.5 95l-37 97.5l-31 84c-9.66699 26.333 -16.167 44.833 -19.5 55.5c-8.66699 -2.66699 -16.5 -4.33398 -23.5 -5.00098s-17.167 -1 -30.5 -1c-14.667 0 -26.5 0.5 -35.5 1.5s-18.167 2.5 -27.5 4.5l19.5 -40.5c5 -10.333 9.5 -20.166 13.5 -29.499
l13.5 -31.5c5 -11.667 11.167 -26.834 18.5 -45.501l23 -54.5l31 -72.5l53 -128zM306.004 615.002c0 -13.333 4.5 -24.5 13.5 -33.5s19.833 -13.5 32.5 -13.5s23.667 4.66699 33 14s14 20.333 14 33s-4.66699 23.5 -14 32.5s-20.333 13.5 -33 13.5s-23.5 -4.5 -32.5 -13.5
s-13.5 -19.833 -13.5 -32.5zM110.004 615.002c0 -13.333 4.5 -24.5 13.5 -33.5s19.833 -13.5 32.5 -13.5s23.667 4.66699 33 14s14 20.333 14 33s-4.66699 23.5 -14 32.5s-20.333 13.5 -33 13.5s-23.5 -4.5 -32.5 -13.5s-13.5 -19.833 -13.5 -32.5z" />
    <glyph glyph-name="OE" unicode="&#x152;" horiz-adv-x="1000" 
d="M62 337c0 -56.667 8.50098 -107.501 25.501 -152.501s40.5 -82.667 70.5 -113s64.667 -53.166 104 -68.499s81 -23 125 -23c53.333 0 101.333 9.83301 144 29.5s78.334 50.167 107.001 91.5v-62c0 -16 -0.666992 -30.667 -2 -44
c27.333 2.66699 53.833 4.33398 79.5 5.00098s58.834 1 99.501 1c42.667 0 75.167 -0.333008 97.5 -1s44.833 -2.33398 67.5 -5.00098c-2 7.33301 -3.33301 16.666 -4 27.999c0 15.333 1.33301 28 4 38c-30.667 -4.66699 -62.5 -7.66699 -95.5 -9s-64.833 -2 -95.5 -2h-41
h-14c-0.666992 35.333 -1.16699 70.833 -1.5 106.5s-0.5 95.167 -0.5 178.5c48 0 89.167 -0.333008 123.5 -1s65.5 -2.33398 93.5 -5.00098c-2.66699 12.667 -4 23.667 -4 33c0 8 1.33301 18.667 4 32c-28.667 -4 -60.834 -6.5 -96.501 -7.5s-75.834 -1.5 -120.501 -1.5
c0 60.667 0.333008 124.334 1 191.001v55c60 0 107.333 -0.666992 142 -2s67.334 -4.66602 98.001 -9.99902c0 0.666992 -0.333008 1.66699 -1 3c-2 10 -3 19.333 -3 28c0 8 1 17.333 3 28c0.666992 2.66699 1 5.33398 1 8.00098c-40.667 -4 -89.667 -6 -147 -6
c-76 0 -139.667 2 -191 6c1.33301 -17.333 2.16602 -32.666 2.49902 -45.999s0.5 -31.333 0.5 -54c-30.667 37.333 -65.334 65 -104.001 83s-83.334 27 -134.001 27c-45.333 0 -88.166 -7.33301 -128.499 -22s-76.333 -36.834 -108 -66.501s-56.5 -67.334 -74.5 -113.001
s-27 -98.167 -27 -157.5zM173.001 338.999c0 41.333 4.83301 80.666 14.5 117.999s24.167 70.666 43.5 99.999s43.833 52.333 73.5 69s63.5 25 101.5 25c42 0 78 -8.16699 108 -24.5s54.167 -38.666 72.5 -66.999s31.5 -60.5 39.5 -96.5s12 -74 12 -114
c0 -42 -3.83301 -82 -11.5 -120s-20.5 -72.5 -38.5 -103.5s-42.667 -55.5 -74 -73.5s-69.333 -27 -114 -27c-40.667 0 -75.5 9.33301 -104.5 28s-52.5 43.5 -70.5 74.5s-31.167 64.833 -39.5 101.5s-12.5 73.334 -12.5 110.001z" />
    <glyph glyph-name="oe" unicode="&#x153;" horiz-adv-x="945" 
d="M868 111l-1.00098 -0.996094c-8.66699 -10.667 -17 -19.834 -25 -27.501s-18.333 -15.834 -31 -24.501s-27.5 -15.667 -44.5 -21s-36.167 -8 -57.5 -8c-49.333 0 -89.333 18.167 -120 54.5s-46 87.833 -46 154.5h355c0 80.667 -17.333 142.167 -52 184.5
s-91.667 63.5 -171 63.5c-36.667 0 -69.167 -6.33301 -97.5 -19s-54.166 -33.667 -77.499 -63c-50.667 55.333 -116.334 83 -197.001 83c-42.667 0 -80.167 -6.66699 -112.5 -20s-59 -31.833 -80 -55.5s-36.667 -51.167 -47 -82.5s-15.5 -65 -15.5 -101
c0 -74 22.5 -133.667 67.5 -179s104.5 -68 178.5 -68c39.333 0 76.833 7 112.5 21s65.5 37.333 89.5 70c22 -30 47.5 -52.5 76.5 -67.5s66.167 -22.5 111.5 -22.5c39.333 0 74.833 5.66699 106.5 17s57.834 27.666 78.501 48.999c1.33301 15.333 2.5 26.166 3.5 32.499
s2.5 14.833 4.5 25.5zM296.999 21.0039c-16 0 -32.4961 3.50195 -49.4961 10.502s-32.833 18.667 -47.5 35s-26.667 38.666 -36 66.999s-14 62.833 -14 103.5c0 16 1.16699 34.167 3.5 54.5s8.16602 42.666 17.499 66.999s24.666 45.166 45.999 62.499s49.666 26 84.999 26
c30.667 0 56.167 -7 76.5 -21s35.833 -32 46.5 -54s18 -44.667 22 -68s6 -45.666 6 -66.999c0 -38.667 -4.83301 -72 -14.5 -100s-22.334 -50.5 -38.001 -67.5s-32.5 -29.333 -50.5 -37s-35.667 -11.5 -53 -11.5zM544.003 280.006c1.33301 22 4.83301 42.834 10.5 62.501
s13.834 37.167 24.501 52.5s24.5 27.666 41.5 36.999s36.833 14 59.5 14c8 0 16.833 -1 26.5 -3s19.667 -5.83301 30 -11.5s20.166 -14.167 29.499 -25.5s16.333 -26 21 -44c6.66699 -24 10 -51.333 10 -82h-253z" />
    <glyph glyph-name="Scaron" unicode="&#x160;" horiz-adv-x="556" 
d="M438 560c1.33301 15.333 5.00293 31.3291 11.0029 47.9961s12 30.334 18 41.001c-16 10.667 -39.667 21 -71 31s-64.333 15 -99 15c-62.667 0 -115.334 -17 -158.001 -51s-64 -81.667 -64 -143c0 -24 4.16699 -47.333 12.5 -70s20.833 -40.667 37.5 -54
c6.66699 -6 13.167 -11.167 19.5 -15.5s14.166 -8.83301 23.499 -13.5s19.333 -9.33398 30 -14.001s35 -14.667 73 -30l11 -5c40.667 -16.667 71.5 -34.667 92.5 -54s31.5 -47.333 31.5 -84c0 -36 -12.5 -67.167 -37.5 -93.5s-61.833 -39.5 -110.5 -39.5
c-38 0 -71.5 9.5 -100.5 28.5s-51.167 44.167 -66.5 75.5h-13v-1c-0.666992 -11.333 -2.33398 -24.333 -5.00098 -39s-7 -32.667 -13 -54c25.333 -18.667 53.333 -32.5 84 -41.5s63.334 -13.5 98.001 -13.5c42.667 0 80 6.5 112 19.5s58.333 30.333 79 52
s35.834 45.667 45.501 72s14.5 52.833 14.5 79.5c0 23.333 -4.16699 46.333 -12.5 69s-22.833 42.334 -43.5 59.001c-8.66699 7.33301 -16.834 13.5 -24.501 18.5s-16.834 10 -27.501 15s-22.834 10.167 -36.501 15.5l-67.5 27l-7 2c-17.333 6.66699 -32 13 -44 19
s-23.667 13.667 -35 23s-20.5 21 -27.5 35s-10.5 30.333 -10.5 49c0 10.667 1.83301 22.334 5.5 35.001s10.167 25.167 19.5 37.5s22.5 22.5 39.5 30.5s38.167 12 63.5 12c21.333 0 40.333 -2.83301 57 -8.5s30.334 -13.167 41.001 -22.5s19.167 -19.166 25.5 -29.499
s11.5 -21.166 15.5 -32.499h14zM428.003 893.996h-33l-117 -105l-117 105h-34l123 -167h56z" />
    <glyph glyph-name="scaron" unicode="&#x161;" horiz-adv-x="444" 
d="M346 370c1.33301 16 3.66992 30.5039 7.00293 43.5039s7.66602 26.5 12.999 40.5v0c-18 9.33301 -37 17.166 -57 23.499s-45 9.5 -75 9.5c-32.667 0 -60.334 -4.83301 -83.001 -14.5s-40.5 -22 -53.5 -37s-22.333 -31 -28 -48s-8.5 -33.5 -8.5 -49.5
c0 -20.667 3.66699 -38.667 11 -54s16.833 -28.166 28.5 -38.499s23.5 -18.5 35.5 -24.5s25 -11.333 39 -16c31.333 -10 54.833 -18 70.5 -24s28.667 -12.333 39 -19s17.833 -14.667 22.5 -24s7 -21 7 -35c0 -26.667 -9.66699 -47 -29 -61s-43.333 -21 -72 -21
c-27.333 0 -51.666 6.33301 -72.999 19c-15.333 9.33301 -26.666 19.166 -33.999 29.499s-13.666 21.833 -18.999 34.5l-1 2l-12 -3c-2 -11.333 -5 -25 -9 -41s-8.66699 -29 -14 -39c12 -8.66699 31 -17.834 57 -27.501s56.333 -14.5 91 -14.5
c33.333 0 62.333 4.66699 87 14s44.667 21.666 60 36.999s26.666 32.5 33.999 51.5s11 38.5 11 58.5c0 24 -4 44 -12 60s-19.167 28.833 -33.5 38.5s-29.666 17.334 -45.999 23.001s-39.5 12.5 -69.5 20.5c-10 2.66699 -20.333 6 -31 10s-20.834 9.5 -30.501 16.5
s-17.5 15.667 -23.5 26s-9 22.166 -9 35.499c0 22 8.16699 40 24.5 54s39.166 21 68.499 21c11.333 0 22.666 -1.16699 33.999 -3.5s21.666 -6.83301 30.999 -13.5c12.667 -8.66699 21.5 -17.834 26.5 -27.501s9.16699 -20.167 12.5 -31.5v-1h13zM372.004 716.004h-33
l-117 -105l-117 105h-34l123 -167h56z" />
    <glyph glyph-name="Ydieresis" unicode="&#x178;" horiz-adv-x="611" 
d="M363 227c0 26.667 0.334961 44.9932 1.00195 54.9932c0 0.666992 0.666992 2.33398 2 5.00098c6 14.667 11.667 26.667 17 36c10 18.667 25.333 45.334 46 80.001l70 114.5l67.5 106.5l41.5 63c-8.66699 -2 -16.167 -3.5 -22.5 -4.5s-13.833 -1.5 -22.5 -1.5
c-19.333 0 -35 2 -47 6c-38 -92 -84.333 -185.333 -139 -280c0 -0.666992 -1.33301 -3 -4 -7c-8 -14 -15.5 -26.5 -22.5 -37.5s-11.5 -16.5 -13.5 -16.5c-3.33301 0 -9.5 7.16699 -18.5 21.5s-19.833 32.5 -32.5 54.5c-29.333 50.667 -54.333 95.834 -75 135.501
s-40.334 82.834 -59.001 129.501c-20 -4 -43.333 -6 -70 -6c-9.33301 0 -19.666 0.333008 -30.999 1s-22.333 2.33398 -33 5.00098l43 -70.5l43.5 -72.5l67.5 -112.5l94 -157.5v-75c0.666992 -17.333 1 -33 1 -47c0 -32 -0.5 -59.667 -1.5 -83s-2.83301 -48 -5.5 -74
c7.33301 2.66699 15.166 4.33398 23.499 5.00098s20.5 1 36.5 1c20 0 36.667 -2 50 -6c-1.33301 20 -2.33301 40.333 -3 61s-1.33398 44.334 -2.00098 71.001c-1.33301 42 -2 75.333 -2 100zM367.002 792.993c0 -13.333 4.5 -24.5 13.5 -33.5s19.833 -13.5 32.5 -13.5
s23.667 4.66699 33 14s14 20.333 14 33s-4.66699 23.5 -14 32.5s-20.333 13.5 -33 13.5s-23.5 -4.5 -32.5 -13.5s-13.5 -19.833 -13.5 -32.5zM171.002 792.993c0 -13.333 4.5 -24.5 13.5 -33.5s19.833 -13.5 32.5 -13.5s23.667 4.66699 33 14s14 20.333 14 33
s-4.66699 23.5 -14 32.5s-20.333 13.5 -33 13.5s-23.5 -4.5 -32.5 -13.5s-13.5 -19.833 -13.5 -32.5z" />
    <glyph glyph-name="florin" unicode="&#x192;" 
d="M437 599l-0.00390625 13.0039c-0.666992 3.33301 -1 6.33301 -1 9c0 12 1 22.667 3 32s5.66699 21.333 11 36c-23.333 0 -46.666 -4 -69.999 -12s-47 -25 -71 -51c-21.333 -24 -40 -52.667 -56 -86s-28.667 -73 -38 -119c-18 0 -45.667 1 -83 3l-26 2
c0 -1.33301 0.333008 -4 1 -8v-6c0 -8 -2 -19.333 -6 -34c10.667 1.33301 24.167 2.16602 40.5 2.49902s37.833 0.5 64.5 0.5l-4 -20l-12 -57c-19.333 -94 -30.833 -150.5 -34.5 -169.5l-10.5 -54c-3.33301 -17 -11.333 -60.167 -24 -129.5
c-7.33301 -38 -15.833 -64.833 -25.5 -80.5s-23.5 -23.5 -41.5 -23.5c-17.333 0 -31.666 6.66699 -42.999 20h-10c0 -25.333 -1 -43.833 -3 -55.5s-5.66699 -24.167 -11 -37.5v0c16.667 0.666992 31.667 2.16699 45 4.5s27.833 7.33301 43.5 15s31.334 19.167 47.001 34.5
s31.167 36 46.5 62c13.333 23.333 26.5 54.666 39.5 93.999s24.833 82.166 35.5 128.499s20 90 28 131s16.333 86.833 25 137.5c17.333 0 34.833 -0.166992 52.5 -0.5s35.834 -1.16602 54.501 -2.49902v10v6c0 5.33301 0.166992 10.166 0.5 14.499s1.5 10.166 3.5 17.499
c-29.333 -3.33301 -64.333 -5 -105 -5c4 30.667 8.33301 59.5 13 86.5s9.66699 48.5 15 64.5c5.33301 14 11.833 24.833 19.5 32.5s18.5 11.5 32.5 11.5c9.33301 0 17.833 -2.16699 25.5 -6.5s14.167 -9.83301 19.5 -16.5z" />
    <glyph glyph-name="circumflex" unicode="&#x2c6;" horiz-adv-x="278" 
d="M-12 549h34l117 105l117 -105h33l-122 167h-56z" />
    <glyph glyph-name="tilde" unicode="&#x2dc;" horiz-adv-x="278" 
d="M3 574c5.33301 18.667 13.501 30.999 24.501 36.999s21.167 9 30.5 9c11.333 0 27 -5 47 -15l35 -17c18.667 -9.33301 37.667 -14 57 -14c16 0 30.167 3.5 42.5 10.5s22.833 16 31.5 27s15.5 22.167 20.5 33.5s8.5 21.666 10.5 30.999h-29
c-6 -14.667 -13.333 -26.667 -22 -36s-20 -14 -34 -14c-8 0 -14.833 1 -20.5 3s-15.834 6.33301 -30.501 13l-3 1c-1.33301 0.666992 -2.33301 1.33398 -3 2.00098c-28 12.667 -45.833 20.334 -53.5 23.001s-16.5 4 -26.5 4c-24.667 0 -47 -9 -67 -27
s-32.333 -41.667 -37 -71h27z" />
    <glyph glyph-name="endash" unicode="&#x2013;" 
d="M0 187h500v60h-500v-60z" />
    <glyph glyph-name="emdash" unicode="&#x2014;" horiz-adv-x="1000" 
d="M130 187h740v60h-740v-60z" />
    <glyph glyph-name="quoteleft" unicode="&#x2018;" horiz-adv-x="250" 
d="M208 695c-7.33301 0.666992 -14.666 3.33203 -21.999 7.99902l-121 -202c-4.66699 -7.33301 -8.33398 -14.333 -11.001 -21s-4 -13.667 -4 -21c0 -11.333 3.83301 -21.166 11.5 -29.499s18.167 -12.5 31.5 -12.5c15.333 0 26.5 4.83301 33.5 14.5s12.5 21.5 16.5 35.5z
" />
    <glyph glyph-name="quoteright" unicode="&#x2019;" horiz-adv-x="250" 
d="M42 417c8.66699 -1.33301 16.001 -4.00098 22.001 -8.00098l121 202c10 16.667 15 30.667 15 42c0 10.667 -3.66699 20.334 -11 29.001s-18 13 -32 13c-15.333 0 -26.333 -4.66699 -33 -14s-12.334 -21 -17.001 -35v-1z" />
    <glyph glyph-name="quotesinglbase" unicode="&#x201a;" horiz-adv-x="250" 
d="M38 -165c8.66699 0 16 -2.66699 22 -8l122 203c9.33301 15.333 14 29.333 14 42c0 10.667 -3.66699 20.167 -11 28.5s-18 12.5 -32 12.5c-15.333 0 -26.5 -4.83301 -33.5 -14.5s-12.5 -21.5 -16.5 -35.5z" />
    <glyph glyph-name="quotedblleft" unicode="&#x201c;" 
d="M252 695c-7.33301 0.666992 -14.667 3.33203 -22 7.99902l-122 -202l-2 -4c-8 -15.333 -12 -28 -12 -38c0 -11.333 3.83301 -21.166 11.5 -29.499s18.167 -12.5 31.5 -12.5c15.333 0 26.5 4.83301 33.5 14.5s12.5 21.5 16.5 35.5zM414.999 694.998
c-7.33301 0.666992 -14.666 3.33398 -21.999 8.00098l-121 -202c-4.66699 -7.33301 -8.33398 -14.333 -11.001 -21s-4 -13.667 -4 -21c0 -10.667 3.83301 -20.334 11.5 -29.001s18.5 -13 32.5 -13c14.667 0 25.5 4.66699 32.5 14s12.833 21 17.5 35v1z" />
    </font>
</defs>
</svg>
